<?xml version="1.0" encoding="utf-8" standalone="no"?>
<!DOCTYPE svg PUBLIC "-//W3C//DTD SVG 1.1//EN"
  "http://www.w3.org/Graphics/SVG/1.1/DTD/svg11.dtd">
<!-- Created with matplotlib (http://matplotlib.sourceforge.net/) -->
<svg height="432pt" version="1.1" viewBox="0 0 576 432" width="576pt" xmlns="http://www.w3.org/2000/svg" xmlns:xlink="http://www.w3.org/1999/xlink">
 <defs>
  <style type="text/css">
*{stroke-linecap:square;stroke-linejoin:round;}
  </style>
 </defs>
 <g id="figure_1">
  <g id="patch_1">
   <path d="
M0 432
L576 432
L576 0
L0 0
z
" style="fill:#ffffff;"/>
  </g>
  <g id="axes_1">
   <g id="patch_2">
    <path d="
M57.6 388.8
L558.72 388.8
L558.72 34.56
L57.6 34.56
z
" style="fill:#ffffff;"/>
   </g>
   <g id="line2d_1">
    <path clip-path="url(#pe602019af8)" d="
M57.1428 89.5248
L58.0572 89.9601
L58.5145 90.0951
L58.9717 90.1723
L59.4289 90.7076
L63.5439 90.8017
L64.9156 90.8229
L65.3728 91.2624
L65.8301 91.4624
L66.2873 92.7893
L71.3168 92.9812
L72.2312 93.5487
L72.6885 93.6166
L74.5174 93.6629
L74.9746 94.9341
L75.8891 95.5673
L77.2607 99.8829
L77.718 100.699
L78.1752 100.833
L78.6324 101.101
L80.9185 101.463
L81.3758 101.65
L81.833 102.132
L82.2902 102.349
L83.6619 102.359
L84.1191 102.692
L84.5764 102.705
L85.0336 106.656
L86.8625 106.665
L87.3197 106.948
L90.9775 107.104
L91.4347 107.144
L91.892 107.625
L94.1781 107.704
L94.6353 107.975
L95.5498 108.057
L96.007 108.59
L96.9215 108.647
L97.8359 108.815
L98.2931 110.683
L102.865 110.79
L104.694 110.99
L107.438 111.101
L107.895 111.169
L109.267 111.239
L109.724 111.629
L110.181 111.746
L110.638 112.197
L111.095 112.479
L112.924 112.52
L113.839 113.174
L114.753 113.236
L116.582 113.269
L117.039 113.54
L118.868 113.635
L119.326 113.978
L120.24 113.996
L120.697 118.775
L125.269 118.975
L125.727 119.937
L126.641 119.948
L127.098 120.513
L127.556 120.513
L128.927 120.836
L129.385 120.911
L130.299 121.338
L132.128 121.351
L132.585 125.63
L133.957 125.735
L134.414 130.079
L134.871 130.081
L135.328 130.261
L135.786 130.263
L138.072 130.971
L139.901 131.018
L141.272 131.828
L141.73 131.838
L142.187 132.126
L142.644 132.873
L145.387 133.082
L145.845 134.676
L146.302 134.941
L147.674 135.042
L148.131 135.586
L149.502 135.967
L149.96 135.967
L150.874 139.188
L151.789 139.694
L152.246 140.914
L155.446 141.116
L160.019 141.131
L160.476 141.312
L161.39 141.364
L161.848 142.048
L162.305 144.264
L165.048 144.745
L166.877 144.775
L167.334 144.925
L168.249 145.004
L168.706 145.075
L170.535 145.08
L170.992 149.695
L171.449 149.921
L171.907 150.995
L173.735 151.301
L174.193 151.31
L174.65 151.453
L175.564 151.46
L176.936 151.736
L177.393 152.309
L177.851 152.311
L178.308 153.424
L180.137 153.446
L180.594 154.534
L182.88 154.646
L183.337 154.732
L184.252 155.672
L186.081 155.811
L186.538 160.265
L186.995 160.273
L187.452 160.523
L187.909 160.598
L189.281 160.667
L190.196 160.87
L191.11 163.269
L192.939 163.364
L193.396 163.428
L193.853 164.626
L194.311 164.692
L195.682 164.752
L196.14 165.552
L196.597 165.885
L197.054 166.061
L197.511 167.146
L197.968 167.428
L199.34 167.434
L199.797 168.04
L200.255 168.307
L202.084 168.307
L202.541 168.454
L202.998 168.763
L203.455 170.362
L204.37 170.453
L205.284 171.532
L205.741 171.678
L206.199 175.544
L208.485 175.667
L208.942 176.225
L209.399 176.518
L209.856 178.377
L210.314 178.934
L211.685 178.934
L212.6 181.371
L215.343 181.513
L215.8 183.418
L217.172 183.532
L218.086 183.604
L219.001 184.266
L221.287 184.361
L221.744 187.094
L223.573 187.21
L224.945 187.659
L225.402 188.191
L225.859 188.259
L226.316 189.612
L228.145 189.722
L228.603 189.992
L229.517 190.199
L230.889 191.36
L232.26 191.688
L232.718 193.083
L234.547 193.112
L235.004 193.379
L235.918 193.421
L236.375 193.951
L238.662 194.029
L239.119 194.164
L239.576 194.164
L241.405 194.765
L241.862 200.337
L244.148 200.47
L244.606 200.784
L245.063 201.343
L245.52 201.356
L246.892 202.292
L247.349 203.561
L248.721 203.773
L250.092 206.462
L250.549 206.462
L251.921 206.956
L253.75 207.008
L255.122 207.611
L256.493 212.453
L256.951 213.156
L257.408 213.158
L257.865 214.42
L258.322 214.833
L259.694 214.844
L260.151 215.11
L261.066 215.18
L261.523 215.34
L261.98 215.34
L263.352 222.488
L263.809 223.168
L264.266 223.356
L266.095 223.363
L266.552 223.639
L267.924 223.778
L269.296 223.912
L270.667 224.648
L271.125 224.792
L272.496 229.255
L272.954 229.529
L273.411 229.564
L273.868 229.724
L275.697 229.967
L276.154 233.52
L277.069 233.627
L277.526 233.831
L278.44 233.832
L278.898 234.132
L279.355 234.146
L279.812 234.419
L283.927 234.473
L285.299 235.41
L286.67 235.488
L287.128 236.06
L288.956 236.495
L289.414 238.121
L289.871 238.248
L292.614 238.339
L293.072 238.478
L293.529 239.022
L293.986 239.022
L295.358 239.308
L295.815 240.511
L296.272 240.514
L296.729 241
L301.759 241.13
L303.131 241.413
L304.502 243.538
L305.874 243.575
L306.331 244.724
L307.703 245.283
L308.617 245.962
L309.532 246.61
L311.361 246.666
L311.818 247.731
L312.275 249.328
L312.732 249.33
L314.104 250.172
L314.561 250.803
L315.018 250.854
L315.933 254.89
L317.305 255.449
L317.762 257.092
L319.133 257.963
L320.505 258.5
L321.42 259.324
L321.877 261.692
L322.334 262.24
L324.163 262.24
L325.077 262.407
L325.535 262.487
L327.364 264.611
L328.278 264.721
L328.735 265.025
L329.65 265.025
L330.107 265.511
L330.564 268.705
L331.021 268.908
L331.479 269.591
L331.936 272.797
L333.307 276.2
L333.765 276.741
L334.222 276.87
L334.679 278.796
L335.136 278.957
L336.508 283.41
L336.965 283.652
L337.88 283.667
L338.337 286.07
L339.251 286.07
L339.709 286.508
L340.166 286.724
L340.623 287.574
L341.08 288.053
L341.538 288.263
L342.909 289.116
L343.366 289.119
L343.824 289.656
L344.281 290.896
L344.738 292.526
L346.567 292.591
L347.024 295.776
L347.481 296.844
L347.939 297.362
L349.31 297.758
L349.768 299.392
L350.682 299.559
L351.139 299.637
L352.511 308.837
L352.968 308.961
L353.425 309.575
L353.883 313.044
L354.34 317.655
L356.169 319.636
L356.626 321.269
L357.083 322.01
L357.54 322.495
L358.912 322.565
L359.369 326.931
L359.827 327.368
L360.284 330.954
L360.741 335.465
L361.198 335.465
L362.57 338.436
L363.484 338.822
L365.313 343.114
L365.771 344.792
L366.228 349.947
L366.685 350.58
L367.142 355.037
L368.514 355.354
L368.971 356.284
L369.428 357.766
L369.886 358.325
L370.343 359.683
L371.714 359.972
L372.172 366.521
L372.629 366.523
L373.086 367.044
L375.829 367.136
L379.945 367.219
L395.033 367.344
L421.552 367.553
L436.183 367.686
L437.098 367.813
L462.245 368.048
L462.702 369.18
L494.708 369.42
L495.166 369.63
L497.452 369.662
L497.909 369.798
L501.567 369.825
L510.254 369.879
L510.711 370.017
L532.201 370.234
L534.944 370.273
L558.263 370.477
L558.263 370.477" style="fill:none;stroke:#008000;stroke-width:3.5;"/>
   </g>
   <g id="line2d_2">
    <path clip-path="url(#pe602019af8)" d="
M57.1428 207.744
L58.0572 207.783
L58.5145 208.051
L59.8861 208.176
L61.715 208.254
L62.6295 208.438
L63.0867 209.166
L63.5439 209.166
L64.4584 209.477
L64.9156 209.783
L65.8301 209.944
L66.2873 210.479
L69.0307 210.773
L69.4879 211.027
L70.8596 211.286
L71.774 211.826
L74.0601 211.908
L74.9746 212.152
L77.2607 212.243
L79.0896 212.694
L81.833 212.817
L83.6619 212.873
L84.1191 213.437
L85.948 213.651
L86.8625 214.737
L88.6914 214.99
L90.9775 215.248
L91.4347 216.468
L91.892 216.482
L93.2636 216.87
L94.1781 216.962
L94.6353 219.185
L96.007 219.185
L97.8359 219.675
L99.6648 219.919
L100.579 220.199
L101.036 220.563
L101.951 220.563
L102.865 221.144
L103.323 221.279
L106.523 221.427
L107.895 221.671
L109.724 221.732
L111.095 221.997
L114.753 222.622
L116.125 222.769
L118.868 223.105
L119.326 223.331
L119.783 224.493
L120.697 224.762
L123.441 224.97
L123.898 225.066
L125.727 225.531
L126.184 225.546
L126.641 225.862
L128.47 225.978
L129.385 226.239
L130.756 226.406
L132.128 226.62
L132.585 227.203
L134.414 227.279
L134.871 227.603
L135.786 227.739
L138.529 227.996
L138.986 229.209
L139.901 229.454
L141.73 229.548
L142.187 229.566
L142.644 229.878
L144.93 230.223
L145.387 230.247
L145.845 230.84
L147.674 230.973
L148.588 231.167
L149.045 231.808
L149.96 231.85
L150.874 232.166
L151.331 232.452
L158.647 233.301
L160.476 233.317
L160.933 233.861
L161.848 234.092
L162.305 234.175
L163.676 234.191
L164.134 235.593
L165.048 235.818
L165.505 235.912
L166.877 235.972
L167.334 236.253
L168.249 236.522
L168.706 237.188
L170.992 237.324
L171.449 237.499
L173.278 237.641
L173.735 238.031
L174.193 238.636
L175.564 238.841
L177.393 239.615
L178.765 239.844
L179.679 239.878
L180.137 240.009
L180.594 240.319
L183.337 240.579
L183.794 241.167
L184.709 241.679
L186.538 241.814
L186.995 242.039
L187.909 242.316
L190.196 242.467
L192.482 242.76
L192.939 243.035
L193.853 243.322
L194.311 244.039
L196.14 244.208
L197.511 244.578
L197.968 244.578
L199.34 244.793
L199.797 245.441
L200.712 245.486
L202.541 245.509
L202.998 245.76
L203.455 246.331
L205.284 246.558
L206.199 247.69
L206.656 247.882
L208.942 248.019
L209.399 248.607
L210.314 248.915
L211.685 248.926
L212.6 249.206
L213.057 250.568
L214.886 250.661
L215.343 251.304
L215.8 251.306
L216.258 251.49
L218.086 251.691
L219.001 252.497
L220.373 252.528
L221.287 253.158
L222.201 253.288
L222.659 253.378
L223.116 253.776
L225.402 253.878
L225.859 253.923
L226.316 254.371
L228.145 255.401
L228.603 255.501
L229.06 256.127
L229.517 256.321
L230.889 257.404
L232.718 257.613
L237.747 257.868
L239.119 258.353
L240.491 258.414
L240.948 258.623
L244.148 258.945
L245.063 259.192
L245.52 259.224
L246.892 260.34
L248.263 260.542
L248.721 260.865
L250.549 260.952
L251.464 261.351
L253.293 261.437
L254.207 261.808
L254.665 261.824
L255.122 261.996
L257.408 262.127
L258.322 262.199
L261.98 262.887
L264.266 263.159
L265.181 263.237
L267.467 263.367
L269.296 263.408
L269.753 265.563
L270.667 265.692
L271.125 265.814
L272.496 265.892
L272.954 266.053
L273.868 266.081
L274.325 266.634
L275.697 266.708
L276.154 266.865
L278.898 267.045
L279.355 267.607
L280.726 267.761
L282.098 268.103
L282.555 269.384
L285.299 269.845
L286.213 270.004
L286.67 270.075
L287.128 270.392
L288.956 270.492
L289.871 270.952
L290.328 270.954
L291.7 272.127
L293.072 272.399
L293.529 273.096
L294.9 273.197
L295.815 273.477
L296.729 273.669
L298.558 273.819
L299.015 274.139
L299.473 274.229
L299.93 274.811
L301.759 275.189
L302.216 275.792
L303.131 276.045
L304.502 276.1
L305.417 276.451
L305.874 277.793
L306.331 277.98
L308.617 278.23
L309.074 282.654
L310.903 282.861
L311.361 283.455
L312.275 283.814
L312.732 284.39
L314.104 284.591
L315.476 285.261
L315.933 285.314
L318.219 286.306
L319.133 286.528
L320.505 286.875
L320.962 287.45
L321.42 287.494
L321.877 287.945
L322.334 287.945
L324.62 288.598
L325.077 290.217
L325.535 290.931
L326.906 291.01
L327.364 291.426
L328.278 291.481
L328.735 291.609
L329.65 291.609
L330.564 291.8
L331.479 291.922
L331.936 292.247
L333.765 292.412
L336.508 293.052
L336.965 293.083
L337.422 293.548
L337.88 293.605
L338.337 293.917
L339.709 294.015
L340.166 294.642
L341.08 294.829
L341.538 295.036
L343.366 295.402
L344.738 296.172
L346.567 296.395
L347.939 297.093
L349.768 297.275
L350.225 297.574
L350.682 297.636
L351.139 297.955
L352.511 298.008
L352.968 298.512
L353.883 298.728
L354.34 299.148
L356.169 299.28
L356.626 299.742
L357.54 299.912
L358.912 299.961
L359.827 300.127
L362.113 300.318
L362.57 300.507
L363.027 300.56
L363.484 301.419
L363.942 301.666
L368.514 302.355
L368.971 302.595
L369.886 302.723
L370.343 302.885
L372.172 303.01
L373.543 303.362
L375.829 303.656
L376.287 304.106
L379.03 304.19
L379.487 304.303
L379.945 304.663
L380.859 304.663
L381.316 304.844
L381.773 304.89
L382.231 307.201
L383.145 307.434
L384.517 307.482
L384.974 307.74
L385.888 307.88
L386.346 308.563
L388.175 308.698
L389.546 310.793
L391.375 311.51
L392.747 311.842
L397.319 312.244
L397.776 312.303
L398.234 312.769
L398.691 312.817
L399.148 312.991
L400.52 312.991
L401.891 313.385
L402.349 313.421
L404.178 313.774
L404.635 313.792
L405.092 314.006
L406.921 314.083
L407.378 314.648
L408.75 314.867
L410.579 315.415
L411.036 319.795
L411.493 320.192
L412.408 320.192
L415.151 321.152
L418.352 321.613
L419.723 321.638
L420.638 321.931
L421.552 322.011
L427.953 322.637
L429.325 322.687
L429.782 322.96
L431.154 323.2
L432.983 323.294
L433.897 323.434
L434.354 323.487
L436.183 323.553
L437.098 323.774
L442.127 324.107
L445.328 324.475
L446.242 324.659
L448.986 324.78
L449.443 325.132
L450.357 325.468
L452.644 325.574
L453.558 325.94
L455.387 326.076
L456.759 326.368
L458.587 326.495
L459.959 326.656
L461.788 326.74
L462.702 326.958
L463.16 326.999
L464.989 327.57
L466.36 327.736
L468.646 328.085
L469.104 328.356
L469.561 328.364
L471.847 328.855
L472.761 329.372
L474.133 329.458
L474.59 329.827
L475.505 329.904
L475.962 330.071
L477.334 330.098
L477.791 330.364
L478.248 330.422
L478.705 331.316
L479.163 331.406
L480.534 331.988
L480.992 332.429
L481.449 332.488
L482.363 332.866
L483.735 332.952
L484.649 333.196
L485.107 333.256
L485.564 333.691
L487.393 333.861
L487.85 334.19
L488.764 334.35
L490.593 334.41
L491.965 334.795
L493.337 334.907
L493.794 335.438
L495.166 335.9
L497.909 336.1
L498.366 336.271
L499.738 336.371
L500.195 336.971
L501.567 337.179
L502.938 337.297
L503.396 338.815
L506.139 339.172
L506.596 339.396
L507.511 340.155
L509.34 340.259
L511.168 341.171
L512.54 341.289
L512.997 341.681
L514.369 341.855
L515.741 341.956
L516.198 342.319
L517.112 342.584
L519.399 342.702
L519.856 342.939
L520.313 342.977
L520.77 343.319
L522.142 343.427
L522.599 343.585
L523.056 343.61
L523.514 344.762
L525.342 344.987
L525.8 345.127
L526.257 346.561
L527.171 346.718
L529 347.86
L529.458 348.52
L530.372 348.757
L532.201 348.934
L533.115 349.38
L533.573 349.849
L535.859 350.047
L536.316 350.332
L538.145 350.332
L538.602 350.697
L539.516 350.946
L539.974 351.378
L541.803 351.941
L542.717 352.539
L545.003 352.66
L545.46 353.145
L545.918 353.189
L546.375 353.874
L548.204 353.916
L548.661 354.332
L549.118 354.53
L555.519 354.538
L558.263 354.538
L558.263 354.538" style="fill:none;stroke:#0000ff;stroke-width:3.5;"/>
   </g>
   <g id="line2d_3">
    <path clip-path="url(#pe602019af8)" d="
M57.1428 214.814
L59.4289 214.884
L61.715 215.005
L62.6295 215.04
L63.0867 218.945
L63.5439 219.231
L64.4584 219.288
L64.9156 219.584
L70.8596 219.764
L71.3168 220.322
L72.6885 220.391
L81.3758 220.666
L87.3197 221.261
L97.3787 221.68
L97.8359 221.873
L100.122 221.926
L102.865 222.045
L104.237 222.137
L107.438 222.313
L107.895 222.873
L109.724 222.91
L110.181 223.189
L113.839 223.364
L114.753 223.516
L116.582 223.584
L117.039 224.12
L118.868 224.321
L119.783 224.365
L120.24 225.441
L126.184 225.671
L126.641 226.026
L129.385 226.13
L130.299 230.601
L130.756 230.609
L131.671 232.745
L132.128 232.763
L132.585 233.48
L134.414 233.512
L138.529 233.599
L138.986 233.853
L139.444 233.86
L139.901 234.123
L144.93 234.22
L146.302 234.3
L147.674 234.311
L148.131 234.738
L148.588 234.744
L149.045 235.127
L149.96 235.184
L151.331 235.214
L152.246 235.528
L152.703 235.671
L154.532 235.756
L154.989 235.899
L160.933 235.979
L162.305 236.241
L163.676 236.261
L164.134 237.627
L164.591 237.644
L165.048 239.106
L165.505 239.644
L167.334 239.673
L168.249 239.795
L168.706 239.839
L170.078 239.856
L170.535 240.026
L176.936 240.168
L177.851 240.221
L178.308 240.643
L179.679 240.651
L180.137 240.917
L181.051 241.041
L182.88 241.11
L186.538 241.293
L186.995 241.606
L191.11 241.836
L194.311 241.976
L198.883 242.194
L199.34 242.256
L199.797 242.862
L200.255 243.014
L202.084 243.065
L202.541 243.612
L204.37 243.664
L205.741 244.486
L214.886 244.742
L215.343 245.292
L217.172 245.442
L219.001 245.558
L219.458 248.249
L219.915 249.335
L234.089 249.954
L235.004 250.18
L236.375 250.336
L237.29 253.061
L238.662 253.204
L239.119 253.348
L240.491 253.394
L240.948 253.84
L247.806 254.071
L248.263 254.615
L248.721 254.734
L253.293 254.833
L256.493 255.16
L258.322 255.236
L261.066 255.342
L262.895 255.404
L266.095 255.539
L275.697 255.82
L279.812 256.13
L280.269 256.667
L280.726 258.284
L283.47 258.374
L283.927 260.552
L285.756 260.616
L287.128 261.148
L288.499 261.692
L289.871 261.744
L290.328 261.957
L292.614 262.122
L293.072 270.629
L293.986 270.659
L295.358 271.048
L295.815 271.059
L296.272 271.684
L298.558 271.863
L299.015 272.155
L299.93 272.193
L301.759 272.232
L302.216 274.975
L302.673 276.634
L317.305 277.18
L318.676 277.445
L319.133 278.522
L323.706 278.707
L324.163 281.52
L325.535 281.707
L326.906 281.724
L327.364 281.889
L327.821 281.906
L328.278 282.28
L329.65 282.285
L330.107 282.415
L330.564 282.421
L331.021 286.693
L336.508 287.224
L337.422 287.399
L339.251 287.463
L339.709 287.48
L340.623 288.089
L341.08 288.147
L341.538 292.529
L347.481 292.733
L347.939 292.778
L351.139 292.872
L357.083 293.094
L357.54 293.303
L363.027 293.436
L366.228 293.536
L366.685 293.695
L370.343 293.78
L373.543 293.867
L375.829 294.002
L376.287 294.271
L376.744 294.286
L378.116 295.028
L381.316 295.089
L381.773 295.359
L386.346 295.49
L387.717 297.086
L389.089 297.262
L389.546 297.339
L392.747 297.514
L400.977 297.618
L427.953 298.197
L433.897 298.361
L437.098 298.536
L437.555 298.603
L438.927 298.603
L439.384 299.167
L443.956 299.36
L445.785 299.633
L446.242 300.706
L449.443 300.743
L449.9 301.413
L450.357 301.48
L452.186 301.612
L452.644 301.895
L456.759 302
L458.587 302.299
L459.959 302.389
L465.446 302.496
L466.36 302.559
L469.561 302.623
L472.761 302.816
L480.534 302.975
L481.906 303.076
L482.363 304.139
L497.909 304.53
L498.366 304.667
L503.853 304.776
L506.596 304.84
L507.053 305.022
L508.882 305.132
L510.711 305.225
L511.168 305.23
L512.997 305.487
L518.941 305.691
L519.399 305.817
L519.856 309.345
L520.313 310.442
L526.714 310.7
L527.171 310.92
L530.372 311.016
L533.115 311.141
L533.573 311.688
L536.773 311.759
L539.059 312.161
L543.174 312.468
L544.546 312.484
L545.46 314.91
L546.832 314.971
L547.747 315.411
L549.575 315.474
L550.947 315.487
L551.404 315.623
L551.862 317.763
L554.148 317.88
L554.605 331.093
L558.263 331.265
L558.263 331.265" style="fill:none;stroke:#ff0000;stroke-width:3.5;"/>
   </g>
   <g id="line2d_4">
    <path clip-path="url(#pe602019af8)" d="
M57.1428 307.338
L63.5439 307.384
L65.3728 307.514
L72.2312 307.576
L72.6885 307.651
L80.9185 307.687
L82.2902 308.139
L84.5764 308.139
L85.0336 308.346
L91.4347 308.437
L93.2636 308.474
L97.3787 308.495
L97.8359 308.628
L103.78 308.719
L104.237 308.987
L104.694 308.987
L106.523 309.264
L107.895 309.277
L109.267 311.466
L114.753 311.518
L115.668 311.841
L120.24 311.895
L120.697 311.968
L125.269 311.972
L125.727 312.237
L129.842 312.287
L133.042 312.304
L133.5 312.437
L138.529 312.507
L138.986 313.057
L139.901 313.131
L140.815 313.131
L141.272 313.397
L170.992 313.728
L171.907 313.832
L180.594 313.922
L181.508 313.984
L186.081 313.992
L186.538 314.528
L186.995 316.65
L187.909 316.692
L190.196 316.787
L190.653 317.152
L192.482 317.187
L202.084 317.243
L202.541 317.381
L211.685 317.487
L213.057 317.644
L217.172 317.658
L218.086 317.66
L218.544 317.793
L219.001 317.795
L219.458 317.994
L223.573 318
L224.488 318.265
L228.145 318.272
L228.603 318.72
L229.517 318.935
L232.26 318.956
L232.718 319.106
L236.375 319.389
L244.606 319.435
L245.063 321.558
L253.293 321.643
L253.75 321.927
L256.493 321.994
L256.951 322.135
L257.408 322.143
L257.865 322.305
L264.266 322.417
L265.181 322.52
L267.924 322.607
L271.125 322.677
L278.898 322.762
L283.47 323.004
L295.358 323.085
L295.815 325.225
L299.93 325.307
L304.959 325.443
L312.275 325.498
L312.732 326.568
L327.364 326.636
L327.821 328.792
L328.735 328.865
L331.021 328.867
L331.479 329.198
L333.307 329.198
L333.765 329.348
L334.679 329.349
L335.136 329.847
L336.508 329.847
L336.965 330.013
L338.337 330.051
L347.481 330.09
L347.939 330.222
L357.54 330.429
L358.912 330.429
L359.369 330.603
L363.484 330.736
L363.942 331.002
L366.228 331.13
L366.685 331.33
L369.886 331.688
L372.172 331.756
L378.573 331.816
L379.03 331.953
L380.859 331.956
L381.316 332.487
L381.773 332.488
L382.231 334.611
L385.888 334.68
L386.346 334.746
L391.832 334.839
L392.747 334.912
L395.947 334.948
L397.319 337.071
L406.464 337.298
L406.921 337.572
L411.036 337.611
L411.493 338.021
L412.408 338.025
L413.322 339.485
L414.236 339.551
L414.694 339.565
L415.151 339.836
L421.552 339.872
L424.295 339.986
L431.154 340.002
L433.44 340.138
L436.183 340.139
L437.098 340.384
L439.384 340.398
L439.841 340.532
L440.298 340.532
L440.756 340.664
L442.127 342.787
L443.956 342.866
L445.328 343.939
L446.7 344.041
L449.443 344.041
L449.9 344.572
L454.93 344.617
L455.387 344.95
L458.587 345.084
L459.502 345.25
L463.16 345.269
L466.36 345.283
L467.732 345.818
L480.534 345.877
L480.992 346.036
L481.449 346.072
L481.906 346.304
L484.649 346.311
L485.107 346.708
L486.935 346.72
L487.393 346.853
L490.593 346.898
L491.051 347.168
L491.965 347.184
L493.337 349.307
L494.251 349.309
L494.708 349.475
L495.166 349.475
L496.537 350.006
L499.738 350.113
L517.112 350.335
L519.399 350.367
L526.714 350.453
L527.171 351.023
L531.744 351.116
L532.658 351.184
L533.573 351.201
L535.401 351.47
L539.974 351.595
L544.546 351.838
L545.003 351.838
L545.46 353.971
L554.148 354.157
L555.977 354.199
L558.263 354.204
L558.263 354.204" style="fill:none;stroke:#ffa500;stroke-width:3.5;"/>
   </g>
   <g id="line2d_5">
    <path clip-path="url(#pe602019af8)" d="
M57.1428 332.642
L77.718 332.751
L85.948 332.796
L109.724 332.874
L110.638 332.941
L116.582 332.989
L117.497 333.055
L123.898 333.092
L125.727 333.359
L132.585 333.405
L133.042 334.682
L140.815 334.786
L141.73 334.855
L149.045 334.883
L149.502 335.423
L158.19 335.444
L158.647 335.576
L161.848 335.588
L162.305 335.721
L176.936 335.818
L181.508 335.894
L187.909 335.941
L189.281 336.538
L192.939 336.569
L202.541 336.669
L202.998 336.952
L211.685 337.071
L213.514 337.09
L214.886 339.213
L219.001 339.267
L219.915 339.35
L225.859 339.452
L226.316 340.049
L234.547 340.092
L235.004 340.224
L244.148 340.292
L244.606 340.441
L247.349 340.465
L247.806 340.996
L279.355 341.182
L279.812 341.722
L288.956 341.752
L289.414 342.283
L302.216 342.32
L302.673 342.59
L308.16 342.64
L309.074 342.71
L310.903 342.717
L311.361 343.256
L317.762 343.375
L318.219 343.64
L320.962 343.645
L321.42 343.919
L324.163 343.919
L324.62 344.201
L327.364 344.223
L327.821 344.358
L334.679 344.468
L335.136 344.512
L356.626 344.616
L357.083 345.152
L360.741 345.159
L361.198 346.22
L368.514 346.276
L368.971 346.872
L384.517 346.971
L385.431 347.042
L387.717 347.043
L388.175 349.176
L391.375 349.193
L391.832 349.724
L394.119 349.737
L394.576 349.871
L395.033 350.402
L395.49 352.591
L401.434 352.699
L404.635 352.715
L415.151 352.784
L418.352 352.872
L448.528 352.996
L449.443 353.063
L459.959 353.121
L463.16 353.2
L478.248 353.289
L479.163 353.322
L491.051 353.44
L491.965 353.473
L517.112 353.541
L517.57 353.674
L547.747 353.779
L551.404 353.826
L551.862 354.108
L557.348 354.217
L558.263 354.22
L558.263 354.22" style="fill:none;stroke:#ff00ff;stroke-width:3.5;"/>
   </g>
   <g id="matplotlib.axis_1">
    <g id="xtick_1">
     <g id="line2d_6">
      <path clip-path="url(#pe602019af8)" d="
M159.104 388.8
L159.104 34.56" style="fill:none;stroke:#000000;stroke-dasharray:1.000000,3.000000;stroke-dashoffset:0.0;stroke-linecap:butt;stroke-width:0.5;"/>
     </g>
     <g id="line2d_7">
      <defs>
       <path d="
M0 0
L0 -4" id="m0012dd4eef" style="stroke:#000000;stroke-linecap:butt;stroke-width:0.5;"/>
      </defs>
      <g>
       <use style="stroke:#000000;stroke-linecap:butt;stroke-width:0.5;" x="159.104233577" xlink:href="#m0012dd4eef" y="388.8"/>
      </g>
     </g>
     <g id="line2d_8">
      <defs>
       <path d="
M0 0
L0 4" id="m476344969c" style="stroke:#000000;stroke-linecap:butt;stroke-width:0.5;"/>
      </defs>
      <g>
       <use style="stroke:#000000;stroke-linecap:butt;stroke-width:0.5;" x="159.104233577" xlink:href="#m476344969c" y="34.56"/>
      </g>
     </g>
     <g id="text_1">
      <!-- 2010 -->
      <defs>
       <path d="
M11.7188 12.9844
L28.3281 12.9844
L28.3281 60.1094
L11.2812 56.5938
L11.2812 69.3906
L28.2188 72.9062
L46.0938 72.9062
L46.0938 12.9844
L62.7031 12.9844
L62.7031 0
L11.7188 0
z
" id="BitstreamVeraSans-Bold-31"/>
       <path d="
M46 36.5312
Q46 50.2031 43.4375 55.7812
Q40.875 61.375 34.8125 61.375
Q28.7656 61.375 26.1719 55.7812
Q23.5781 50.2031 23.5781 36.5312
Q23.5781 22.7031 26.1719 17.0312
Q28.7656 11.375 34.8125 11.375
Q40.8281 11.375 43.4062 17.0312
Q46 22.7031 46 36.5312
M64.7969 36.375
Q64.7969 18.2656 56.9844 8.42188
Q49.1719 -1.42188 34.8125 -1.42188
Q20.4062 -1.42188 12.5938 8.42188
Q4.78125 18.2656 4.78125 36.375
Q4.78125 54.5469 12.5938 64.375
Q20.4062 74.2188 34.8125 74.2188
Q49.1719 74.2188 56.9844 64.375
Q64.7969 54.5469 64.7969 36.375" id="BitstreamVeraSans-Bold-30"/>
       <path d="
M28.8125 13.8125
L60.8906 13.8125
L60.8906 0
L7.90625 0
L7.90625 13.8125
L34.5156 37.3125
Q38.0938 40.5312 39.7969 43.6094
Q41.5 46.6875 41.5 50
Q41.5 55.125 38.0625 58.25
Q34.625 61.375 28.9062 61.375
Q24.5156 61.375 19.2812 59.5
Q14.0625 57.625 8.10938 53.9062
L8.10938 69.9219
Q14.4531 72.0156 20.6562 73.1094
Q26.8594 74.2188 32.8125 74.2188
Q45.9062 74.2188 53.1562 68.4531
Q60.4062 62.7031 60.4062 52.3906
Q60.4062 46.4375 57.3281 41.2812
Q54.25 36.1406 44.3906 27.4844
z
" id="BitstreamVeraSans-Bold-32"/>
      </defs>
      <g transform="translate(117.697393958 428.241519005)rotate(-30.0)scale(0.18 -0.18)">
       <use xlink:href="#BitstreamVeraSans-Bold-32"/>
       <use x="69.580078125" xlink:href="#BitstreamVeraSans-Bold-30"/>
       <use x="139.16015625" xlink:href="#BitstreamVeraSans-Bold-31"/>
       <use x="208.740234375" xlink:href="#BitstreamVeraSans-Bold-30"/>
      </g>
     </g>
    </g>
    <g id="xtick_2">
     <g id="line2d_9">
      <path clip-path="url(#pe602019af8)" d="
M325.992 388.8
L325.992 34.56" style="fill:none;stroke:#000000;stroke-dasharray:1.000000,3.000000;stroke-dashoffset:0.0;stroke-linecap:butt;stroke-width:0.5;"/>
     </g>
     <g id="line2d_10">
      <g>
       <use style="stroke:#000000;stroke-linecap:butt;stroke-width:0.5;" x="325.991824818" xlink:href="#m0012dd4eef" y="388.8"/>
      </g>
     </g>
     <g id="line2d_11">
      <g>
       <use style="stroke:#000000;stroke-linecap:butt;stroke-width:0.5;" x="325.991824818" xlink:href="#m476344969c" y="34.56"/>
      </g>
     </g>
     <g id="text_2">
      <!-- 2011 -->
      <g transform="translate(284.911368523 428.053081505)rotate(-30.0)scale(0.18 -0.18)">
       <use xlink:href="#BitstreamVeraSans-Bold-32"/>
       <use x="69.580078125" xlink:href="#BitstreamVeraSans-Bold-30"/>
       <use x="139.16015625" xlink:href="#BitstreamVeraSans-Bold-31"/>
       <use x="208.740234375" xlink:href="#BitstreamVeraSans-Bold-31"/>
      </g>
     </g>
    </g>
    <g id="xtick_3">
     <g id="line2d_12">
      <path clip-path="url(#pe602019af8)" d="
M492.879 388.8
L492.879 34.56" style="fill:none;stroke:#000000;stroke-dasharray:1.000000,3.000000;stroke-dashoffset:0.0;stroke-linecap:butt;stroke-width:0.5;"/>
     </g>
     <g id="line2d_13">
      <g>
       <use style="stroke:#000000;stroke-linecap:butt;stroke-width:0.5;" x="492.879416058" xlink:href="#m0012dd4eef" y="388.8"/>
      </g>
     </g>
     <g id="line2d_14">
      <g>
       <use style="stroke:#000000;stroke-linecap:butt;stroke-width:0.5;" x="492.879416058" xlink:href="#m476344969c" y="34.56"/>
      </g>
     </g>
     <g id="text_3">
      <!-- 2012 -->
      <g transform="translate(452.081500552 427.889956505)rotate(-30.0)scale(0.18 -0.18)">
       <use xlink:href="#BitstreamVeraSans-Bold-32"/>
       <use x="69.580078125" xlink:href="#BitstreamVeraSans-Bold-30"/>
       <use x="139.16015625" xlink:href="#BitstreamVeraSans-Bold-31"/>
       <use x="208.740234375" xlink:href="#BitstreamVeraSans-Bold-32"/>
      </g>
     </g>
    </g>
    <g id="xtick_4">
     <g id="line2d_15">
      <defs>
       <path d="
M0 0
L0 -2" id="m69b1a1edd1" style="stroke:#000000;stroke-linecap:butt;stroke-width:0.5;"/>
      </defs>
      <g>
       <use style="stroke:#000000;stroke-linecap:butt;stroke-width:0.5;" x="61.257810219" xlink:href="#m69b1a1edd1" y="388.8"/>
      </g>
     </g>
     <g id="line2d_16">
      <defs>
       <path d="
M0 0
L0 2" id="m9ad4d917ad" style="stroke:#000000;stroke-linecap:butt;stroke-width:0.5;"/>
      </defs>
      <g>
       <use style="stroke:#000000;stroke-linecap:butt;stroke-width:0.5;" x="61.257810219" xlink:href="#m9ad4d917ad" y="34.56"/>
      </g>
     </g>
    </g>
    <g id="xtick_5">
     <g id="line2d_17">
      <g>
       <use style="stroke:#000000;stroke-linecap:butt;stroke-width:0.5;" x="74.9745985402" xlink:href="#m69b1a1edd1" y="388.8"/>
      </g>
     </g>
     <g id="line2d_18">
      <g>
       <use style="stroke:#000000;stroke-linecap:butt;stroke-width:0.5;" x="74.9745985402" xlink:href="#m9ad4d917ad" y="34.56"/>
      </g>
     </g>
    </g>
    <g id="xtick_6">
     <g id="line2d_19">
      <g>
       <use style="stroke:#000000;stroke-linecap:butt;stroke-width:0.5;" x="89.1486131387" xlink:href="#m69b1a1edd1" y="388.8"/>
      </g>
     </g>
     <g id="line2d_20">
      <g>
       <use style="stroke:#000000;stroke-linecap:butt;stroke-width:0.5;" x="89.1486131387" xlink:href="#m9ad4d917ad" y="34.56"/>
      </g>
     </g>
    </g>
    <g id="xtick_7">
     <g id="line2d_21">
      <g>
       <use style="stroke:#000000;stroke-linecap:butt;stroke-width:0.5;" x="103.322627737" xlink:href="#m69b1a1edd1" y="388.8"/>
      </g>
     </g>
     <g id="line2d_22">
      <g>
       <use style="stroke:#000000;stroke-linecap:butt;stroke-width:0.5;" x="103.322627737" xlink:href="#m9ad4d917ad" y="34.56"/>
      </g>
     </g>
    </g>
    <g id="xtick_8">
     <g id="line2d_23">
      <g>
       <use style="stroke:#000000;stroke-linecap:butt;stroke-width:0.5;" x="117.039416058" xlink:href="#m69b1a1edd1" y="388.8"/>
      </g>
     </g>
     <g id="line2d_24">
      <g>
       <use style="stroke:#000000;stroke-linecap:butt;stroke-width:0.5;" x="117.039416058" xlink:href="#m9ad4d917ad" y="34.56"/>
      </g>
     </g>
    </g>
    <g id="xtick_9">
     <g id="line2d_25">
      <g>
       <use style="stroke:#000000;stroke-linecap:butt;stroke-width:0.5;" x="131.213430657" xlink:href="#m69b1a1edd1" y="388.8"/>
      </g>
     </g>
     <g id="line2d_26">
      <g>
       <use style="stroke:#000000;stroke-linecap:butt;stroke-width:0.5;" x="131.213430657" xlink:href="#m9ad4d917ad" y="34.56"/>
      </g>
     </g>
    </g>
    <g id="xtick_10">
     <g id="line2d_27">
      <g>
       <use style="stroke:#000000;stroke-linecap:butt;stroke-width:0.5;" x="144.930218978" xlink:href="#m69b1a1edd1" y="388.8"/>
      </g>
     </g>
     <g id="line2d_28">
      <g>
       <use style="stroke:#000000;stroke-linecap:butt;stroke-width:0.5;" x="144.930218978" xlink:href="#m9ad4d917ad" y="34.56"/>
      </g>
     </g>
    </g>
    <g id="xtick_11">
     <g id="line2d_29">
      <g>
       <use style="stroke:#000000;stroke-linecap:butt;stroke-width:0.5;" x="159.104233577" xlink:href="#m69b1a1edd1" y="388.8"/>
      </g>
     </g>
     <g id="line2d_30">
      <g>
       <use style="stroke:#000000;stroke-linecap:butt;stroke-width:0.5;" x="159.104233577" xlink:href="#m9ad4d917ad" y="34.56"/>
      </g>
     </g>
    </g>
    <g id="xtick_12">
     <g id="line2d_31">
      <g>
       <use style="stroke:#000000;stroke-linecap:butt;stroke-width:0.5;" x="173.278248175" xlink:href="#m69b1a1edd1" y="388.8"/>
      </g>
     </g>
     <g id="line2d_32">
      <g>
       <use style="stroke:#000000;stroke-linecap:butt;stroke-width:0.5;" x="173.278248175" xlink:href="#m9ad4d917ad" y="34.56"/>
      </g>
     </g>
    </g>
    <g id="xtick_13">
     <g id="line2d_33">
      <g>
       <use style="stroke:#000000;stroke-linecap:butt;stroke-width:0.5;" x="186.080583942" xlink:href="#m69b1a1edd1" y="388.8"/>
      </g>
     </g>
     <g id="line2d_34">
      <g>
       <use style="stroke:#000000;stroke-linecap:butt;stroke-width:0.5;" x="186.080583942" xlink:href="#m9ad4d917ad" y="34.56"/>
      </g>
     </g>
    </g>
    <g id="xtick_14">
     <g id="line2d_35">
      <g>
       <use style="stroke:#000000;stroke-linecap:butt;stroke-width:0.5;" x="200.25459854" xlink:href="#m69b1a1edd1" y="388.8"/>
      </g>
     </g>
     <g id="line2d_36">
      <g>
       <use style="stroke:#000000;stroke-linecap:butt;stroke-width:0.5;" x="200.25459854" xlink:href="#m9ad4d917ad" y="34.56"/>
      </g>
     </g>
    </g>
    <g id="xtick_15">
     <g id="line2d_37">
      <g>
       <use style="stroke:#000000;stroke-linecap:butt;stroke-width:0.5;" x="213.971386861" xlink:href="#m69b1a1edd1" y="388.8"/>
      </g>
     </g>
     <g id="line2d_38">
      <g>
       <use style="stroke:#000000;stroke-linecap:butt;stroke-width:0.5;" x="213.971386861" xlink:href="#m9ad4d917ad" y="34.56"/>
      </g>
     </g>
    </g>
    <g id="xtick_16">
     <g id="line2d_39">
      <g>
       <use style="stroke:#000000;stroke-linecap:butt;stroke-width:0.5;" x="228.14540146" xlink:href="#m69b1a1edd1" y="388.8"/>
      </g>
     </g>
     <g id="line2d_40">
      <g>
       <use style="stroke:#000000;stroke-linecap:butt;stroke-width:0.5;" x="228.14540146" xlink:href="#m9ad4d917ad" y="34.56"/>
      </g>
     </g>
    </g>
    <g id="xtick_17">
     <g id="line2d_41">
      <g>
       <use style="stroke:#000000;stroke-linecap:butt;stroke-width:0.5;" x="241.862189781" xlink:href="#m69b1a1edd1" y="388.8"/>
      </g>
     </g>
     <g id="line2d_42">
      <g>
       <use style="stroke:#000000;stroke-linecap:butt;stroke-width:0.5;" x="241.862189781" xlink:href="#m9ad4d917ad" y="34.56"/>
      </g>
     </g>
    </g>
    <g id="xtick_18">
     <g id="line2d_43">
      <g>
       <use style="stroke:#000000;stroke-linecap:butt;stroke-width:0.5;" x="256.03620438" xlink:href="#m69b1a1edd1" y="388.8"/>
      </g>
     </g>
     <g id="line2d_44">
      <g>
       <use style="stroke:#000000;stroke-linecap:butt;stroke-width:0.5;" x="256.03620438" xlink:href="#m9ad4d917ad" y="34.56"/>
      </g>
     </g>
    </g>
    <g id="xtick_19">
     <g id="line2d_45">
      <g>
       <use style="stroke:#000000;stroke-linecap:butt;stroke-width:0.5;" x="270.210218978" xlink:href="#m69b1a1edd1" y="388.8"/>
      </g>
     </g>
     <g id="line2d_46">
      <g>
       <use style="stroke:#000000;stroke-linecap:butt;stroke-width:0.5;" x="270.210218978" xlink:href="#m9ad4d917ad" y="34.56"/>
      </g>
     </g>
    </g>
    <g id="xtick_20">
     <g id="line2d_47">
      <g>
       <use style="stroke:#000000;stroke-linecap:butt;stroke-width:0.5;" x="283.927007299" xlink:href="#m69b1a1edd1" y="388.8"/>
      </g>
     </g>
     <g id="line2d_48">
      <g>
       <use style="stroke:#000000;stroke-linecap:butt;stroke-width:0.5;" x="283.927007299" xlink:href="#m9ad4d917ad" y="34.56"/>
      </g>
     </g>
    </g>
    <g id="xtick_21">
     <g id="line2d_49">
      <g>
       <use style="stroke:#000000;stroke-linecap:butt;stroke-width:0.5;" x="298.101021898" xlink:href="#m69b1a1edd1" y="388.8"/>
      </g>
     </g>
     <g id="line2d_50">
      <g>
       <use style="stroke:#000000;stroke-linecap:butt;stroke-width:0.5;" x="298.101021898" xlink:href="#m9ad4d917ad" y="34.56"/>
      </g>
     </g>
    </g>
    <g id="xtick_22">
     <g id="line2d_51">
      <g>
       <use style="stroke:#000000;stroke-linecap:butt;stroke-width:0.5;" x="311.817810219" xlink:href="#m69b1a1edd1" y="388.8"/>
      </g>
     </g>
     <g id="line2d_52">
      <g>
       <use style="stroke:#000000;stroke-linecap:butt;stroke-width:0.5;" x="311.817810219" xlink:href="#m9ad4d917ad" y="34.56"/>
      </g>
     </g>
    </g>
    <g id="xtick_23">
     <g id="line2d_53">
      <g>
       <use style="stroke:#000000;stroke-linecap:butt;stroke-width:0.5;" x="325.991824818" xlink:href="#m69b1a1edd1" y="388.8"/>
      </g>
     </g>
     <g id="line2d_54">
      <g>
       <use style="stroke:#000000;stroke-linecap:butt;stroke-width:0.5;" x="325.991824818" xlink:href="#m9ad4d917ad" y="34.56"/>
      </g>
     </g>
    </g>
    <g id="xtick_24">
     <g id="line2d_55">
      <g>
       <use style="stroke:#000000;stroke-linecap:butt;stroke-width:0.5;" x="340.165839416" xlink:href="#m69b1a1edd1" y="388.8"/>
      </g>
     </g>
     <g id="line2d_56">
      <g>
       <use style="stroke:#000000;stroke-linecap:butt;stroke-width:0.5;" x="340.165839416" xlink:href="#m9ad4d917ad" y="34.56"/>
      </g>
     </g>
    </g>
    <g id="xtick_25">
     <g id="line2d_57">
      <g>
       <use style="stroke:#000000;stroke-linecap:butt;stroke-width:0.5;" x="352.968175182" xlink:href="#m69b1a1edd1" y="388.8"/>
      </g>
     </g>
     <g id="line2d_58">
      <g>
       <use style="stroke:#000000;stroke-linecap:butt;stroke-width:0.5;" x="352.968175182" xlink:href="#m9ad4d917ad" y="34.56"/>
      </g>
     </g>
    </g>
    <g id="xtick_26">
     <g id="line2d_59">
      <g>
       <use style="stroke:#000000;stroke-linecap:butt;stroke-width:0.5;" x="367.142189781" xlink:href="#m69b1a1edd1" y="388.8"/>
      </g>
     </g>
     <g id="line2d_60">
      <g>
       <use style="stroke:#000000;stroke-linecap:butt;stroke-width:0.5;" x="367.142189781" xlink:href="#m9ad4d917ad" y="34.56"/>
      </g>
     </g>
    </g>
    <g id="xtick_27">
     <g id="line2d_61">
      <g>
       <use style="stroke:#000000;stroke-linecap:butt;stroke-width:0.5;" x="380.858978102" xlink:href="#m69b1a1edd1" y="388.8"/>
      </g>
     </g>
     <g id="line2d_62">
      <g>
       <use style="stroke:#000000;stroke-linecap:butt;stroke-width:0.5;" x="380.858978102" xlink:href="#m9ad4d917ad" y="34.56"/>
      </g>
     </g>
    </g>
    <g id="xtick_28">
     <g id="line2d_63">
      <g>
       <use style="stroke:#000000;stroke-linecap:butt;stroke-width:0.5;" x="395.032992701" xlink:href="#m69b1a1edd1" y="388.8"/>
      </g>
     </g>
     <g id="line2d_64">
      <g>
       <use style="stroke:#000000;stroke-linecap:butt;stroke-width:0.5;" x="395.032992701" xlink:href="#m9ad4d917ad" y="34.56"/>
      </g>
     </g>
    </g>
    <g id="xtick_29">
     <g id="line2d_65">
      <g>
       <use style="stroke:#000000;stroke-linecap:butt;stroke-width:0.5;" x="408.749781022" xlink:href="#m69b1a1edd1" y="388.8"/>
      </g>
     </g>
     <g id="line2d_66">
      <g>
       <use style="stroke:#000000;stroke-linecap:butt;stroke-width:0.5;" x="408.749781022" xlink:href="#m9ad4d917ad" y="34.56"/>
      </g>
     </g>
    </g>
    <g id="xtick_30">
     <g id="line2d_67">
      <g>
       <use style="stroke:#000000;stroke-linecap:butt;stroke-width:0.5;" x="422.92379562" xlink:href="#m69b1a1edd1" y="388.8"/>
      </g>
     </g>
     <g id="line2d_68">
      <g>
       <use style="stroke:#000000;stroke-linecap:butt;stroke-width:0.5;" x="422.92379562" xlink:href="#m9ad4d917ad" y="34.56"/>
      </g>
     </g>
    </g>
    <g id="xtick_31">
     <g id="line2d_69">
      <g>
       <use style="stroke:#000000;stroke-linecap:butt;stroke-width:0.5;" x="437.097810219" xlink:href="#m69b1a1edd1" y="388.8"/>
      </g>
     </g>
     <g id="line2d_70">
      <g>
       <use style="stroke:#000000;stroke-linecap:butt;stroke-width:0.5;" x="437.097810219" xlink:href="#m9ad4d917ad" y="34.56"/>
      </g>
     </g>
    </g>
    <g id="xtick_32">
     <g id="line2d_71">
      <g>
       <use style="stroke:#000000;stroke-linecap:butt;stroke-width:0.5;" x="450.81459854" xlink:href="#m69b1a1edd1" y="388.8"/>
      </g>
     </g>
     <g id="line2d_72">
      <g>
       <use style="stroke:#000000;stroke-linecap:butt;stroke-width:0.5;" x="450.81459854" xlink:href="#m9ad4d917ad" y="34.56"/>
      </g>
     </g>
    </g>
    <g id="xtick_33">
     <g id="line2d_73">
      <g>
       <use style="stroke:#000000;stroke-linecap:butt;stroke-width:0.5;" x="464.988613139" xlink:href="#m69b1a1edd1" y="388.8"/>
      </g>
     </g>
     <g id="line2d_74">
      <g>
       <use style="stroke:#000000;stroke-linecap:butt;stroke-width:0.5;" x="464.988613139" xlink:href="#m9ad4d917ad" y="34.56"/>
      </g>
     </g>
    </g>
    <g id="xtick_34">
     <g id="line2d_75">
      <g>
       <use style="stroke:#000000;stroke-linecap:butt;stroke-width:0.5;" x="478.70540146" xlink:href="#m69b1a1edd1" y="388.8"/>
      </g>
     </g>
     <g id="line2d_76">
      <g>
       <use style="stroke:#000000;stroke-linecap:butt;stroke-width:0.5;" x="478.70540146" xlink:href="#m9ad4d917ad" y="34.56"/>
      </g>
     </g>
    </g>
    <g id="xtick_35">
     <g id="line2d_77">
      <g>
       <use style="stroke:#000000;stroke-linecap:butt;stroke-width:0.5;" x="492.879416058" xlink:href="#m69b1a1edd1" y="388.8"/>
      </g>
     </g>
     <g id="line2d_78">
      <g>
       <use style="stroke:#000000;stroke-linecap:butt;stroke-width:0.5;" x="492.879416058" xlink:href="#m9ad4d917ad" y="34.56"/>
      </g>
     </g>
    </g>
    <g id="xtick_36">
     <g id="line2d_79">
      <g>
       <use style="stroke:#000000;stroke-linecap:butt;stroke-width:0.5;" x="507.053430657" xlink:href="#m69b1a1edd1" y="388.8"/>
      </g>
     </g>
     <g id="line2d_80">
      <g>
       <use style="stroke:#000000;stroke-linecap:butt;stroke-width:0.5;" x="507.053430657" xlink:href="#m9ad4d917ad" y="34.56"/>
      </g>
     </g>
    </g>
    <g id="xtick_37">
     <g id="line2d_81">
      <g>
       <use style="stroke:#000000;stroke-linecap:butt;stroke-width:0.5;" x="520.312992701" xlink:href="#m69b1a1edd1" y="388.8"/>
      </g>
     </g>
     <g id="line2d_82">
      <g>
       <use style="stroke:#000000;stroke-linecap:butt;stroke-width:0.5;" x="520.312992701" xlink:href="#m9ad4d917ad" y="34.56"/>
      </g>
     </g>
    </g>
    <g id="xtick_38">
     <g id="line2d_83">
      <g>
       <use style="stroke:#000000;stroke-linecap:butt;stroke-width:0.5;" x="534.487007299" xlink:href="#m69b1a1edd1" y="388.8"/>
      </g>
     </g>
     <g id="line2d_84">
      <g>
       <use style="stroke:#000000;stroke-linecap:butt;stroke-width:0.5;" x="534.487007299" xlink:href="#m9ad4d917ad" y="34.56"/>
      </g>
     </g>
    </g>
    <g id="xtick_39">
     <g id="line2d_85">
      <g>
       <use style="stroke:#000000;stroke-linecap:butt;stroke-width:0.5;" x="548.20379562" xlink:href="#m69b1a1edd1" y="388.8"/>
      </g>
     </g>
     <g id="line2d_86">
      <g>
       <use style="stroke:#000000;stroke-linecap:butt;stroke-width:0.5;" x="548.20379562" xlink:href="#m9ad4d917ad" y="34.56"/>
      </g>
     </g>
    </g>
   </g>
   <g id="matplotlib.axis_2">
    <g id="ytick_1">
     <g id="line2d_87">
      <path clip-path="url(#pe602019af8)" d="
M57.6 388.8
L558.72 388.8" style="fill:none;stroke:#000000;stroke-dasharray:1.000000,3.000000;stroke-dashoffset:0.0;stroke-linecap:butt;stroke-width:0.5;"/>
     </g>
     <g id="line2d_88">
      <defs>
       <path d="
M0 0
L4 0" id="me8a85f7bf6" style="stroke:#000000;stroke-linecap:butt;stroke-width:0.5;"/>
      </defs>
      <g>
       <use style="stroke:#000000;stroke-linecap:butt;stroke-width:0.5;" x="57.6" xlink:href="#me8a85f7bf6" y="388.8"/>
      </g>
     </g>
     <g id="line2d_89">
      <defs>
       <path d="
M0 0
L-4 0" id="m1a32005dea" style="stroke:#000000;stroke-linecap:butt;stroke-width:0.5;"/>
      </defs>
      <g>
       <use style="stroke:#000000;stroke-linecap:butt;stroke-width:0.5;" x="558.72" xlink:href="#m1a32005dea" y="388.8"/>
      </g>
     </g>
     <g id="text_4">
      <!-- 0 -->
      <g transform="translate(42.7971875 395.35171875)scale(0.18 -0.18)">
       <use xlink:href="#BitstreamVeraSans-Bold-30"/>
      </g>
     </g>
    </g>
    <g id="ytick_2">
     <g id="line2d_90">
      <path clip-path="url(#pe602019af8)" d="
M57.6 338.194
L558.72 338.194" style="fill:none;stroke:#000000;stroke-dasharray:1.000000,3.000000;stroke-dashoffset:0.0;stroke-linecap:butt;stroke-width:0.5;"/>
     </g>
     <g id="line2d_91">
      <g>
       <use style="stroke:#000000;stroke-linecap:butt;stroke-width:0.5;" x="57.6" xlink:href="#me8a85f7bf6" y="338.194285714"/>
      </g>
     </g>
     <g id="line2d_92">
      <g>
       <use style="stroke:#000000;stroke-linecap:butt;stroke-width:0.5;" x="558.72" xlink:href="#m1a32005dea" y="338.194285714"/>
      </g>
     </g>
     <g id="text_5">
      <!-- 50 -->
      <defs>
       <path d="
M10.5938 72.9062
L57.3281 72.9062
L57.3281 59.0781
L25.5938 59.0781
L25.5938 47.7969
Q27.7344 48.3906 29.9062 48.7031
Q32.0781 49.0312 34.4219 49.0312
Q47.75 49.0312 55.1719 42.3594
Q62.5938 35.6875 62.5938 23.7812
Q62.5938 11.9688 54.5156 5.26562
Q46.4375 -1.42188 32.0781 -1.42188
Q25.875 -1.42188 19.7969 -0.21875
Q13.7188 0.984375 7.71875 3.42188
L7.71875 18.2188
Q13.6719 14.7969 19.0156 13.0781
Q24.3594 11.375 29.1094 11.375
Q35.9375 11.375 39.8594 14.7188
Q43.7969 18.0625 43.7969 23.7812
Q43.7969 29.5469 39.8594 32.8594
Q35.9375 36.1875 29.1094 36.1875
Q25.0469 36.1875 20.4531 35.125
Q15.875 34.0781 10.5938 31.8906
z
" id="BitstreamVeraSans-Bold-35"/>
      </defs>
      <g transform="translate(30.801875 344.746004464)scale(0.18 -0.18)">
       <use xlink:href="#BitstreamVeraSans-Bold-35"/>
       <use x="69.580078125" xlink:href="#BitstreamVeraSans-Bold-30"/>
      </g>
     </g>
    </g>
    <g id="ytick_3">
     <g id="line2d_93">
      <path clip-path="url(#pe602019af8)" d="
M57.6 287.589
L558.72 287.589" style="fill:none;stroke:#000000;stroke-dasharray:1.000000,3.000000;stroke-dashoffset:0.0;stroke-linecap:butt;stroke-width:0.5;"/>
     </g>
     <g id="line2d_94">
      <g>
       <use style="stroke:#000000;stroke-linecap:butt;stroke-width:0.5;" x="57.6" xlink:href="#me8a85f7bf6" y="287.588571429"/>
      </g>
     </g>
     <g id="line2d_95">
      <g>
       <use style="stroke:#000000;stroke-linecap:butt;stroke-width:0.5;" x="558.72" xlink:href="#m1a32005dea" y="287.588571429"/>
      </g>
     </g>
     <g id="text_6">
      <!-- 100 -->
      <g transform="translate(18.9190625 294.140290179)scale(0.18 -0.18)">
       <use xlink:href="#BitstreamVeraSans-Bold-31"/>
       <use x="69.580078125" xlink:href="#BitstreamVeraSans-Bold-30"/>
       <use x="139.16015625" xlink:href="#BitstreamVeraSans-Bold-30"/>
      </g>
     </g>
    </g>
    <g id="ytick_4">
     <g id="line2d_96">
      <path clip-path="url(#pe602019af8)" d="
M57.6 236.983
L558.72 236.983" style="fill:none;stroke:#000000;stroke-dasharray:1.000000,3.000000;stroke-dashoffset:0.0;stroke-linecap:butt;stroke-width:0.5;"/>
     </g>
     <g id="line2d_97">
      <g>
       <use style="stroke:#000000;stroke-linecap:butt;stroke-width:0.5;" x="57.6" xlink:href="#me8a85f7bf6" y="236.982857143"/>
      </g>
     </g>
     <g id="line2d_98">
      <g>
       <use style="stroke:#000000;stroke-linecap:butt;stroke-width:0.5;" x="558.72" xlink:href="#m1a32005dea" y="236.982857143"/>
      </g>
     </g>
     <g id="text_7">
      <!-- 150 -->
      <g transform="translate(18.9190625 243.534575893)scale(0.18 -0.18)">
       <use xlink:href="#BitstreamVeraSans-Bold-31"/>
       <use x="69.580078125" xlink:href="#BitstreamVeraSans-Bold-35"/>
       <use x="139.16015625" xlink:href="#BitstreamVeraSans-Bold-30"/>
      </g>
     </g>
    </g>
    <g id="ytick_5">
     <g id="line2d_99">
      <path clip-path="url(#pe602019af8)" d="
M57.6 186.377
L558.72 186.377" style="fill:none;stroke:#000000;stroke-dasharray:1.000000,3.000000;stroke-dashoffset:0.0;stroke-linecap:butt;stroke-width:0.5;"/>
     </g>
     <g id="line2d_100">
      <g>
       <use style="stroke:#000000;stroke-linecap:butt;stroke-width:0.5;" x="57.6" xlink:href="#me8a85f7bf6" y="186.377142857"/>
      </g>
     </g>
     <g id="line2d_101">
      <g>
       <use style="stroke:#000000;stroke-linecap:butt;stroke-width:0.5;" x="558.72" xlink:href="#m1a32005dea" y="186.377142857"/>
      </g>
     </g>
     <g id="text_8">
      <!-- 200 -->
      <g transform="translate(18.3115625 192.928861607)scale(0.18 -0.18)">
       <use xlink:href="#BitstreamVeraSans-Bold-32"/>
       <use x="69.580078125" xlink:href="#BitstreamVeraSans-Bold-30"/>
       <use x="139.16015625" xlink:href="#BitstreamVeraSans-Bold-30"/>
      </g>
     </g>
    </g>
    <g id="ytick_6">
     <g id="line2d_102">
      <path clip-path="url(#pe602019af8)" d="
M57.6 135.771
L558.72 135.771" style="fill:none;stroke:#000000;stroke-dasharray:1.000000,3.000000;stroke-dashoffset:0.0;stroke-linecap:butt;stroke-width:0.5;"/>
     </g>
     <g id="line2d_103">
      <g>
       <use style="stroke:#000000;stroke-linecap:butt;stroke-width:0.5;" x="57.6" xlink:href="#me8a85f7bf6" y="135.771428571"/>
      </g>
     </g>
     <g id="line2d_104">
      <g>
       <use style="stroke:#000000;stroke-linecap:butt;stroke-width:0.5;" x="558.72" xlink:href="#m1a32005dea" y="135.771428571"/>
      </g>
     </g>
     <g id="text_9">
      <!-- 250 -->
      <g transform="translate(18.3115625 142.323147321)scale(0.18 -0.18)">
       <use xlink:href="#BitstreamVeraSans-Bold-32"/>
       <use x="69.580078125" xlink:href="#BitstreamVeraSans-Bold-35"/>
       <use x="139.16015625" xlink:href="#BitstreamVeraSans-Bold-30"/>
      </g>
     </g>
    </g>
    <g id="ytick_7">
     <g id="line2d_105">
      <path clip-path="url(#pe602019af8)" d="
M57.6 85.1657
L558.72 85.1657" style="fill:none;stroke:#000000;stroke-dasharray:1.000000,3.000000;stroke-dashoffset:0.0;stroke-linecap:butt;stroke-width:0.5;"/>
     </g>
     <g id="line2d_106">
      <g>
       <use style="stroke:#000000;stroke-linecap:butt;stroke-width:0.5;" x="57.6" xlink:href="#me8a85f7bf6" y="85.1657142857"/>
      </g>
     </g>
     <g id="line2d_107">
      <g>
       <use style="stroke:#000000;stroke-linecap:butt;stroke-width:0.5;" x="558.72" xlink:href="#m1a32005dea" y="85.1657142857"/>
      </g>
     </g>
     <g id="text_10">
      <!-- 300 -->
      <defs>
       <path d="
M46.5781 39.3125
Q53.9531 37.4062 57.7812 32.6875
Q61.625 27.9844 61.625 20.7031
Q61.625 9.85938 53.3125 4.21875
Q45.0156 -1.42188 29.1094 -1.42188
Q23.4844 -1.42188 17.8438 -0.515625
Q12.2031 0.390625 6.6875 2.20312
L6.6875 16.7031
Q11.9688 14.0625 17.1562 12.7188
Q22.3594 11.375 27.3906 11.375
Q34.8594 11.375 38.8438 13.9531
Q42.8281 16.5469 42.8281 21.3906
Q42.8281 26.375 38.75 28.9375
Q34.6719 31.5 26.7031 31.5
L19.1875 31.5
L19.1875 43.6094
L27.0938 43.6094
Q34.1875 43.6094 37.6406 45.8281
Q41.1094 48.0469 41.1094 52.5938
Q41.1094 56.7812 37.7344 59.0781
Q34.375 61.375 28.2188 61.375
Q23.6875 61.375 19.0469 60.3438
Q14.4062 59.3281 9.8125 57.3281
L9.8125 71.0938
Q15.375 72.6562 20.8438 73.4375
Q26.3125 74.2188 31.5938 74.2188
Q45.7969 74.2188 52.8438 69.5469
Q59.9062 64.8906 59.9062 55.5156
Q59.9062 49.125 56.5312 45.0469
Q53.1719 40.9688 46.5781 39.3125" id="BitstreamVeraSans-Bold-33"/>
      </defs>
      <g transform="translate(18.0921875 91.7174330357)scale(0.18 -0.18)">
       <use xlink:href="#BitstreamVeraSans-Bold-33"/>
       <use x="69.580078125" xlink:href="#BitstreamVeraSans-Bold-30"/>
       <use x="139.16015625" xlink:href="#BitstreamVeraSans-Bold-30"/>
      </g>
     </g>
    </g>
    <g id="ytick_8">
     <g id="line2d_108">
      <path clip-path="url(#pe602019af8)" d="
M57.6 34.56
L558.72 34.56" style="fill:none;stroke:#000000;stroke-dasharray:1.000000,3.000000;stroke-dashoffset:0.0;stroke-linecap:butt;stroke-width:0.5;"/>
     </g>
     <g id="line2d_109">
      <g>
       <use style="stroke:#000000;stroke-linecap:butt;stroke-width:0.5;" x="57.6" xlink:href="#me8a85f7bf6" y="34.56"/>
      </g>
     </g>
     <g id="line2d_110">
      <g>
       <use style="stroke:#000000;stroke-linecap:butt;stroke-width:0.5;" x="558.72" xlink:href="#m1a32005dea" y="34.56"/>
      </g>
     </g>
     <g id="text_11">
      <!-- 350 -->
      <g transform="translate(18.0921875 41.11171875)scale(0.18 -0.18)">
       <use xlink:href="#BitstreamVeraSans-Bold-33"/>
       <use x="69.580078125" xlink:href="#BitstreamVeraSans-Bold-35"/>
       <use x="139.16015625" xlink:href="#BitstreamVeraSans-Bold-30"/>
      </g>
     </g>
    </g>
   </g>
   <g id="patch_3">
    <path d="
M57.6 34.56
L558.72 34.56" style="fill:none;stroke:#000000;"/>
   </g>
   <g id="patch_4">
    <path d="
M558.72 388.8
L558.72 34.56" style="fill:none;stroke:#000000;"/>
   </g>
   <g id="patch_5">
    <path d="
M57.6 388.8
L558.72 388.8" style="fill:none;stroke:#000000;"/>
   </g>
   <g id="patch_6">
    <path d="
M57.6 388.8
L57.6 34.56" style="fill:none;stroke:#000000;"/>
   </g>
   <g id="text_12">
    <!-- Freie IPv4-Adressen (Millionen) -->
    <defs>
     <path d="
M36.8125 57.4219
L16.2188 26.9062
L36.8125 26.9062
z

M33.6875 72.9062
L54.5938 72.9062
L54.5938 26.9062
L64.9844 26.9062
L64.9844 13.2812
L54.5938 13.2812
L54.5938 0
L36.8125 0
L36.8125 13.2812
L4.5 13.2812
L4.5 29.3906
z
" id="BitstreamVeraSans-Bold-34"/>
     <path d="
M8.40625 54.6875
L25.875 54.6875
L25.875 0
L8.40625 0
z

M8.40625 75.9844
L25.875 75.9844
L25.875 61.7188
L8.40625 61.7188
z
" id="BitstreamVeraSans-Bold-69"/>
     <path d="
M9.1875 72.9062
L59.9062 72.9062
L59.9062 58.6875
L27.9844 58.6875
L27.9844 45.125
L58.0156 45.125
L58.0156 30.9062
L27.9844 30.9062
L27.9844 0
L9.1875 0
z
" id="BitstreamVeraSans-Bold-46"/>
     <path id="BitstreamVeraSans-Bold-20"/>
     <path d="
M53.4219 13.2812
L24.0312 13.2812
L19.3906 0
L0.484375 0
L27.4844 72.9062
L49.9062 72.9062
L76.9062 0
L58.0156 0
z

M28.7188 26.8125
L48.6875 26.8125
L38.7188 55.8125
z
" id="BitstreamVeraSans-Bold-41"/>
     <path d="
M9.1875 72.9062
L27.9844 72.9062
L27.9844 0
L9.1875 0
z
" id="BitstreamVeraSans-Bold-49"/>
     <path d="
M51.125 52.9844
L51.125 39.7031
Q45.5156 42.0469 40.2812 43.2188
Q35.0625 44.3906 30.4219 44.3906
Q25.4375 44.3906 23.0156 43.1406
Q20.6094 41.8906 20.6094 39.3125
Q20.6094 37.2031 22.4375 36.0781
Q24.2656 34.9688 29 34.4219
L32.0781 33.9844
Q45.5156 32.2812 50.1406 28.375
Q54.7812 24.4688 54.7812 16.1094
Q54.7812 7.375 48.3281 2.96875
Q41.8906 -1.42188 29.1094 -1.42188
Q23.6875 -1.42188 17.8906 -0.5625
Q12.1094 0.296875 6 2
L6 15.2812
Q11.2344 12.75 16.7188 11.4688
Q22.2188 10.2031 27.875 10.2031
Q33.0156 10.2031 35.5938 11.6094
Q38.1875 13.0312 38.1875 15.8281
Q38.1875 18.1719 36.4062 19.3125
Q34.625 20.4531 29.2969 21.0938
L26.2188 21.4844
Q14.5469 22.9531 9.85938 26.9062
Q5.17188 30.8594 5.17188 38.9219
Q5.17188 47.6094 11.125 51.7969
Q17.0938 56 29.3906 56
Q34.2344 56 39.5469 55.2656
Q44.875 54.5469 51.125 52.9844" id="BitstreamVeraSans-Bold-73"/>
     <path d="
M49.0312 39.7969
Q46.7344 40.875 44.4531 41.375
Q42.1875 41.8906 39.8906 41.8906
Q33.1562 41.8906 29.5156 37.5625
Q25.875 33.25 25.875 25.2031
L25.875 0
L8.40625 0
L8.40625 54.6875
L25.875 54.6875
L25.875 45.7031
Q29.25 51.0781 33.6094 53.5312
Q37.9844 56 44.0938 56
Q44.9688 56 45.9844 55.9219
Q47.0156 55.8594 48.9688 55.6094
z
" id="BitstreamVeraSans-Bold-72"/>
     <path d="
M8.01562 -13.1875
Q14.2656 -1.5625 17.3906 9.51562
Q20.5156 20.6094 20.5156 31.3906
Q20.5156 42.1875 17.3906 53.25
Q14.2656 64.3125 8.01562 75.875
L22.5156 75.875
Q29.9375 63.9219 33.5156 52.9531
Q37.1094 42 37.1094 31.2969
Q37.1094 20.6094 33.5469 9.73438
Q29.9844 -1.125 22.5156 -13.1875
z
" id="BitstreamVeraSans-Bold-29"/>
     <path d="
M45.6094 46.6875
L45.6094 75.9844
L63.1875 75.9844
L63.1875 0
L45.6094 0
L45.6094 7.90625
Q42 3.07812 37.6406 0.828125
Q33.2969 -1.42188 27.5938 -1.42188
Q17.4844 -1.42188 10.9844 6.60938
Q4.5 14.6562 4.5 27.2969
Q4.5 39.9375 10.9844 47.9688
Q17.4844 56 27.5938 56
Q33.25 56 37.625 53.7344
Q42 51.4688 45.6094 46.6875
M34.0781 11.2812
Q39.7031 11.2812 42.6562 15.375
Q45.6094 19.4844 45.6094 27.2969
Q45.6094 35.1094 42.6562 39.2031
Q39.7031 43.3125 34.0781 43.3125
Q28.5156 43.3125 25.5625 39.2031
Q22.6094 35.1094 22.6094 27.2969
Q22.6094 19.4844 25.5625 15.375
Q28.5156 11.2812 34.0781 11.2812" id="BitstreamVeraSans-Bold-64"/>
     <path d="
M62.9844 27.4844
L62.9844 22.5156
L22.125 22.5156
Q22.75 16.3594 26.5625 13.2812
Q30.375 10.2031 37.2031 10.2031
Q42.7188 10.2031 48.5 11.8438
Q54.2969 13.4844 60.4062 16.7969
L60.4062 3.32812
Q54.2031 0.984375 48 -0.21875
Q41.7969 -1.42188 35.5938 -1.42188
Q20.75 -1.42188 12.5156 6.125
Q4.29688 13.6719 4.29688 27.2969
Q4.29688 40.6719 12.375 48.3281
Q20.4531 56 34.625 56
Q47.5156 56 55.25 48.2344
Q62.9844 40.4844 62.9844 27.4844
M45.0156 33.2969
Q45.0156 38.2812 42.1094 41.3281
Q39.2031 44.3906 34.5156 44.3906
Q29.4375 44.3906 26.2656 41.5312
Q23.0938 38.6719 22.3125 33.2969
z
" id="BitstreamVeraSans-Bold-65"/>
     <path d="
M5.42188 35.8906
L36.0781 35.8906
L36.0781 21.6875
L5.42188 21.6875
z
" id="BitstreamVeraSans-Bold-2d"/>
     <path d="
M9.1875 72.9062
L33.1094 72.9062
L49.7031 33.8906
L66.4062 72.9062
L90.2812 72.9062
L90.2812 0
L72.5156 0
L72.5156 53.3281
L55.7188 14.0156
L43.7969 14.0156
L27 53.3281
L27 0
L9.1875 0
z
" id="BitstreamVeraSans-Bold-4d"/>
     <path d="
M37.7031 -13.1875
L23.1875 -13.1875
Q15.7188 -1.125 12.1562 9.73438
Q8.59375 20.6094 8.59375 31.2969
Q8.59375 42 12.1719 52.9531
Q15.7656 63.9219 23.1875 75.875
L37.7031 75.875
Q31.4531 64.3125 28.3281 53.25
Q25.2031 42.1875 25.2031 31.3906
Q25.2031 20.6094 28.2969 9.51562
Q31.3906 -1.5625 37.7031 -13.1875" id="BitstreamVeraSans-Bold-28"/>
     <path d="
M1.51562 54.6875
L19 54.6875
L32.625 16.8906
L46.1875 54.6875
L63.7188 54.6875
L42.1875 0
L23 0
z
" id="BitstreamVeraSans-Bold-76"/>
     <path d="
M8.40625 75.9844
L25.875 75.9844
L25.875 0
L8.40625 0
z
" id="BitstreamVeraSans-Bold-6c"/>
     <path d="
M9.1875 72.9062
L40.375 72.9062
Q54.2969 72.9062 61.7344 66.7188
Q69.1875 60.5469 69.1875 49.125
Q69.1875 37.6406 61.7344 31.4688
Q54.2969 25.2969 40.375 25.2969
L27.9844 25.2969
L27.9844 0
L9.1875 0
z

M27.9844 59.2812
L27.9844 38.9219
L38.375 38.9219
Q43.8438 38.9219 46.8281 41.5781
Q49.8125 44.2344 49.8125 49.125
Q49.8125 54 46.8281 56.6406
Q43.8438 59.2812 38.375 59.2812
z
" id="BitstreamVeraSans-Bold-50"/>
     <path d="
M34.4219 43.5
Q28.6094 43.5 25.5625 39.3281
Q22.5156 35.1562 22.5156 27.2969
Q22.5156 19.4375 25.5625 15.25
Q28.6094 11.0781 34.4219 11.0781
Q40.1406 11.0781 43.1562 15.25
Q46.1875 19.4375 46.1875 27.2969
Q46.1875 35.1562 43.1562 39.3281
Q40.1406 43.5 34.4219 43.5
M34.4219 56
Q48.5312 56 56.4688 48.375
Q64.4062 40.7656 64.4062 27.2969
Q64.4062 13.8125 56.4688 6.1875
Q48.5312 -1.42188 34.4219 -1.42188
Q20.2656 -1.42188 12.2812 6.1875
Q4.29688 13.8125 4.29688 27.2969
Q4.29688 40.7656 12.2812 48.375
Q20.2656 56 34.4219 56" id="BitstreamVeraSans-Bold-6f"/>
     <path d="
M63.375 33.2969
L63.375 0
L45.7969 0
L45.7969 5.42188
L45.7969 25.4844
Q45.7969 32.5625 45.4844 35.25
Q45.1719 37.9375 44.3906 39.2031
Q43.3594 40.9219 41.5938 41.875
Q39.8438 42.8281 37.5938 42.8281
Q32.125 42.8281 29 38.5938
Q25.875 34.375 25.875 26.9062
L25.875 0
L8.40625 0
L8.40625 54.6875
L25.875 54.6875
L25.875 46.6875
Q29.8281 51.4688 34.2656 53.7344
Q38.7188 56 44.0938 56
Q53.5625 56 58.4688 50.1875
Q63.375 44.3906 63.375 33.2969" id="BitstreamVeraSans-Bold-6e"/>
    </defs>
    <g transform="translate(118.069875 29.56)scale(0.216 -0.216)">
     <use xlink:href="#BitstreamVeraSans-Bold-46"/>
     <use x="61.935546875" xlink:href="#BitstreamVeraSans-Bold-72"/>
     <use x="111.251953125" xlink:href="#BitstreamVeraSans-Bold-65"/>
     <use x="179.07421875" xlink:href="#BitstreamVeraSans-Bold-69"/>
     <use x="213.3515625" xlink:href="#BitstreamVeraSans-Bold-65"/>
     <use x="281.173828125" xlink:href="#BitstreamVeraSans-Bold-20"/>
     <use x="315.98828125" xlink:href="#BitstreamVeraSans-Bold-49"/>
     <use x="353.1953125" xlink:href="#BitstreamVeraSans-Bold-50"/>
     <use x="426.486328125" xlink:href="#BitstreamVeraSans-Bold-76"/>
     <use x="491.671875" xlink:href="#BitstreamVeraSans-Bold-34"/>
     <use x="561.251953125" xlink:href="#BitstreamVeraSans-Bold-2d"/>
     <use x="602.755859375" xlink:href="#BitstreamVeraSans-Bold-41"/>
     <use x="680.1484375" xlink:href="#BitstreamVeraSans-Bold-64"/>
     <use x="751.73046875" xlink:href="#BitstreamVeraSans-Bold-72"/>
     <use x="801.046875" xlink:href="#BitstreamVeraSans-Bold-65"/>
     <use x="868.869140625" xlink:href="#BitstreamVeraSans-Bold-73"/>
     <use x="928.390625" xlink:href="#BitstreamVeraSans-Bold-73"/>
     <use x="987.912109375" xlink:href="#BitstreamVeraSans-Bold-65"/>
     <use x="1055.734375" xlink:href="#BitstreamVeraSans-Bold-6e"/>
     <use x="1126.92578125" xlink:href="#BitstreamVeraSans-Bold-20"/>
     <use x="1161.74023438" xlink:href="#BitstreamVeraSans-Bold-28"/>
     <use x="1207.44335938" xlink:href="#BitstreamVeraSans-Bold-4d"/>
     <use x="1306.95507812" xlink:href="#BitstreamVeraSans-Bold-69"/>
     <use x="1341.23242188" xlink:href="#BitstreamVeraSans-Bold-6c"/>
     <use x="1375.50976562" xlink:href="#BitstreamVeraSans-Bold-6c"/>
     <use x="1409.78710938" xlink:href="#BitstreamVeraSans-Bold-69"/>
     <use x="1444.06445312" xlink:href="#BitstreamVeraSans-Bold-6f"/>
     <use x="1512.765625" xlink:href="#BitstreamVeraSans-Bold-6e"/>
     <use x="1583.95703125" xlink:href="#BitstreamVeraSans-Bold-65"/>
     <use x="1651.77929688" xlink:href="#BitstreamVeraSans-Bold-6e"/>
     <use x="1722.97070312" xlink:href="#BitstreamVeraSans-Bold-29"/>
    </g>
   </g>
   <g id="legend_1">
    <g id="patch_7">
     <path d="
M348.775 206.179
L547.92 206.179
L547.92 45.36
L348.775 45.36
L348.775 206.179
z
" style="fill:#ffffff;stroke:#000000;"/>
    </g>
    <g id="line2d_111">
     <path d="
M363.895 62.8526
L394.135 62.8526" style="fill:none;stroke:#008000;stroke-width:3.5;"/>
    </g>
    <g id="line2d_112"/>
    <g id="text_13">
     <!-- Asien -->
     <g transform="translate(417.89475 70.412625)scale(0.216 -0.216)">
      <use xlink:href="#BitstreamVeraSans-Bold-41"/>
      <use x="77.392578125" xlink:href="#BitstreamVeraSans-Bold-73"/>
      <use x="136.9140625" xlink:href="#BitstreamVeraSans-Bold-69"/>
      <use x="171.19140625" xlink:href="#BitstreamVeraSans-Bold-65"/>
      <use x="239.013671875" xlink:href="#BitstreamVeraSans-Bold-6e"/>
     </g>
    </g>
    <g id="line2d_113">
     <path d="
M363.895 94.5574
L394.135 94.5574" style="fill:none;stroke:#0000ff;stroke-width:3.5;"/>
    </g>
    <g id="line2d_114"/>
    <g id="text_14">
     <!-- Europa -->
     <defs>
      <path d="
M25.875 7.90625
L25.875 -20.7969
L8.40625 -20.7969
L8.40625 54.6875
L25.875 54.6875
L25.875 46.6875
Q29.5 51.4688 33.8906 53.7344
Q38.2812 56 44 56
Q54.1094 56 60.5938 47.9688
Q67.0938 39.9375 67.0938 27.2969
Q67.0938 14.6562 60.5938 6.60938
Q54.1094 -1.42188 44 -1.42188
Q38.2812 -1.42188 33.8906 0.84375
Q29.5 3.125 25.875 7.90625
M37.5 43.3125
Q31.8906 43.3125 28.875 39.1875
Q25.875 35.0625 25.875 27.2969
Q25.875 19.5312 28.875 15.4062
Q31.8906 11.2812 37.5 11.2812
Q43.1094 11.2812 46.0625 15.375
Q49.0312 19.4844 49.0312 27.2969
Q49.0312 35.1094 46.0625 39.2031
Q43.1094 43.3125 37.5 43.3125" id="BitstreamVeraSans-Bold-70"/>
      <path d="
M32.9062 24.6094
Q27.4375 24.6094 24.6719 22.75
Q21.9219 20.9062 21.9219 17.2812
Q21.9219 13.9688 24.1406 12.0781
Q26.375 10.2031 30.3281 10.2031
Q35.25 10.2031 38.625 13.7344
Q42 17.2812 42 22.6094
L42 24.6094
z

M59.625 31.2031
L59.625 0
L42 0
L42 8.10938
Q38.4844 3.125 34.0781 0.84375
Q29.6875 -1.42188 23.3906 -1.42188
Q14.8906 -1.42188 9.59375 3.53125
Q4.29688 8.5 4.29688 16.4062
Q4.29688 26.0312 10.9062 30.5156
Q17.5312 35.0156 31.6875 35.0156
L42 35.0156
L42 36.375
Q42 40.5312 38.7188 42.4531
Q35.4531 44.3906 28.5156 44.3906
Q22.9062 44.3906 18.0625 43.2656
Q13.2344 42.1406 9.07812 39.8906
L9.07812 53.2188
Q14.7031 54.5938 20.3594 55.2969
Q26.0312 56 31.6875 56
Q46.4844 56 53.0469 50.1719
Q59.625 44.3438 59.625 31.2031" id="BitstreamVeraSans-Bold-61"/>
      <path d="
M7.8125 21.2969
L7.8125 54.6875
L25.3906 54.6875
L25.3906 49.2188
Q25.3906 44.7812 25.3438 38.0625
Q25.2969 31.3438 25.2969 29.1094
Q25.2969 22.5156 25.6406 19.6094
Q25.9844 16.7031 26.8125 15.375
Q27.875 13.6719 29.6094 12.7344
Q31.3438 11.8125 33.5938 11.8125
Q39.0625 11.8125 42.1875 16.0156
Q45.3125 20.2188 45.3125 27.6875
L45.3125 54.6875
L62.7969 54.6875
L62.7969 0
L45.3125 0
L45.3125 7.90625
Q41.3594 3.125 36.9375 0.84375
Q32.5156 -1.42188 27.2031 -1.42188
Q17.7188 -1.42188 12.7656 4.39062
Q7.8125 10.2031 7.8125 21.2969" id="BitstreamVeraSans-Bold-75"/>
      <path d="
M9.1875 72.9062
L59.9062 72.9062
L59.9062 58.6875
L27.9844 58.6875
L27.9844 45.125
L58.0156 45.125
L58.0156 30.9062
L27.9844 30.9062
L27.9844 14.2031
L60.9844 14.2031
L60.9844 0
L9.1875 0
z
" id="BitstreamVeraSans-Bold-45"/>
     </defs>
     <g transform="translate(417.89475 102.117375)scale(0.216 -0.216)">
      <use xlink:href="#BitstreamVeraSans-Bold-45"/>
      <use x="68.310546875" xlink:href="#BitstreamVeraSans-Bold-75"/>
      <use x="139.501953125" xlink:href="#BitstreamVeraSans-Bold-72"/>
      <use x="188.818359375" xlink:href="#BitstreamVeraSans-Bold-6f"/>
      <use x="257.51953125" xlink:href="#BitstreamVeraSans-Bold-70"/>
      <use x="329.1015625" xlink:href="#BitstreamVeraSans-Bold-61"/>
     </g>
    </g>
    <g id="line2d_115">
     <path d="
M363.895 126.262
L394.135 126.262" style="fill:none;stroke:#ff0000;stroke-width:3.5;"/>
    </g>
    <g id="line2d_116"/>
    <g id="text_15">
     <!-- USA -->
     <defs>
      <path d="
M9.1875 72.9062
L27.9844 72.9062
L27.9844 29.2031
Q27.9844 20.1719 30.9375 16.2812
Q33.8906 12.4062 40.5781 12.4062
Q47.3125 12.4062 50.2656 16.2812
Q53.2188 20.1719 53.2188 29.2031
L53.2188 72.9062
L72.0156 72.9062
L72.0156 29.2031
Q72.0156 13.7188 64.25 6.14062
Q56.5 -1.42188 40.5781 -1.42188
Q24.7031 -1.42188 16.9375 6.14062
Q9.1875 13.7188 9.1875 29.2031
z
" id="BitstreamVeraSans-Bold-55"/>
      <path d="
M59.9062 70.6094
L59.9062 55.1719
Q53.9062 57.8594 48.1875 59.2188
Q42.4844 60.5938 37.4062 60.5938
Q30.6719 60.5938 27.4375 58.7344
Q24.2188 56.8906 24.2188 52.9844
Q24.2188 50.0469 26.3906 48.4062
Q28.5625 46.7812 34.2812 45.6094
L42.2812 44
Q54.4375 41.5469 59.5625 36.5625
Q64.7031 31.5938 64.7031 22.4062
Q64.7031 10.3594 57.5469 4.46875
Q50.3906 -1.42188 35.6875 -1.42188
Q28.7656 -1.42188 21.7812 -0.09375
Q14.7969 1.21875 7.8125 3.8125
L7.8125 19.6719
Q14.7969 15.9688 21.3125 14.0781
Q27.8281 12.2031 33.8906 12.2031
Q40.0469 12.2031 43.3125 14.25
Q46.5781 16.3125 46.5781 20.125
Q46.5781 23.5312 44.3594 25.3906
Q42.1406 27.25 35.5 28.7188
L28.2188 30.3281
Q17.2812 32.6719 12.2188 37.7969
Q7.17188 42.9219 7.17188 51.6094
Q7.17188 62.5 14.2031 68.3594
Q21.2344 74.2188 34.4219 74.2188
Q40.4375 74.2188 46.7812 73.3125
Q53.125 72.4062 59.9062 70.6094" id="BitstreamVeraSans-Bold-53"/>
     </defs>
     <g transform="translate(417.89475 133.822125)scale(0.216 -0.216)">
      <use xlink:href="#BitstreamVeraSans-Bold-55"/>
      <use x="81.201171875" xlink:href="#BitstreamVeraSans-Bold-53"/>
      <use x="153.22265625" xlink:href="#BitstreamVeraSans-Bold-41"/>
     </g>
    </g>
    <g id="line2d_117">
     <path d="
M363.895 157.967
L394.135 157.967" style="fill:none;stroke:#ffa500;stroke-width:3.5;"/>
    </g>
    <g id="line2d_118"/>
    <g id="text_16">
     <!-- S.Amerika -->
     <defs>
      <path d="
M8.40625 75.9844
L25.875 75.9844
L25.875 34.625
L46 54.6875
L66.3125 54.6875
L39.5938 29.5938
L68.4062 0
L47.2188 0
L25.875 22.7969
L25.875 0
L8.40625 0
z
" id="BitstreamVeraSans-Bold-6b"/>
      <path d="
M10.2031 18.8906
L27.7812 18.8906
L27.7812 0
L10.2031 0
z
" id="BitstreamVeraSans-Bold-2e"/>
      <path d="
M59.0781 45.6094
Q62.4062 50.6875 66.9688 53.3438
Q71.5312 56 77 56
Q86.4219 56 91.3594 50.1875
Q96.2969 44.3906 96.2969 33.2969
L96.2969 0
L78.7188 0
L78.7188 28.5156
Q78.7656 29.1562 78.7812 29.8281
Q78.8125 30.5156 78.8125 31.7812
Q78.8125 37.5938 77.0938 40.2031
Q75.3906 42.8281 71.5781 42.8281
Q66.6094 42.8281 63.8906 38.7188
Q61.1875 34.625 61.0781 26.8594
L61.0781 0
L43.5 0
L43.5 28.5156
Q43.5 37.5938 41.9375 40.2031
Q40.375 42.8281 36.375 42.8281
Q31.3438 42.8281 28.6094 38.7031
Q25.875 34.5781 25.875 26.9062
L25.875 0
L8.29688 0
L8.29688 54.6875
L25.875 54.6875
L25.875 46.6875
Q29.1094 51.3125 33.2812 53.6562
Q37.4531 56 42.4844 56
Q48.1406 56 52.4844 53.2656
Q56.8438 50.5312 59.0781 45.6094" id="BitstreamVeraSans-Bold-6d"/>
     </defs>
     <g transform="translate(417.89475 165.526875)scale(0.216 -0.216)">
      <use xlink:href="#BitstreamVeraSans-Bold-53"/>
      <use x="72.021484375" xlink:href="#BitstreamVeraSans-Bold-2e"/>
      <use x="110.009765625" xlink:href="#BitstreamVeraSans-Bold-41"/>
      <use x="187.40234375" xlink:href="#BitstreamVeraSans-Bold-6d"/>
      <use x="291.6015625" xlink:href="#BitstreamVeraSans-Bold-65"/>
      <use x="359.423828125" xlink:href="#BitstreamVeraSans-Bold-72"/>
      <use x="408.740234375" xlink:href="#BitstreamVeraSans-Bold-69"/>
      <use x="443.017578125" xlink:href="#BitstreamVeraSans-Bold-6b"/>
      <use x="509.521484375" xlink:href="#BitstreamVeraSans-Bold-61"/>
     </g>
    </g>
    <g id="line2d_119">
     <path d="
M363.895 189.672
L394.135 189.672" style="fill:none;stroke:#ff00ff;stroke-width:3.5;"/>
    </g>
    <g id="line2d_120"/>
    <g id="text_17">
     <!-- Afrika -->
     <defs>
      <path d="
M44.3906 75.9844
L44.3906 64.5
L34.7188 64.5
Q31 64.5 29.5312 63.1562
Q28.0781 61.8125 28.0781 58.5
L28.0781 54.6875
L43.0156 54.6875
L43.0156 42.1875
L28.0781 42.1875
L28.0781 0
L10.5938 0
L10.5938 42.1875
L1.90625 42.1875
L1.90625 54.6875
L10.5938 54.6875
L10.5938 58.5
Q10.5938 67.4375 15.5781 71.7031
Q20.5625 75.9844 31 75.9844
z
" id="BitstreamVeraSans-Bold-66"/>
     </defs>
     <g transform="translate(417.89475 197.231625)scale(0.216 -0.216)">
      <use xlink:href="#BitstreamVeraSans-Bold-41"/>
      <use x="77.392578125" xlink:href="#BitstreamVeraSans-Bold-66"/>
      <use x="120.8984375" xlink:href="#BitstreamVeraSans-Bold-72"/>
      <use x="170.21484375" xlink:href="#BitstreamVeraSans-Bold-69"/>
      <use x="204.4921875" xlink:href="#BitstreamVeraSans-Bold-6b"/>
      <use x="270.99609375" xlink:href="#BitstreamVeraSans-Bold-61"/>
     </g>
    </g>
   </g>
  </g>
 </g>
 <defs>
  <clipPath id="pe602019af8">
   <rect height="354.24" width="501.12" x="57.6" y="34.56"/>
  </clipPath>
 </defs>
</svg>
