<?xml version="1.0" encoding="utf-8" standalone="no"?>
<!DOCTYPE svg PUBLIC "-//W3C//DTD SVG 1.1//EN"
  "http://www.w3.org/Graphics/SVG/1.1/DTD/svg11.dtd">
<!-- Created with matplotlib (http://matplotlib.sourceforge.net/) -->
<svg height="432pt" version="1.1" viewBox="0 0 576 432" width="576pt" xmlns="http://www.w3.org/2000/svg" xmlns:xlink="http://www.w3.org/1999/xlink">
 <defs>
  <style type="text/css">
*{stroke-linecap:square;stroke-linejoin:round;}
  </style>
 </defs>
 <g id="figure_1">
  <g id="patch_1">
   <path d="
M0 432
L576 432
L576 0
L0 0
z
" style="fill:#ffffff;"/>
  </g>
  <g id="axes_1">
   <g id="patch_2">
    <path d="
M57.6 388.8
L558.72 388.8
L558.72 34.56
L57.6 34.56
z
" style="fill:#ffffff;"/>
   </g>
   <g id="line2d_1">
    <path clip-path="url(#pe602019af8)" d="
M57.1959 53.2369
L60.833 53.2932
L62.4495 54.5643
L62.8537 54.7799
L64.4702 54.8483
L65.2785 54.9501
L65.6826 55.3626
L66.0867 56.0933
L68.1074 56.1376
L68.9156 56.4723
L69.7239 56.5469
L73.361 56.8866
L73.7652 60.485
L74.1693 62.6457
L74.9775 62.811
L75.7858 62.811
L76.1899 64.2469
L76.5941 64.5464
L76.9982 65.1577
L77.8065 65.2916
L79.0188 66.2441
L79.423 66.9592
L81.0395 67.0545
L82.2519 67.0939
L82.656 67.4033
L85.0808 67.4339
L85.4849 67.6287
L87.5055 67.7015
L87.9097 68.2342
L88.3138 68.478
L89.1221 68.5584
L90.3345 68.5887
L91.1427 68.8638
L91.5468 69.2877
L91.951 69.4743
L93.5675 69.5696
L93.9716 69.5883
L94.3757 70.3951
L95.184 70.4573
L95.9923 70.5599
L96.3964 70.6307
L96.8005 72.7542
L99.6294 72.9094
L100.034 73.4497
L100.438 73.4898
L101.65 74.554
L102.054 75.3033
L102.458 75.3999
L102.862 75.7489
L103.267 75.7619
L104.479 76.4433
L105.287 76.526
L105.691 78.6485
L107.308 78.6794
L107.712 78.6908
L108.116 82.9463
L108.52 85.0812
L108.924 85.2238
L110.137 86.0207
L110.541 87.3629
L110.945 87.3686
L111.349 87.9075
L111.753 88.1739
L114.178 88.5286
L114.582 89.5248
L114.986 89.5248
L116.199 90.0951
L116.603 90.1723
L117.007 90.7076
L120.644 90.8017
L121.857 90.8229
L122.261 91.2624
L122.665 91.4624
L123.069 92.7893
L127.514 92.9812
L128.323 93.5487
L128.727 93.6166
L130.343 93.6629
L130.747 94.9341
L131.556 95.5673
L132.768 99.8829
L133.172 100.699
L133.576 100.833
L133.98 101.101
L136.001 101.463
L136.405 101.65
L136.809 102.132
L137.213 102.349
L138.426 102.359
L138.83 102.692
L139.234 102.705
L139.638 106.656
L141.255 106.665
L141.659 106.948
L144.892 107.104
L145.296 107.144
L145.7 107.625
L147.721 107.704
L148.125 107.975
L148.933 108.057
L149.337 108.59
L150.146 108.647
L150.954 108.815
L151.358 110.683
L155.399 110.79
L157.016 110.99
L159.441 111.101
L159.845 111.169
L161.057 111.239
L161.461 111.629
L161.865 111.746
L162.269 112.197
L162.674 112.479
L164.29 112.52
L165.098 113.174
L165.907 113.236
L167.523 113.269
L167.927 113.54
L169.544 113.635
L169.948 113.978
L170.756 113.996
L171.16 118.775
L175.202 118.975
L175.606 119.937
L176.414 119.948
L176.818 120.513
L177.222 120.513
L178.435 120.836
L178.839 120.911
L179.647 121.338
L181.263 121.351
L181.668 125.63
L182.88 125.735
L183.284 130.079
L183.688 130.081
L184.092 130.261
L184.497 130.263
L186.517 130.971
L188.134 131.018
L189.346 131.828
L189.75 131.838
L190.154 132.126
L190.558 132.873
L192.983 133.082
L193.387 134.676
L193.791 134.941
L195.004 135.042
L195.408 135.586
L196.62 135.967
L197.025 135.967
L197.833 139.188
L198.641 139.694
L199.045 140.914
L201.874 141.116
L205.915 141.131
L206.319 141.312
L207.128 141.364
L207.532 142.048
L207.936 144.264
L210.361 144.745
L211.977 144.775
L212.381 144.925
L213.19 145.004
L213.594 145.075
L215.21 145.08
L215.614 149.695
L216.019 149.921
L216.423 150.995
L218.039 151.301
L218.443 151.31
L218.847 151.453
L219.656 151.46
L220.868 151.736
L221.272 152.309
L221.676 152.311
L222.081 153.424
L223.697 153.446
L224.101 154.534
L226.122 154.646
L226.526 154.732
L227.334 155.672
L228.951 155.811
L229.355 160.265
L229.759 160.273
L230.163 160.523
L230.567 160.598
L231.78 160.667
L232.588 160.87
L233.396 163.269
L235.013 163.364
L235.417 163.428
L235.821 164.626
L236.225 164.692
L237.437 164.752
L237.842 165.552
L238.246 165.885
L238.65 166.061
L239.054 167.146
L239.458 167.428
L240.67 167.434
L241.075 168.04
L241.479 168.307
L243.095 168.307
L243.499 168.454
L243.903 168.763
L244.308 170.362
L245.116 170.453
L245.924 171.532
L246.328 171.678
L246.732 175.544
L248.753 175.667
L249.157 176.225
L249.561 176.518
L249.965 178.377
L250.37 178.934
L251.582 178.934
L252.39 181.371
L254.815 181.513
L255.219 183.418
L256.431 183.532
L257.24 183.604
L258.048 184.266
L260.069 184.361
L260.473 187.094
L262.089 187.21
L263.302 187.659
L263.706 188.191
L264.11 188.259
L264.514 189.612
L266.131 189.722
L266.535 189.992
L267.343 190.199
L268.555 191.36
L269.768 191.688
L270.172 193.083
L271.788 193.112
L272.193 193.379
L273.001 193.421
L273.405 193.951
L275.426 194.029
L275.83 194.164
L276.234 194.164
L277.85 194.765
L278.254 200.337
L280.275 200.47
L280.679 200.784
L281.083 201.343
L281.487 201.356
L282.7 202.292
L283.104 203.561
L284.316 203.773
L285.529 206.462
L285.933 206.462
L287.145 206.956
L288.762 207.008
L289.974 207.611
L291.187 212.453
L291.591 213.156
L291.995 213.158
L292.399 214.42
L292.803 214.833
L294.015 214.844
L294.42 215.11
L295.228 215.18
L295.632 215.34
L296.036 215.34
L297.249 222.488
L297.653 223.168
L298.057 223.356
L299.673 223.363
L300.077 223.639
L301.29 223.778
L302.502 223.912
L303.715 224.648
L304.119 224.792
L305.331 229.255
L305.735 229.529
L306.139 229.564
L306.543 229.724
L308.16 229.967
L308.564 233.52
L309.372 233.627
L309.777 233.831
L310.585 233.832
L310.989 234.132
L311.393 234.146
L311.797 234.419
L315.434 234.473
L316.647 235.41
L317.859 235.488
L318.263 236.06
L319.88 236.495
L320.284 238.121
L320.688 238.248
L323.113 238.339
L323.517 238.478
L323.921 239.022
L324.325 239.022
L325.538 239.308
L325.942 240.511
L326.346 240.514
L326.75 241
L331.195 241.13
L332.408 241.413
L333.62 243.538
L334.833 243.575
L335.237 244.724
L336.449 245.283
L337.257 245.962
L338.066 246.61
L339.682 246.666
L340.086 247.731
L340.49 249.328
L340.894 249.33
L342.107 250.172
L342.511 250.803
L342.915 250.854
L343.723 254.89
L344.936 255.449
L345.34 257.092
L346.552 257.963
L347.765 258.5
L348.573 259.324
L348.977 261.692
L349.381 262.24
L350.998 262.24
L351.806 262.407
L352.21 262.487
L353.827 264.611
L354.635 264.721
L355.039 265.025
L355.847 265.025
L356.251 265.511
L356.655 268.705
L357.06 268.908
L357.464 269.591
L357.868 272.797
L359.08 276.2
L359.484 276.741
L359.889 276.87
L360.293 278.796
L360.697 278.957
L361.909 283.41
L362.313 283.652
L363.122 283.667
L363.526 286.07
L364.334 286.07
L364.738 286.508
L365.142 286.724
L365.546 287.574
L365.95 288.053
L366.355 288.263
L367.567 289.116
L367.971 289.119
L368.375 289.656
L368.779 290.896
L369.183 292.526
L370.8 292.591
L371.204 295.776
L371.608 296.844
L372.012 297.362
L373.225 297.758
L373.629 299.392
L374.437 299.559
L374.841 299.637
L376.054 308.837
L376.458 308.961
L376.862 309.575
L377.266 313.044
L377.67 317.655
L379.287 319.636
L379.691 321.269
L380.095 322.01
L380.499 322.495
L381.711 322.565
L382.116 326.931
L382.52 327.368
L383.328 335.465
L383.732 335.465
L384.945 338.436
L385.753 338.822
L387.369 343.114
L387.773 344.792
L388.178 349.947
L388.582 350.58
L388.986 355.037
L390.198 355.354
L390.602 356.284
L391.006 357.766
L391.411 358.325
L391.815 359.683
L393.027 359.972
L393.431 366.521
L393.835 366.523
L394.239 367.044
L396.664 367.136
L400.301 367.219
L413.638 367.344
L437.077 367.553
L450.009 367.686
L450.818 367.813
L473.045 368.048
L473.449 369.18
L501.738 369.42
L502.142 369.63
L504.163 369.662
L504.567 369.798
L507.8 369.825
L515.478 369.879
L515.882 370.017
L534.876 370.234
L537.301 370.273
L557.912 370.477
L557.912 370.477" style="fill:none;stroke:#008000;stroke-width:3.5;"/>
   </g>
   <g id="line2d_2">
    <path clip-path="url(#pe602019af8)" d="
M57.1959 189.121
L60.0248 189.293
L60.4289 190.359
L62.8537 190.757
L63.2578 193.011
L64.0661 193.072
L64.4702 193.072
L64.8743 193.631
L65.2785 194.71
L66.0867 194.85
L66.4908 195.168
L67.7032 195.193
L69.3197 195.582
L69.7239 195.582
L70.5321 195.769
L70.9363 196.4
L71.3404 196.447
L71.7445 197.179
L72.1486 197.244
L72.9569 197.248
L74.5734 197.95
L74.9775 198.368
L76.1899 198.465
L76.5941 198.544
L76.9982 199.121
L79.0188 199.232
L79.8271 199.481
L80.2312 199.514
L80.6354 199.873
L81.8477 199.925
L82.2519 200.127
L84.6766 200.524
L85.0808 200.852
L87.5055 201.124
L87.9097 201.345
L89.1221 201.567
L90.3345 201.674
L90.7386 201.823
L91.1427 202.177
L91.5468 202.182
L91.951 202.323
L93.1634 202.334
L94.3757 202.751
L99.2253 203.106
L100.034 203.259
L100.438 203.377
L101.65 203.388
L106.095 204.696
L107.308 205.352
L108.52 205.54
L108.924 206.282
L110.541 206.742
L110.945 207.163
L113.37 207.345
L113.774 207.643
L114.986 207.744
L115.795 207.783
L116.199 208.051
L117.411 208.176
L119.028 208.254
L119.836 208.438
L120.24 209.166
L120.644 209.166
L121.452 209.477
L121.857 209.783
L122.665 209.944
L123.069 210.479
L125.494 210.773
L125.898 211.027
L127.11 211.286
L127.918 211.826
L129.939 211.908
L130.747 212.152
L132.768 212.243
L134.385 212.694
L136.809 212.817
L138.426 212.873
L138.83 213.437
L140.446 213.651
L141.255 214.737
L142.871 214.99
L144.892 215.248
L145.296 216.468
L145.7 216.482
L146.913 216.87
L147.721 216.962
L148.125 219.185
L149.337 219.185
L150.954 219.675
L152.57 219.919
L153.379 220.199
L153.783 220.563
L154.591 220.563
L155.399 221.144
L155.803 221.279
L158.632 221.427
L159.845 221.671
L161.461 221.732
L162.674 221.997
L165.907 222.622
L167.119 222.769
L169.544 223.105
L169.948 223.331
L170.352 224.493
L171.16 224.762
L173.585 224.97
L173.989 225.066
L175.606 225.531
L176.01 225.546
L176.414 225.862
L178.03 225.978
L178.839 226.239
L180.051 226.406
L181.263 226.62
L181.668 227.203
L183.284 227.279
L183.688 227.603
L184.497 227.739
L186.921 227.996
L187.325 229.209
L188.134 229.454
L189.75 229.548
L190.154 229.566
L190.558 229.878
L192.579 230.223
L192.983 230.247
L193.387 230.84
L195.004 230.973
L195.812 231.167
L196.216 231.808
L197.025 231.85
L197.833 232.166
L198.237 232.452
L204.703 233.301
L206.319 233.317
L206.724 233.861
L207.532 234.092
L207.936 234.175
L209.148 234.191
L209.553 235.593
L210.361 235.818
L210.765 235.912
L211.977 235.972
L212.381 236.253
L213.19 236.522
L213.594 237.188
L215.614 237.324
L216.019 237.499
L217.635 237.641
L218.039 238.031
L218.443 238.636
L219.656 238.841
L221.272 239.615
L222.485 239.844
L223.293 239.878
L223.697 240.009
L224.101 240.319
L226.526 240.579
L226.93 241.167
L227.738 241.679
L229.355 241.814
L229.759 242.039
L230.567 242.316
L232.588 242.467
L234.609 242.76
L235.013 243.035
L235.821 243.322
L236.225 244.039
L237.842 244.208
L239.054 244.578
L239.458 244.578
L240.67 244.793
L241.075 245.441
L241.883 245.486
L243.499 245.509
L243.903 245.76
L244.308 246.331
L245.924 246.558
L246.732 247.69
L247.137 247.882
L249.157 248.019
L249.561 248.607
L250.37 248.915
L251.582 248.926
L252.39 249.206
L252.794 250.568
L254.411 250.661
L254.815 251.304
L255.219 251.306
L255.623 251.49
L257.24 251.691
L258.048 252.497
L259.26 252.528
L260.069 253.158
L260.877 253.288
L261.281 253.378
L261.685 253.776
L263.706 253.878
L264.11 253.923
L264.514 254.371
L266.131 255.401
L266.535 255.501
L266.939 256.127
L267.343 256.321
L268.555 257.404
L270.172 257.613
L274.617 257.868
L275.83 258.353
L277.042 258.414
L277.446 258.623
L280.275 258.945
L281.083 259.192
L281.487 259.224
L282.7 260.34
L283.912 260.542
L284.316 260.865
L285.933 260.952
L286.741 261.351
L288.358 261.437
L289.166 261.808
L289.57 261.824
L289.974 261.996
L291.995 262.127
L292.803 262.199
L296.036 262.887
L298.057 263.159
L298.865 263.237
L300.886 263.367
L302.502 263.408
L302.906 265.563
L303.715 265.692
L304.119 265.814
L305.331 265.892
L305.735 266.053
L306.543 266.081
L306.948 266.634
L308.16 266.708
L308.564 266.865
L310.989 267.045
L311.393 267.607
L312.605 267.761
L313.818 268.103
L314.222 269.384
L316.647 269.845
L317.455 270.004
L317.859 270.075
L318.263 270.392
L319.88 270.492
L320.688 270.952
L321.092 270.954
L322.305 272.127
L323.517 272.399
L323.921 273.096
L325.133 273.197
L325.942 273.477
L326.75 273.669
L328.366 273.819
L328.771 274.139
L329.175 274.229
L329.579 274.811
L331.195 275.189
L331.599 275.792
L332.408 276.045
L333.62 276.1
L334.428 276.451
L334.833 277.793
L335.237 277.98
L337.257 278.23
L337.661 282.654
L339.278 282.861
L339.682 283.455
L340.49 283.814
L340.894 284.39
L342.107 284.591
L343.319 285.261
L343.723 285.314
L345.744 286.306
L346.552 286.528
L347.765 286.875
L348.169 287.45
L348.573 287.494
L348.977 287.945
L349.381 287.945
L351.402 288.598
L351.806 290.217
L352.21 290.931
L353.422 291.01
L353.827 291.426
L354.635 291.481
L355.039 291.609
L355.847 291.609
L356.655 291.8
L357.464 291.922
L357.868 292.247
L359.484 292.412
L361.909 293.052
L362.313 293.083
L362.717 293.548
L363.122 293.605
L363.526 293.917
L364.738 294.015
L365.142 294.642
L365.95 294.829
L366.355 295.036
L367.971 295.402
L369.183 296.172
L370.8 296.395
L372.012 297.093
L373.629 297.275
L374.033 297.574
L374.437 297.636
L374.841 297.955
L376.054 298.008
L376.458 298.512
L377.266 298.728
L377.67 299.148
L379.287 299.28
L379.691 299.742
L380.499 299.912
L381.711 299.961
L382.52 300.127
L384.54 300.318
L384.945 300.507
L385.349 300.56
L385.753 301.419
L386.157 301.666
L390.198 302.355
L390.602 302.595
L391.411 302.723
L391.815 302.885
L393.431 303.01
L394.644 303.362
L396.664 303.656
L397.068 304.106
L399.493 304.19
L399.897 304.303
L400.301 304.663
L401.11 304.663
L401.514 304.844
L401.918 304.89
L402.322 307.201
L403.13 307.434
L404.343 307.482
L404.747 307.74
L405.555 307.88
L405.959 308.563
L407.576 308.698
L408.788 310.793
L410.405 311.51
L411.617 311.842
L415.658 312.244
L416.062 312.303
L416.467 312.769
L416.871 312.817
L417.275 312.991
L418.487 312.991
L419.7 313.385
L420.104 313.421
L421.72 313.774
L422.124 313.792
L422.529 314.006
L424.145 314.083
L424.549 314.648
L425.762 314.867
L427.378 315.415
L427.782 319.795
L428.186 320.192
L428.995 320.192
L431.419 321.152
L434.248 321.613
L435.461 321.638
L436.269 321.931
L437.077 322.011
L442.735 322.637
L443.947 322.687
L444.351 322.96
L445.564 323.2
L447.18 323.294
L447.989 323.434
L448.393 323.487
L450.009 323.553
L450.818 323.774
L455.263 324.107
L458.092 324.475
L458.9 324.659
L461.325 324.78
L461.729 325.132
L462.537 325.468
L464.558 325.574
L465.366 325.94
L466.983 326.076
L468.195 326.368
L469.812 326.495
L471.024 326.656
L472.641 326.74
L473.449 326.958
L473.853 326.999
L475.469 327.57
L476.682 327.736
L478.702 328.085
L479.107 328.356
L479.511 328.364
L481.531 328.855
L482.34 329.372
L483.552 329.458
L483.956 329.827
L484.764 329.904
L485.169 330.071
L486.381 330.098
L486.785 330.364
L487.189 330.422
L487.593 331.316
L487.997 331.406
L489.21 331.988
L489.614 332.429
L490.018 332.488
L490.826 332.866
L492.039 332.952
L492.847 333.196
L493.251 333.256
L493.655 333.691
L495.272 333.861
L495.676 334.19
L496.484 334.35
L498.101 334.41
L499.313 334.795
L500.525 334.907
L500.93 335.438
L502.142 335.9
L504.567 336.1
L504.971 336.271
L506.183 336.371
L506.587 336.971
L507.8 337.179
L509.012 337.297
L509.416 338.815
L511.841 339.172
L512.245 339.396
L513.053 340.155
L514.67 340.259
L516.286 341.171
L517.499 341.289
L517.903 341.681
L519.115 341.855
L520.328 341.956
L520.732 342.319
L521.54 342.584
L523.561 342.702
L523.965 342.939
L524.369 342.977
L524.773 343.319
L525.986 343.427
L526.39 343.585
L526.794 343.61
L527.198 344.762
L528.814 344.987
L529.219 345.127
L529.623 346.561
L530.431 346.718
L532.047 347.86
L532.452 348.52
L533.26 348.757
L534.876 348.934
L535.685 349.38
L536.089 349.849
L538.109 350.047
L538.514 350.332
L540.13 350.332
L540.534 350.697
L541.342 350.946
L541.747 351.378
L543.363 351.941
L544.171 352.539
L546.192 352.66
L546.596 353.145
L547 353.189
L547.404 353.874
L549.021 353.916
L549.425 354.332
L549.829 354.53
L555.487 354.538
L557.912 354.538
L557.912 354.538" style="fill:none;stroke:#0000ff;stroke-width:3.5;"/>
   </g>
   <g id="line2d_3">
    <path clip-path="url(#pe602019af8)" d="
M57.1959 194.3
L59.6206 194.337
L60.0248 194.919
L62.4495 195.07
L62.8537 195.257
L64.0661 195.326
L64.4702 197.249
L65.6826 197.36
L66.4908 197.473
L67.2991 197.477
L67.7032 198.264
L68.1074 198.291
L68.5115 199.169
L72.9569 199.398
L74.1693 199.451
L74.5734 200.621
L75.7858 200.672
L76.1899 200.672
L76.5941 201.224
L76.9982 201.245
L77.4023 202.366
L77.8065 202.371
L79.0188 202.939
L79.8271 203.116
L80.6354 204.405
L82.2519 204.445
L82.656 205.046
L85.0808 205.239
L89.1221 205.446
L89.9303 205.45
L90.3345 205.741
L90.7386 205.759
L91.1427 207.298
L91.5468 207.435
L91.951 208.125
L95.184 208.24
L95.5881 210.893
L97.2046 211.081
L97.6088 211.714
L98.8212 211.755
L99.2253 212.193
L99.6294 212.208
L100.034 212.541
L100.438 212.603
L102.862 212.717
L103.267 212.785
L105.287 213.249
L107.308 213.383
L107.712 213.445
L108.116 214.027
L108.52 214.238
L108.924 214.321
L110.945 214.459
L119.836 215.04
L120.24 218.945
L120.644 219.231
L121.452 219.288
L121.857 219.584
L127.11 219.764
L127.514 220.322
L128.727 220.391
L136.405 220.666
L141.659 221.261
L150.55 221.68
L150.954 221.873
L152.974 221.926
L155.399 222.045
L156.612 222.137
L159.441 222.313
L159.845 222.873
L161.461 222.91
L161.865 223.189
L165.098 223.364
L165.907 223.516
L167.523 223.584
L167.927 224.12
L169.544 224.321
L170.352 224.365
L170.756 225.441
L176.01 225.671
L176.414 226.026
L178.839 226.13
L179.647 230.601
L180.051 230.609
L180.859 232.745
L181.263 232.763
L181.668 233.48
L183.284 233.512
L186.921 233.599
L187.325 233.853
L187.73 233.86
L188.134 234.123
L192.579 234.22
L193.791 234.3
L195.004 234.311
L195.408 234.738
L195.812 234.744
L196.216 235.127
L197.025 235.184
L198.237 235.214
L199.045 235.528
L199.449 235.671
L201.066 235.756
L201.47 235.899
L206.724 235.979
L207.936 236.241
L209.148 236.261
L209.553 237.627
L209.957 237.644
L210.361 239.106
L210.765 239.644
L212.381 239.673
L213.19 239.795
L213.594 239.839
L214.806 239.856
L215.21 240.026
L220.868 240.168
L221.676 240.221
L222.081 240.643
L223.293 240.651
L223.697 240.917
L224.505 241.041
L226.122 241.11
L229.355 241.293
L229.759 241.606
L233.396 241.836
L236.225 241.976
L240.266 242.194
L240.67 242.256
L241.075 242.862
L241.479 243.014
L243.095 243.065
L243.499 243.612
L245.116 243.664
L246.328 244.486
L254.411 244.742
L254.815 245.292
L256.431 245.442
L258.048 245.558
L258.452 248.249
L258.856 249.335
L271.384 249.954
L272.193 250.18
L273.405 250.336
L274.213 253.061
L275.426 253.204
L275.83 253.348
L277.042 253.394
L277.446 253.84
L283.508 254.071
L283.912 254.615
L284.316 254.734
L288.358 254.833
L291.187 255.16
L292.803 255.236
L295.228 255.342
L296.844 255.404
L299.673 255.539
L308.16 255.82
L311.797 256.13
L312.201 256.667
L312.605 258.284
L315.03 258.374
L315.434 260.552
L317.051 260.616
L318.263 261.148
L319.476 261.692
L320.688 261.744
L321.092 261.957
L323.113 262.122
L323.517 270.629
L324.325 270.659
L325.538 271.048
L325.942 271.059
L326.346 271.684
L328.366 271.863
L328.771 272.155
L329.579 272.193
L331.195 272.232
L331.599 274.975
L332.004 276.634
L344.936 277.18
L346.148 277.445
L346.552 278.522
L350.594 278.707
L350.998 281.52
L352.21 281.707
L353.422 281.724
L353.827 281.889
L354.231 281.906
L354.635 282.28
L355.847 282.285
L356.251 282.415
L356.655 282.421
L357.06 286.693
L361.909 287.224
L362.717 287.399
L364.334 287.463
L364.738 287.48
L365.546 288.089
L365.95 288.147
L366.355 292.529
L371.608 292.733
L372.012 292.778
L374.841 292.872
L380.095 293.094
L380.499 293.303
L385.349 293.436
L388.178 293.536
L388.582 293.695
L391.815 293.78
L394.644 293.867
L396.664 294.002
L397.068 294.271
L397.473 294.286
L398.685 295.028
L401.514 295.089
L401.918 295.359
L405.959 295.49
L407.172 297.086
L408.384 297.262
L408.788 297.339
L411.617 297.514
L418.891 297.618
L442.735 298.197
L447.989 298.361
L450.818 298.536
L451.222 298.603
L452.434 298.603
L452.838 299.167
L456.879 299.36
L458.496 299.633
L458.9 300.706
L461.729 300.743
L462.133 301.413
L462.537 301.48
L464.154 301.612
L464.558 301.895
L468.195 302
L469.812 302.299
L471.024 302.389
L475.874 302.496
L476.682 302.559
L479.511 302.623
L482.34 302.816
L489.21 302.975
L490.422 303.076
L490.826 304.139
L504.567 304.53
L504.971 304.667
L509.82 304.776
L512.245 304.84
L512.649 305.022
L514.266 305.132
L515.882 305.225
L516.286 305.23
L517.903 305.487
L523.157 305.691
L523.561 305.817
L523.965 309.345
L524.369 310.442
L530.027 310.7
L530.431 310.92
L533.26 311.016
L535.685 311.141
L536.089 311.688
L538.918 311.759
L540.938 312.161
L544.575 312.468
L545.788 312.484
L546.596 314.91
L547.809 314.971
L548.617 315.411
L550.233 315.474
L551.446 315.487
L551.85 315.623
L552.254 317.763
L554.275 317.88
L554.679 331.093
L557.912 331.265
L557.912 331.265" style="fill:none;stroke:#ff0000;stroke-width:3.5;"/>
   </g>
   <g id="line2d_4">
    <path clip-path="url(#pe602019af8)" d="
M57.1959 329.549
L59.2165 329.549
L59.6206 329.814
L66.0867 329.852
L66.895 329.928
L72.9569 330.049
L73.361 330.314
L95.9923 330.422
L98.8212 330.44
L102.054 330.471
L102.458 331.565
L106.095 331.57
L107.308 332.632
L128.323 332.734
L133.98 332.76
L155.399 332.867
L173.989 333.092
L175.606 333.359
L181.668 333.405
L182.072 334.682
L188.942 334.786
L189.75 334.855
L196.216 334.883
L196.62 335.423
L204.299 335.444
L204.703 335.576
L207.532 335.588
L207.936 335.721
L220.868 335.818
L224.909 335.894
L230.567 335.941
L231.78 336.538
L235.013 336.569
L243.499 336.669
L243.903 336.952
L251.582 337.071
L253.198 337.09
L254.411 339.213
L258.048 339.267
L258.856 339.35
L264.11 339.452
L264.514 340.049
L271.788 340.092
L272.193 340.224
L280.275 340.292
L280.679 340.441
L283.104 340.465
L283.508 340.996
L311.393 341.182
L311.797 341.722
L319.88 341.752
L320.284 342.283
L331.599 342.32
L332.004 342.59
L336.853 342.64
L337.661 342.71
L339.278 342.717
L339.682 343.256
L345.34 343.375
L345.744 343.64
L348.169 343.645
L348.573 343.919
L350.998 343.919
L351.402 344.201
L353.827 344.223
L354.231 344.358
L360.293 344.468
L360.697 344.512
L379.691 344.616
L380.095 345.152
L383.328 345.159
L383.732 346.22
L390.198 346.276
L390.602 346.872
L404.343 346.971
L405.151 347.042
L407.172 347.043
L407.576 349.176
L410.405 349.193
L410.809 349.724
L412.829 349.737
L413.234 349.871
L413.638 350.402
L414.042 352.591
L419.295 352.699
L422.124 352.715
L431.419 352.784
L434.248 352.872
L460.921 352.996
L461.729 353.063
L471.024 353.121
L473.853 353.2
L487.189 353.289
L487.997 353.322
L498.505 353.44
L499.313 353.473
L521.54 353.541
L521.944 353.674
L548.617 353.779
L551.85 353.826
L552.254 354.108
L557.103 354.217
L557.912 354.22
L557.912 354.22" style="fill:none;stroke:#ff00ff;stroke-width:3.5;"/>
   </g>
   <g id="line2d_5">
    <path clip-path="url(#pe602019af8)" d="
M57.1959 302.87
L58.0041 303.019
L58.4083 303.019
L69.7239 303.129
L70.9363 303.262
L79.423 303.31
L79.8271 303.445
L86.2932 303.521
L88.3138 303.641
L89.1221 303.708
L95.5881 303.81
L98.8212 303.967
L100.034 303.967
L100.438 304.127
L102.054 304.326
L103.267 304.474
L104.883 304.607
L105.287 304.875
L110.541 304.935
L110.945 307.057
L112.966 307.065
L113.37 307.335
L120.644 307.384
L122.261 307.514
L128.323 307.576
L128.727 307.651
L136.001 307.687
L137.213 308.139
L139.234 308.139
L139.638 308.346
L145.296 308.437
L146.913 308.474
L150.55 308.495
L150.954 308.628
L156.207 308.719
L156.612 308.987
L157.016 308.987
L158.632 309.264
L159.845 309.277
L161.057 311.466
L165.907 311.518
L166.715 311.841
L170.756 311.895
L171.16 311.968
L175.202 311.972
L175.606 312.237
L179.243 312.287
L182.072 312.304
L182.476 312.437
L186.921 312.507
L187.325 313.057
L188.134 313.131
L188.942 313.131
L189.346 313.397
L215.614 313.728
L216.423 313.832
L224.101 313.922
L224.909 313.984
L228.951 313.992
L229.355 314.528
L229.759 316.65
L230.567 316.692
L232.588 316.787
L232.992 317.152
L234.609 317.187
L243.095 317.243
L243.499 317.381
L251.582 317.487
L252.794 317.644
L256.431 317.658
L257.24 317.66
L257.644 317.793
L258.048 317.795
L258.452 317.994
L262.089 318
L262.898 318.265
L266.131 318.272
L266.535 318.72
L267.343 318.935
L269.768 318.956
L270.172 319.106
L273.405 319.389
L280.679 319.435
L281.083 321.558
L288.358 321.643
L288.762 321.927
L291.187 321.994
L291.591 322.135
L291.995 322.143
L292.399 322.305
L298.057 322.417
L298.865 322.52
L301.29 322.607
L304.119 322.677
L310.989 322.762
L315.03 323.004
L325.538 323.085
L325.942 325.225
L329.579 325.307
L334.024 325.443
L340.49 325.498
L340.894 326.568
L353.827 326.636
L354.231 328.792
L355.039 328.865
L357.06 328.867
L357.464 329.198
L359.08 329.198
L359.484 329.348
L360.293 329.349
L360.697 329.847
L361.909 329.847
L362.313 330.013
L363.526 330.051
L371.608 330.09
L372.012 330.222
L380.499 330.429
L381.711 330.429
L382.116 330.603
L385.753 330.736
L386.157 331.002
L388.178 331.13
L388.582 331.33
L391.411 331.688
L393.431 331.756
L399.089 331.816
L399.493 331.953
L401.11 331.956
L401.514 332.487
L401.918 332.488
L402.322 334.611
L405.555 334.68
L405.959 334.746
L410.809 334.839
L411.617 334.912
L414.446 334.948
L415.658 337.071
L423.741 337.298
L424.145 337.572
L427.782 337.611
L428.186 338.021
L428.995 338.025
L429.803 339.485
L430.611 339.551
L431.015 339.565
L431.419 339.836
L437.077 339.872
L439.502 339.986
L445.564 340.002
L447.585 340.138
L450.009 340.139
L450.818 340.384
L452.838 340.398
L453.242 340.532
L453.646 340.532
L454.051 340.664
L455.263 342.787
L456.879 342.866
L458.092 343.939
L459.304 344.041
L461.729 344.041
L462.133 344.572
L466.579 344.617
L466.983 344.95
L469.812 345.084
L470.62 345.25
L473.853 345.269
L476.682 345.283
L477.894 345.818
L489.21 345.877
L489.614 346.036
L490.018 346.072
L490.422 346.304
L492.847 346.311
L493.251 346.708
L494.868 346.72
L495.272 346.853
L498.101 346.898
L498.505 347.168
L499.313 347.184
L500.525 349.307
L501.334 349.309
L501.738 349.475
L502.142 349.475
L503.354 350.006
L506.183 350.113
L521.54 350.335
L523.561 350.367
L530.027 350.453
L530.431 351.023
L534.472 351.116
L535.281 351.184
L536.089 351.201
L537.705 351.47
L541.747 351.595
L545.788 351.838
L546.192 351.838
L546.596 353.971
L554.275 354.157
L555.891 354.199
L557.912 354.204
L557.912 354.204" style="fill:none;stroke:#ffa500;stroke-width:3.5;"/>
   </g>
   <g id="matplotlib.axis_1">
    <g id="xtick_1">
     <g id="line2d_6">
      <path clip-path="url(#pe602019af8)" d="
M57.6 388.8
L57.6 34.56" style="fill:none;stroke:#000000;stroke-dasharray:1.000000,3.000000;stroke-dashoffset:0.0;stroke-linecap:butt;stroke-width:0.5;"/>
     </g>
     <g id="line2d_7">
      <defs>
       <path d="
M0 0
L0 -4" id="m0012dd4eef" style="stroke:#000000;stroke-linecap:butt;stroke-width:0.5;"/>
      </defs>
      <g>
       <use style="stroke:#000000;stroke-linecap:butt;stroke-width:0.5;" x="57.5999999999" xlink:href="#m0012dd4eef" y="388.8"/>
      </g>
     </g>
     <g id="line2d_8">
      <defs>
       <path d="
M0 0
L0 4" id="m476344969c" style="stroke:#000000;stroke-linecap:butt;stroke-width:0.5;"/>
      </defs>
      <g>
       <use style="stroke:#000000;stroke-linecap:butt;stroke-width:0.5;" x="57.5999999999" xlink:href="#m476344969c" y="34.56"/>
      </g>
     </g>
     <g id="text_1">
      <!-- 2009 -->
      <defs>
       <path d="
M10.0156 1.60938
L10.0156 15.0938
Q14.5 12.9844 18.5938 11.9375
Q22.7031 10.8906 26.7031 10.8906
Q35.1094 10.8906 39.7969 15.5469
Q44.4844 20.2188 45.3125 29.3906
Q42 26.9531 38.2344 25.7344
Q34.4688 24.5156 30.0781 24.5156
Q18.8906 24.5156 12.0312 31.0312
Q5.17188 37.5469 5.17188 48.1875
Q5.17188 59.9688 12.8125 67.0469
Q20.4531 74.125 33.2969 74.125
Q47.5625 74.125 55.375 64.5
Q63.1875 54.8906 63.1875 37.3125
Q63.1875 19.2344 54.0469 8.90625
Q44.9219 -1.42188 29 -1.42188
Q23.875 -1.42188 19.1875 -0.65625
Q14.5 0.09375 10.0156 1.60938
M33.2031 36.7188
Q38.1406 36.7188 40.625 39.9062
Q43.1094 43.1094 43.1094 49.5156
Q43.1094 55.8594 40.625 59.0781
Q38.1406 62.3125 33.2031 62.3125
Q28.2656 62.3125 25.7812 59.0781
Q23.2969 55.8594 23.2969 49.5156
Q23.2969 43.1094 25.7812 39.9062
Q28.2656 36.7188 33.2031 36.7188" id="BitstreamVeraSans-Bold-39"/>
       <path d="
M46 36.5312
Q46 50.2031 43.4375 55.7812
Q40.875 61.375 34.8125 61.375
Q28.7656 61.375 26.1719 55.7812
Q23.5781 50.2031 23.5781 36.5312
Q23.5781 22.7031 26.1719 17.0312
Q28.7656 11.375 34.8125 11.375
Q40.8281 11.375 43.4062 17.0312
Q46 22.7031 46 36.5312
M64.7969 36.375
Q64.7969 18.2656 56.9844 8.42188
Q49.1719 -1.42188 34.8125 -1.42188
Q20.4062 -1.42188 12.5938 8.42188
Q4.78125 18.2656 4.78125 36.375
Q4.78125 54.5469 12.5938 64.375
Q20.4062 74.2188 34.8125 74.2188
Q49.1719 74.2188 56.9844 64.375
Q64.7969 54.5469 64.7969 36.375" id="BitstreamVeraSans-Bold-30"/>
       <path d="
M28.8125 13.8125
L60.8906 13.8125
L60.8906 0
L7.90625 0
L7.90625 13.8125
L34.5156 37.3125
Q38.0938 40.5312 39.7969 43.6094
Q41.5 46.6875 41.5 50
Q41.5 55.125 38.0625 58.25
Q34.625 61.375 28.9062 61.375
Q24.5156 61.375 19.2812 59.5
Q14.0625 57.625 8.10938 53.9062
L8.10938 69.9219
Q14.4531 72.0156 20.6562 73.1094
Q26.8594 74.2188 32.8125 74.2188
Q45.9062 74.2188 53.1562 68.4531
Q60.4062 62.7031 60.4062 52.3906
Q60.4062 46.4375 57.3281 41.2812
Q54.25 36.1406 44.3906 27.4844
z
" id="BitstreamVeraSans-Bold-32"/>
      </defs>
      <g transform="translate(16.4440371156 428.096675255)rotate(-30.0)scale(0.18 -0.18)">
       <use xlink:href="#BitstreamVeraSans-Bold-32"/>
       <use x="69.580078125" xlink:href="#BitstreamVeraSans-Bold-30"/>
       <use x="139.16015625" xlink:href="#BitstreamVeraSans-Bold-30"/>
       <use x="208.740234375" xlink:href="#BitstreamVeraSans-Bold-39"/>
      </g>
     </g>
    </g>
    <g id="xtick_2">
     <g id="line2d_9">
      <path clip-path="url(#pe602019af8)" d="
M205.107 388.8
L205.107 34.56" style="fill:none;stroke:#000000;stroke-dasharray:1.000000,3.000000;stroke-dashoffset:0.0;stroke-linecap:butt;stroke-width:0.5;"/>
     </g>
     <g id="line2d_10">
      <g>
       <use style="stroke:#000000;stroke-linecap:butt;stroke-width:0.5;" x="205.107096774" xlink:href="#m0012dd4eef" y="388.8"/>
      </g>
     </g>
     <g id="line2d_11">
      <g>
       <use style="stroke:#000000;stroke-linecap:butt;stroke-width:0.5;" x="205.107096774" xlink:href="#m476344969c" y="34.56"/>
      </g>
     </g>
     <g id="text_2">
      <!-- 2010 -->
      <defs>
       <path d="
M11.7188 12.9844
L28.3281 12.9844
L28.3281 60.1094
L11.2812 56.5938
L11.2812 69.3906
L28.2188 72.9062
L46.0938 72.9062
L46.0938 12.9844
L62.7031 12.9844
L62.7031 0
L11.7188 0
z
" id="BitstreamVeraSans-Bold-31"/>
      </defs>
      <g transform="translate(163.700257156 428.241519005)rotate(-30.0)scale(0.18 -0.18)">
       <use xlink:href="#BitstreamVeraSans-Bold-32"/>
       <use x="69.580078125" xlink:href="#BitstreamVeraSans-Bold-30"/>
       <use x="139.16015625" xlink:href="#BitstreamVeraSans-Bold-31"/>
       <use x="208.740234375" xlink:href="#BitstreamVeraSans-Bold-30"/>
      </g>
     </g>
    </g>
    <g id="xtick_3">
     <g id="line2d_12">
      <path clip-path="url(#pe602019af8)" d="
M352.614 388.8
L352.614 34.56" style="fill:none;stroke:#000000;stroke-dasharray:1.000000,3.000000;stroke-dashoffset:0.0;stroke-linecap:butt;stroke-width:0.5;"/>
     </g>
     <g id="line2d_13">
      <g>
       <use style="stroke:#000000;stroke-linecap:butt;stroke-width:0.5;" x="352.614193548" xlink:href="#m0012dd4eef" y="388.8"/>
      </g>
     </g>
     <g id="line2d_14">
      <g>
       <use style="stroke:#000000;stroke-linecap:butt;stroke-width:0.5;" x="352.614193548" xlink:href="#m476344969c" y="34.56"/>
      </g>
     </g>
     <g id="text_3">
      <!-- 2011 -->
      <g transform="translate(311.533737254 428.053081505)rotate(-30.0)scale(0.18 -0.18)">
       <use xlink:href="#BitstreamVeraSans-Bold-32"/>
       <use x="69.580078125" xlink:href="#BitstreamVeraSans-Bold-30"/>
       <use x="139.16015625" xlink:href="#BitstreamVeraSans-Bold-31"/>
       <use x="208.740234375" xlink:href="#BitstreamVeraSans-Bold-31"/>
      </g>
     </g>
    </g>
    <g id="xtick_4">
     <g id="line2d_15">
      <path clip-path="url(#pe602019af8)" d="
M500.121 388.8
L500.121 34.56" style="fill:none;stroke:#000000;stroke-dasharray:1.000000,3.000000;stroke-dashoffset:0.0;stroke-linecap:butt;stroke-width:0.5;"/>
     </g>
     <g id="line2d_16">
      <g>
       <use style="stroke:#000000;stroke-linecap:butt;stroke-width:0.5;" x="500.121290323" xlink:href="#m0012dd4eef" y="388.8"/>
      </g>
     </g>
     <g id="line2d_17">
      <g>
       <use style="stroke:#000000;stroke-linecap:butt;stroke-width:0.5;" x="500.121290323" xlink:href="#m476344969c" y="34.56"/>
      </g>
     </g>
     <g id="text_4">
      <!-- 2012 -->
      <g transform="translate(459.323374816 427.889956505)rotate(-30.0)scale(0.18 -0.18)">
       <use xlink:href="#BitstreamVeraSans-Bold-32"/>
       <use x="69.580078125" xlink:href="#BitstreamVeraSans-Bold-30"/>
       <use x="139.16015625" xlink:href="#BitstreamVeraSans-Bold-31"/>
       <use x="208.740234375" xlink:href="#BitstreamVeraSans-Bold-32"/>
      </g>
     </g>
    </g>
    <g id="xtick_5">
     <g id="line2d_18">
      <defs>
       <path d="
M0 0
L0 -2" id="m69b1a1edd1" style="stroke:#000000;stroke-linecap:butt;stroke-width:0.5;"/>
      </defs>
      <g>
       <use style="stroke:#000000;stroke-linecap:butt;stroke-width:0.5;" x="57.5999999999" xlink:href="#m69b1a1edd1" y="388.8"/>
      </g>
     </g>
     <g id="line2d_19">
      <defs>
       <path d="
M0 0
L0 2" id="m9ad4d917ad" style="stroke:#000000;stroke-linecap:butt;stroke-width:0.5;"/>
      </defs>
      <g>
       <use style="stroke:#000000;stroke-linecap:butt;stroke-width:0.5;" x="57.5999999999" xlink:href="#m9ad4d917ad" y="34.56"/>
      </g>
     </g>
    </g>
    <g id="xtick_6">
     <g id="line2d_20">
      <g>
       <use style="stroke:#000000;stroke-linecap:butt;stroke-width:0.5;" x="70.128" xlink:href="#m69b1a1edd1" y="388.8"/>
      </g>
     </g>
     <g id="line2d_21">
      <g>
       <use style="stroke:#000000;stroke-linecap:butt;stroke-width:0.5;" x="70.128" xlink:href="#m9ad4d917ad" y="34.56"/>
      </g>
     </g>
    </g>
    <g id="xtick_7">
     <g id="line2d_22">
      <g>
       <use style="stroke:#000000;stroke-linecap:butt;stroke-width:0.5;" x="81.4436129032" xlink:href="#m69b1a1edd1" y="388.8"/>
      </g>
     </g>
     <g id="line2d_23">
      <g>
       <use style="stroke:#000000;stroke-linecap:butt;stroke-width:0.5;" x="81.4436129032" xlink:href="#m9ad4d917ad" y="34.56"/>
      </g>
     </g>
    </g>
    <g id="xtick_8">
     <g id="line2d_24">
      <g>
       <use style="stroke:#000000;stroke-linecap:butt;stroke-width:0.5;" x="93.9716129032" xlink:href="#m69b1a1edd1" y="388.8"/>
      </g>
     </g>
     <g id="line2d_25">
      <g>
       <use style="stroke:#000000;stroke-linecap:butt;stroke-width:0.5;" x="93.9716129032" xlink:href="#m9ad4d917ad" y="34.56"/>
      </g>
     </g>
    </g>
    <g id="xtick_9">
     <g id="line2d_26">
      <g>
       <use style="stroke:#000000;stroke-linecap:butt;stroke-width:0.5;" x="106.095483871" xlink:href="#m69b1a1edd1" y="388.8"/>
      </g>
     </g>
     <g id="line2d_27">
      <g>
       <use style="stroke:#000000;stroke-linecap:butt;stroke-width:0.5;" x="106.095483871" xlink:href="#m9ad4d917ad" y="34.56"/>
      </g>
     </g>
    </g>
    <g id="xtick_10">
     <g id="line2d_28">
      <g>
       <use style="stroke:#000000;stroke-linecap:butt;stroke-width:0.5;" x="118.623483871" xlink:href="#m69b1a1edd1" y="388.8"/>
      </g>
     </g>
     <g id="line2d_29">
      <g>
       <use style="stroke:#000000;stroke-linecap:butt;stroke-width:0.5;" x="118.623483871" xlink:href="#m9ad4d917ad" y="34.56"/>
      </g>
     </g>
    </g>
    <g id="xtick_11">
     <g id="line2d_30">
      <g>
       <use style="stroke:#000000;stroke-linecap:butt;stroke-width:0.5;" x="130.747354839" xlink:href="#m69b1a1edd1" y="388.8"/>
      </g>
     </g>
     <g id="line2d_31">
      <g>
       <use style="stroke:#000000;stroke-linecap:butt;stroke-width:0.5;" x="130.747354839" xlink:href="#m9ad4d917ad" y="34.56"/>
      </g>
     </g>
    </g>
    <g id="xtick_12">
     <g id="line2d_32">
      <g>
       <use style="stroke:#000000;stroke-linecap:butt;stroke-width:0.5;" x="143.275354839" xlink:href="#m69b1a1edd1" y="388.8"/>
      </g>
     </g>
     <g id="line2d_33">
      <g>
       <use style="stroke:#000000;stroke-linecap:butt;stroke-width:0.5;" x="143.275354839" xlink:href="#m9ad4d917ad" y="34.56"/>
      </g>
     </g>
    </g>
    <g id="xtick_13">
     <g id="line2d_34">
      <g>
       <use style="stroke:#000000;stroke-linecap:butt;stroke-width:0.5;" x="155.803354839" xlink:href="#m69b1a1edd1" y="388.8"/>
      </g>
     </g>
     <g id="line2d_35">
      <g>
       <use style="stroke:#000000;stroke-linecap:butt;stroke-width:0.5;" x="155.803354839" xlink:href="#m9ad4d917ad" y="34.56"/>
      </g>
     </g>
    </g>
    <g id="xtick_14">
     <g id="line2d_36">
      <g>
       <use style="stroke:#000000;stroke-linecap:butt;stroke-width:0.5;" x="167.927225806" xlink:href="#m69b1a1edd1" y="388.8"/>
      </g>
     </g>
     <g id="line2d_37">
      <g>
       <use style="stroke:#000000;stroke-linecap:butt;stroke-width:0.5;" x="167.927225806" xlink:href="#m9ad4d917ad" y="34.56"/>
      </g>
     </g>
    </g>
    <g id="xtick_15">
     <g id="line2d_38">
      <g>
       <use style="stroke:#000000;stroke-linecap:butt;stroke-width:0.5;" x="180.455225806" xlink:href="#m69b1a1edd1" y="388.8"/>
      </g>
     </g>
     <g id="line2d_39">
      <g>
       <use style="stroke:#000000;stroke-linecap:butt;stroke-width:0.5;" x="180.455225806" xlink:href="#m9ad4d917ad" y="34.56"/>
      </g>
     </g>
    </g>
    <g id="xtick_16">
     <g id="line2d_40">
      <g>
       <use style="stroke:#000000;stroke-linecap:butt;stroke-width:0.5;" x="192.579096774" xlink:href="#m69b1a1edd1" y="388.8"/>
      </g>
     </g>
     <g id="line2d_41">
      <g>
       <use style="stroke:#000000;stroke-linecap:butt;stroke-width:0.5;" x="192.579096774" xlink:href="#m9ad4d917ad" y="34.56"/>
      </g>
     </g>
    </g>
    <g id="xtick_17">
     <g id="line2d_42">
      <g>
       <use style="stroke:#000000;stroke-linecap:butt;stroke-width:0.5;" x="205.107096774" xlink:href="#m69b1a1edd1" y="388.8"/>
      </g>
     </g>
     <g id="line2d_43">
      <g>
       <use style="stroke:#000000;stroke-linecap:butt;stroke-width:0.5;" x="205.107096774" xlink:href="#m9ad4d917ad" y="34.56"/>
      </g>
     </g>
    </g>
    <g id="xtick_18">
     <g id="line2d_44">
      <g>
       <use style="stroke:#000000;stroke-linecap:butt;stroke-width:0.5;" x="217.635096774" xlink:href="#m69b1a1edd1" y="388.8"/>
      </g>
     </g>
     <g id="line2d_45">
      <g>
       <use style="stroke:#000000;stroke-linecap:butt;stroke-width:0.5;" x="217.635096774" xlink:href="#m9ad4d917ad" y="34.56"/>
      </g>
     </g>
    </g>
    <g id="xtick_19">
     <g id="line2d_46">
      <g>
       <use style="stroke:#000000;stroke-linecap:butt;stroke-width:0.5;" x="228.950709677" xlink:href="#m69b1a1edd1" y="388.8"/>
      </g>
     </g>
     <g id="line2d_47">
      <g>
       <use style="stroke:#000000;stroke-linecap:butt;stroke-width:0.5;" x="228.950709677" xlink:href="#m9ad4d917ad" y="34.56"/>
      </g>
     </g>
    </g>
    <g id="xtick_20">
     <g id="line2d_48">
      <g>
       <use style="stroke:#000000;stroke-linecap:butt;stroke-width:0.5;" x="241.478709677" xlink:href="#m69b1a1edd1" y="388.8"/>
      </g>
     </g>
     <g id="line2d_49">
      <g>
       <use style="stroke:#000000;stroke-linecap:butt;stroke-width:0.5;" x="241.478709677" xlink:href="#m9ad4d917ad" y="34.56"/>
      </g>
     </g>
    </g>
    <g id="xtick_21">
     <g id="line2d_50">
      <g>
       <use style="stroke:#000000;stroke-linecap:butt;stroke-width:0.5;" x="253.602580645" xlink:href="#m69b1a1edd1" y="388.8"/>
      </g>
     </g>
     <g id="line2d_51">
      <g>
       <use style="stroke:#000000;stroke-linecap:butt;stroke-width:0.5;" x="253.602580645" xlink:href="#m9ad4d917ad" y="34.56"/>
      </g>
     </g>
    </g>
    <g id="xtick_22">
     <g id="line2d_52">
      <g>
       <use style="stroke:#000000;stroke-linecap:butt;stroke-width:0.5;" x="266.130580645" xlink:href="#m69b1a1edd1" y="388.8"/>
      </g>
     </g>
     <g id="line2d_53">
      <g>
       <use style="stroke:#000000;stroke-linecap:butt;stroke-width:0.5;" x="266.130580645" xlink:href="#m9ad4d917ad" y="34.56"/>
      </g>
     </g>
    </g>
    <g id="xtick_23">
     <g id="line2d_54">
      <g>
       <use style="stroke:#000000;stroke-linecap:butt;stroke-width:0.5;" x="278.254451613" xlink:href="#m69b1a1edd1" y="388.8"/>
      </g>
     </g>
     <g id="line2d_55">
      <g>
       <use style="stroke:#000000;stroke-linecap:butt;stroke-width:0.5;" x="278.254451613" xlink:href="#m9ad4d917ad" y="34.56"/>
      </g>
     </g>
    </g>
    <g id="xtick_24">
     <g id="line2d_56">
      <g>
       <use style="stroke:#000000;stroke-linecap:butt;stroke-width:0.5;" x="290.782451613" xlink:href="#m69b1a1edd1" y="388.8"/>
      </g>
     </g>
     <g id="line2d_57">
      <g>
       <use style="stroke:#000000;stroke-linecap:butt;stroke-width:0.5;" x="290.782451613" xlink:href="#m9ad4d917ad" y="34.56"/>
      </g>
     </g>
    </g>
    <g id="xtick_25">
     <g id="line2d_58">
      <g>
       <use style="stroke:#000000;stroke-linecap:butt;stroke-width:0.5;" x="303.310451613" xlink:href="#m69b1a1edd1" y="388.8"/>
      </g>
     </g>
     <g id="line2d_59">
      <g>
       <use style="stroke:#000000;stroke-linecap:butt;stroke-width:0.5;" x="303.310451613" xlink:href="#m9ad4d917ad" y="34.56"/>
      </g>
     </g>
    </g>
    <g id="xtick_26">
     <g id="line2d_60">
      <g>
       <use style="stroke:#000000;stroke-linecap:butt;stroke-width:0.5;" x="315.434322581" xlink:href="#m69b1a1edd1" y="388.8"/>
      </g>
     </g>
     <g id="line2d_61">
      <g>
       <use style="stroke:#000000;stroke-linecap:butt;stroke-width:0.5;" x="315.434322581" xlink:href="#m9ad4d917ad" y="34.56"/>
      </g>
     </g>
    </g>
    <g id="xtick_27">
     <g id="line2d_62">
      <g>
       <use style="stroke:#000000;stroke-linecap:butt;stroke-width:0.5;" x="327.962322581" xlink:href="#m69b1a1edd1" y="388.8"/>
      </g>
     </g>
     <g id="line2d_63">
      <g>
       <use style="stroke:#000000;stroke-linecap:butt;stroke-width:0.5;" x="327.962322581" xlink:href="#m9ad4d917ad" y="34.56"/>
      </g>
     </g>
    </g>
    <g id="xtick_28">
     <g id="line2d_64">
      <g>
       <use style="stroke:#000000;stroke-linecap:butt;stroke-width:0.5;" x="340.086193548" xlink:href="#m69b1a1edd1" y="388.8"/>
      </g>
     </g>
     <g id="line2d_65">
      <g>
       <use style="stroke:#000000;stroke-linecap:butt;stroke-width:0.5;" x="340.086193548" xlink:href="#m9ad4d917ad" y="34.56"/>
      </g>
     </g>
    </g>
    <g id="xtick_29">
     <g id="line2d_66">
      <g>
       <use style="stroke:#000000;stroke-linecap:butt;stroke-width:0.5;" x="352.614193548" xlink:href="#m69b1a1edd1" y="388.8"/>
      </g>
     </g>
     <g id="line2d_67">
      <g>
       <use style="stroke:#000000;stroke-linecap:butt;stroke-width:0.5;" x="352.614193548" xlink:href="#m9ad4d917ad" y="34.56"/>
      </g>
     </g>
    </g>
    <g id="xtick_30">
     <g id="line2d_68">
      <g>
       <use style="stroke:#000000;stroke-linecap:butt;stroke-width:0.5;" x="365.142193548" xlink:href="#m69b1a1edd1" y="388.8"/>
      </g>
     </g>
     <g id="line2d_69">
      <g>
       <use style="stroke:#000000;stroke-linecap:butt;stroke-width:0.5;" x="365.142193548" xlink:href="#m9ad4d917ad" y="34.56"/>
      </g>
     </g>
    </g>
    <g id="xtick_31">
     <g id="line2d_70">
      <g>
       <use style="stroke:#000000;stroke-linecap:butt;stroke-width:0.5;" x="376.457806452" xlink:href="#m69b1a1edd1" y="388.8"/>
      </g>
     </g>
     <g id="line2d_71">
      <g>
       <use style="stroke:#000000;stroke-linecap:butt;stroke-width:0.5;" x="376.457806452" xlink:href="#m9ad4d917ad" y="34.56"/>
      </g>
     </g>
    </g>
    <g id="xtick_32">
     <g id="line2d_72">
      <g>
       <use style="stroke:#000000;stroke-linecap:butt;stroke-width:0.5;" x="388.985806452" xlink:href="#m69b1a1edd1" y="388.8"/>
      </g>
     </g>
     <g id="line2d_73">
      <g>
       <use style="stroke:#000000;stroke-linecap:butt;stroke-width:0.5;" x="388.985806452" xlink:href="#m9ad4d917ad" y="34.56"/>
      </g>
     </g>
    </g>
    <g id="xtick_33">
     <g id="line2d_74">
      <g>
       <use style="stroke:#000000;stroke-linecap:butt;stroke-width:0.5;" x="401.109677419" xlink:href="#m69b1a1edd1" y="388.8"/>
      </g>
     </g>
     <g id="line2d_75">
      <g>
       <use style="stroke:#000000;stroke-linecap:butt;stroke-width:0.5;" x="401.109677419" xlink:href="#m9ad4d917ad" y="34.56"/>
      </g>
     </g>
    </g>
    <g id="xtick_34">
     <g id="line2d_76">
      <g>
       <use style="stroke:#000000;stroke-linecap:butt;stroke-width:0.5;" x="413.637677419" xlink:href="#m69b1a1edd1" y="388.8"/>
      </g>
     </g>
     <g id="line2d_77">
      <g>
       <use style="stroke:#000000;stroke-linecap:butt;stroke-width:0.5;" x="413.637677419" xlink:href="#m9ad4d917ad" y="34.56"/>
      </g>
     </g>
    </g>
    <g id="xtick_35">
     <g id="line2d_78">
      <g>
       <use style="stroke:#000000;stroke-linecap:butt;stroke-width:0.5;" x="425.761548387" xlink:href="#m69b1a1edd1" y="388.8"/>
      </g>
     </g>
     <g id="line2d_79">
      <g>
       <use style="stroke:#000000;stroke-linecap:butt;stroke-width:0.5;" x="425.761548387" xlink:href="#m9ad4d917ad" y="34.56"/>
      </g>
     </g>
    </g>
    <g id="xtick_36">
     <g id="line2d_80">
      <g>
       <use style="stroke:#000000;stroke-linecap:butt;stroke-width:0.5;" x="438.289548387" xlink:href="#m69b1a1edd1" y="388.8"/>
      </g>
     </g>
     <g id="line2d_81">
      <g>
       <use style="stroke:#000000;stroke-linecap:butt;stroke-width:0.5;" x="438.289548387" xlink:href="#m9ad4d917ad" y="34.56"/>
      </g>
     </g>
    </g>
    <g id="xtick_37">
     <g id="line2d_82">
      <g>
       <use style="stroke:#000000;stroke-linecap:butt;stroke-width:0.5;" x="450.817548387" xlink:href="#m69b1a1edd1" y="388.8"/>
      </g>
     </g>
     <g id="line2d_83">
      <g>
       <use style="stroke:#000000;stroke-linecap:butt;stroke-width:0.5;" x="450.817548387" xlink:href="#m9ad4d917ad" y="34.56"/>
      </g>
     </g>
    </g>
    <g id="xtick_38">
     <g id="line2d_84">
      <g>
       <use style="stroke:#000000;stroke-linecap:butt;stroke-width:0.5;" x="462.941419355" xlink:href="#m69b1a1edd1" y="388.8"/>
      </g>
     </g>
     <g id="line2d_85">
      <g>
       <use style="stroke:#000000;stroke-linecap:butt;stroke-width:0.5;" x="462.941419355" xlink:href="#m9ad4d917ad" y="34.56"/>
      </g>
     </g>
    </g>
    <g id="xtick_39">
     <g id="line2d_86">
      <g>
       <use style="stroke:#000000;stroke-linecap:butt;stroke-width:0.5;" x="475.469419355" xlink:href="#m69b1a1edd1" y="388.8"/>
      </g>
     </g>
     <g id="line2d_87">
      <g>
       <use style="stroke:#000000;stroke-linecap:butt;stroke-width:0.5;" x="475.469419355" xlink:href="#m9ad4d917ad" y="34.56"/>
      </g>
     </g>
    </g>
    <g id="xtick_40">
     <g id="line2d_88">
      <g>
       <use style="stroke:#000000;stroke-linecap:butt;stroke-width:0.5;" x="487.593290323" xlink:href="#m69b1a1edd1" y="388.8"/>
      </g>
     </g>
     <g id="line2d_89">
      <g>
       <use style="stroke:#000000;stroke-linecap:butt;stroke-width:0.5;" x="487.593290323" xlink:href="#m9ad4d917ad" y="34.56"/>
      </g>
     </g>
    </g>
    <g id="xtick_41">
     <g id="line2d_90">
      <g>
       <use style="stroke:#000000;stroke-linecap:butt;stroke-width:0.5;" x="500.121290323" xlink:href="#m69b1a1edd1" y="388.8"/>
      </g>
     </g>
     <g id="line2d_91">
      <g>
       <use style="stroke:#000000;stroke-linecap:butt;stroke-width:0.5;" x="500.121290323" xlink:href="#m9ad4d917ad" y="34.56"/>
      </g>
     </g>
    </g>
    <g id="xtick_42">
     <g id="line2d_92">
      <g>
       <use style="stroke:#000000;stroke-linecap:butt;stroke-width:0.5;" x="512.649290323" xlink:href="#m69b1a1edd1" y="388.8"/>
      </g>
     </g>
     <g id="line2d_93">
      <g>
       <use style="stroke:#000000;stroke-linecap:butt;stroke-width:0.5;" x="512.649290323" xlink:href="#m9ad4d917ad" y="34.56"/>
      </g>
     </g>
    </g>
    <g id="xtick_43">
     <g id="line2d_94">
      <g>
       <use style="stroke:#000000;stroke-linecap:butt;stroke-width:0.5;" x="524.369032258" xlink:href="#m69b1a1edd1" y="388.8"/>
      </g>
     </g>
     <g id="line2d_95">
      <g>
       <use style="stroke:#000000;stroke-linecap:butt;stroke-width:0.5;" x="524.369032258" xlink:href="#m9ad4d917ad" y="34.56"/>
      </g>
     </g>
    </g>
    <g id="xtick_44">
     <g id="line2d_96">
      <g>
       <use style="stroke:#000000;stroke-linecap:butt;stroke-width:0.5;" x="536.897032258" xlink:href="#m69b1a1edd1" y="388.8"/>
      </g>
     </g>
     <g id="line2d_97">
      <g>
       <use style="stroke:#000000;stroke-linecap:butt;stroke-width:0.5;" x="536.897032258" xlink:href="#m9ad4d917ad" y="34.56"/>
      </g>
     </g>
    </g>
    <g id="xtick_45">
     <g id="line2d_98">
      <g>
       <use style="stroke:#000000;stroke-linecap:butt;stroke-width:0.5;" x="549.020903226" xlink:href="#m69b1a1edd1" y="388.8"/>
      </g>
     </g>
     <g id="line2d_99">
      <g>
       <use style="stroke:#000000;stroke-linecap:butt;stroke-width:0.5;" x="549.020903226" xlink:href="#m9ad4d917ad" y="34.56"/>
      </g>
     </g>
    </g>
   </g>
   <g id="matplotlib.axis_2">
    <g id="ytick_1">
     <g id="line2d_100">
      <path clip-path="url(#pe602019af8)" d="
M57.6 388.8
L558.72 388.8" style="fill:none;stroke:#000000;stroke-dasharray:1.000000,3.000000;stroke-dashoffset:0.0;stroke-linecap:butt;stroke-width:0.5;"/>
     </g>
     <g id="line2d_101">
      <defs>
       <path d="
M0 0
L4 0" id="me8a85f7bf6" style="stroke:#000000;stroke-linecap:butt;stroke-width:0.5;"/>
      </defs>
      <g>
       <use style="stroke:#000000;stroke-linecap:butt;stroke-width:0.5;" x="57.6" xlink:href="#me8a85f7bf6" y="388.8"/>
      </g>
     </g>
     <g id="line2d_102">
      <defs>
       <path d="
M0 0
L-4 0" id="m1a32005dea" style="stroke:#000000;stroke-linecap:butt;stroke-width:0.5;"/>
      </defs>
      <g>
       <use style="stroke:#000000;stroke-linecap:butt;stroke-width:0.5;" x="558.72" xlink:href="#m1a32005dea" y="388.8"/>
      </g>
     </g>
     <g id="text_5">
      <!-- 0 -->
      <g transform="translate(42.7971875 395.35171875)scale(0.18 -0.18)">
       <use xlink:href="#BitstreamVeraSans-Bold-30"/>
      </g>
     </g>
    </g>
    <g id="ytick_2">
     <g id="line2d_103">
      <path clip-path="url(#pe602019af8)" d="
M57.6 338.194
L558.72 338.194" style="fill:none;stroke:#000000;stroke-dasharray:1.000000,3.000000;stroke-dashoffset:0.0;stroke-linecap:butt;stroke-width:0.5;"/>
     </g>
     <g id="line2d_104">
      <g>
       <use style="stroke:#000000;stroke-linecap:butt;stroke-width:0.5;" x="57.6" xlink:href="#me8a85f7bf6" y="338.194285714"/>
      </g>
     </g>
     <g id="line2d_105">
      <g>
       <use style="stroke:#000000;stroke-linecap:butt;stroke-width:0.5;" x="558.72" xlink:href="#m1a32005dea" y="338.194285714"/>
      </g>
     </g>
     <g id="text_6">
      <!-- 50 -->
      <defs>
       <path d="
M10.5938 72.9062
L57.3281 72.9062
L57.3281 59.0781
L25.5938 59.0781
L25.5938 47.7969
Q27.7344 48.3906 29.9062 48.7031
Q32.0781 49.0312 34.4219 49.0312
Q47.75 49.0312 55.1719 42.3594
Q62.5938 35.6875 62.5938 23.7812
Q62.5938 11.9688 54.5156 5.26562
Q46.4375 -1.42188 32.0781 -1.42188
Q25.875 -1.42188 19.7969 -0.21875
Q13.7188 0.984375 7.71875 3.42188
L7.71875 18.2188
Q13.6719 14.7969 19.0156 13.0781
Q24.3594 11.375 29.1094 11.375
Q35.9375 11.375 39.8594 14.7188
Q43.7969 18.0625 43.7969 23.7812
Q43.7969 29.5469 39.8594 32.8594
Q35.9375 36.1875 29.1094 36.1875
Q25.0469 36.1875 20.4531 35.125
Q15.875 34.0781 10.5938 31.8906
z
" id="BitstreamVeraSans-Bold-35"/>
      </defs>
      <g transform="translate(30.801875 344.746004464)scale(0.18 -0.18)">
       <use xlink:href="#BitstreamVeraSans-Bold-35"/>
       <use x="69.580078125" xlink:href="#BitstreamVeraSans-Bold-30"/>
      </g>
     </g>
    </g>
    <g id="ytick_3">
     <g id="line2d_106">
      <path clip-path="url(#pe602019af8)" d="
M57.6 287.589
L558.72 287.589" style="fill:none;stroke:#000000;stroke-dasharray:1.000000,3.000000;stroke-dashoffset:0.0;stroke-linecap:butt;stroke-width:0.5;"/>
     </g>
     <g id="line2d_107">
      <g>
       <use style="stroke:#000000;stroke-linecap:butt;stroke-width:0.5;" x="57.6" xlink:href="#me8a85f7bf6" y="287.588571429"/>
      </g>
     </g>
     <g id="line2d_108">
      <g>
       <use style="stroke:#000000;stroke-linecap:butt;stroke-width:0.5;" x="558.72" xlink:href="#m1a32005dea" y="287.588571429"/>
      </g>
     </g>
     <g id="text_7">
      <!-- 100 -->
      <g transform="translate(18.9190625 294.140290179)scale(0.18 -0.18)">
       <use xlink:href="#BitstreamVeraSans-Bold-31"/>
       <use x="69.580078125" xlink:href="#BitstreamVeraSans-Bold-30"/>
       <use x="139.16015625" xlink:href="#BitstreamVeraSans-Bold-30"/>
      </g>
     </g>
    </g>
    <g id="ytick_4">
     <g id="line2d_109">
      <path clip-path="url(#pe602019af8)" d="
M57.6 236.983
L558.72 236.983" style="fill:none;stroke:#000000;stroke-dasharray:1.000000,3.000000;stroke-dashoffset:0.0;stroke-linecap:butt;stroke-width:0.5;"/>
     </g>
     <g id="line2d_110">
      <g>
       <use style="stroke:#000000;stroke-linecap:butt;stroke-width:0.5;" x="57.6" xlink:href="#me8a85f7bf6" y="236.982857143"/>
      </g>
     </g>
     <g id="line2d_111">
      <g>
       <use style="stroke:#000000;stroke-linecap:butt;stroke-width:0.5;" x="558.72" xlink:href="#m1a32005dea" y="236.982857143"/>
      </g>
     </g>
     <g id="text_8">
      <!-- 150 -->
      <g transform="translate(18.9190625 243.534575893)scale(0.18 -0.18)">
       <use xlink:href="#BitstreamVeraSans-Bold-31"/>
       <use x="69.580078125" xlink:href="#BitstreamVeraSans-Bold-35"/>
       <use x="139.16015625" xlink:href="#BitstreamVeraSans-Bold-30"/>
      </g>
     </g>
    </g>
    <g id="ytick_5">
     <g id="line2d_112">
      <path clip-path="url(#pe602019af8)" d="
M57.6 186.377
L558.72 186.377" style="fill:none;stroke:#000000;stroke-dasharray:1.000000,3.000000;stroke-dashoffset:0.0;stroke-linecap:butt;stroke-width:0.5;"/>
     </g>
     <g id="line2d_113">
      <g>
       <use style="stroke:#000000;stroke-linecap:butt;stroke-width:0.5;" x="57.6" xlink:href="#me8a85f7bf6" y="186.377142857"/>
      </g>
     </g>
     <g id="line2d_114">
      <g>
       <use style="stroke:#000000;stroke-linecap:butt;stroke-width:0.5;" x="558.72" xlink:href="#m1a32005dea" y="186.377142857"/>
      </g>
     </g>
     <g id="text_9">
      <!-- 200 -->
      <g transform="translate(18.3115625 192.928861607)scale(0.18 -0.18)">
       <use xlink:href="#BitstreamVeraSans-Bold-32"/>
       <use x="69.580078125" xlink:href="#BitstreamVeraSans-Bold-30"/>
       <use x="139.16015625" xlink:href="#BitstreamVeraSans-Bold-30"/>
      </g>
     </g>
    </g>
    <g id="ytick_6">
     <g id="line2d_115">
      <path clip-path="url(#pe602019af8)" d="
M57.6 135.771
L558.72 135.771" style="fill:none;stroke:#000000;stroke-dasharray:1.000000,3.000000;stroke-dashoffset:0.0;stroke-linecap:butt;stroke-width:0.5;"/>
     </g>
     <g id="line2d_116">
      <g>
       <use style="stroke:#000000;stroke-linecap:butt;stroke-width:0.5;" x="57.6" xlink:href="#me8a85f7bf6" y="135.771428571"/>
      </g>
     </g>
     <g id="line2d_117">
      <g>
       <use style="stroke:#000000;stroke-linecap:butt;stroke-width:0.5;" x="558.72" xlink:href="#m1a32005dea" y="135.771428571"/>
      </g>
     </g>
     <g id="text_10">
      <!-- 250 -->
      <g transform="translate(18.3115625 142.323147321)scale(0.18 -0.18)">
       <use xlink:href="#BitstreamVeraSans-Bold-32"/>
       <use x="69.580078125" xlink:href="#BitstreamVeraSans-Bold-35"/>
       <use x="139.16015625" xlink:href="#BitstreamVeraSans-Bold-30"/>
      </g>
     </g>
    </g>
    <g id="ytick_7">
     <g id="line2d_118">
      <path clip-path="url(#pe602019af8)" d="
M57.6 85.1657
L558.72 85.1657" style="fill:none;stroke:#000000;stroke-dasharray:1.000000,3.000000;stroke-dashoffset:0.0;stroke-linecap:butt;stroke-width:0.5;"/>
     </g>
     <g id="line2d_119">
      <g>
       <use style="stroke:#000000;stroke-linecap:butt;stroke-width:0.5;" x="57.6" xlink:href="#me8a85f7bf6" y="85.1657142857"/>
      </g>
     </g>
     <g id="line2d_120">
      <g>
       <use style="stroke:#000000;stroke-linecap:butt;stroke-width:0.5;" x="558.72" xlink:href="#m1a32005dea" y="85.1657142857"/>
      </g>
     </g>
     <g id="text_11">
      <!-- 300 -->
      <defs>
       <path d="
M46.5781 39.3125
Q53.9531 37.4062 57.7812 32.6875
Q61.625 27.9844 61.625 20.7031
Q61.625 9.85938 53.3125 4.21875
Q45.0156 -1.42188 29.1094 -1.42188
Q23.4844 -1.42188 17.8438 -0.515625
Q12.2031 0.390625 6.6875 2.20312
L6.6875 16.7031
Q11.9688 14.0625 17.1562 12.7188
Q22.3594 11.375 27.3906 11.375
Q34.8594 11.375 38.8438 13.9531
Q42.8281 16.5469 42.8281 21.3906
Q42.8281 26.375 38.75 28.9375
Q34.6719 31.5 26.7031 31.5
L19.1875 31.5
L19.1875 43.6094
L27.0938 43.6094
Q34.1875 43.6094 37.6406 45.8281
Q41.1094 48.0469 41.1094 52.5938
Q41.1094 56.7812 37.7344 59.0781
Q34.375 61.375 28.2188 61.375
Q23.6875 61.375 19.0469 60.3438
Q14.4062 59.3281 9.8125 57.3281
L9.8125 71.0938
Q15.375 72.6562 20.8438 73.4375
Q26.3125 74.2188 31.5938 74.2188
Q45.7969 74.2188 52.8438 69.5469
Q59.9062 64.8906 59.9062 55.5156
Q59.9062 49.125 56.5312 45.0469
Q53.1719 40.9688 46.5781 39.3125" id="BitstreamVeraSans-Bold-33"/>
      </defs>
      <g transform="translate(18.0921875 91.7174330357)scale(0.18 -0.18)">
       <use xlink:href="#BitstreamVeraSans-Bold-33"/>
       <use x="69.580078125" xlink:href="#BitstreamVeraSans-Bold-30"/>
       <use x="139.16015625" xlink:href="#BitstreamVeraSans-Bold-30"/>
      </g>
     </g>
    </g>
    <g id="ytick_8">
     <g id="line2d_121">
      <path clip-path="url(#pe602019af8)" d="
M57.6 34.56
L558.72 34.56" style="fill:none;stroke:#000000;stroke-dasharray:1.000000,3.000000;stroke-dashoffset:0.0;stroke-linecap:butt;stroke-width:0.5;"/>
     </g>
     <g id="line2d_122">
      <g>
       <use style="stroke:#000000;stroke-linecap:butt;stroke-width:0.5;" x="57.6" xlink:href="#me8a85f7bf6" y="34.56"/>
      </g>
     </g>
     <g id="line2d_123">
      <g>
       <use style="stroke:#000000;stroke-linecap:butt;stroke-width:0.5;" x="558.72" xlink:href="#m1a32005dea" y="34.56"/>
      </g>
     </g>
     <g id="text_12">
      <!-- 350 -->
      <g transform="translate(18.0921875 41.11171875)scale(0.18 -0.18)">
       <use xlink:href="#BitstreamVeraSans-Bold-33"/>
       <use x="69.580078125" xlink:href="#BitstreamVeraSans-Bold-35"/>
       <use x="139.16015625" xlink:href="#BitstreamVeraSans-Bold-30"/>
      </g>
     </g>
    </g>
   </g>
   <g id="patch_3">
    <path d="
M57.6 34.56
L558.72 34.56" style="fill:none;stroke:#000000;"/>
   </g>
   <g id="patch_4">
    <path d="
M558.72 388.8
L558.72 34.56" style="fill:none;stroke:#000000;"/>
   </g>
   <g id="patch_5">
    <path d="
M57.6 388.8
L558.72 388.8" style="fill:none;stroke:#000000;"/>
   </g>
   <g id="patch_6">
    <path d="
M57.6 388.8
L57.6 34.56" style="fill:none;stroke:#000000;"/>
   </g>
   <g id="text_13">
    <!-- Freie IPv4-Adressen (Millionen) -->
    <defs>
     <path d="
M36.8125 57.4219
L16.2188 26.9062
L36.8125 26.9062
z

M33.6875 72.9062
L54.5938 72.9062
L54.5938 26.9062
L64.9844 26.9062
L64.9844 13.2812
L54.5938 13.2812
L54.5938 0
L36.8125 0
L36.8125 13.2812
L4.5 13.2812
L4.5 29.3906
z
" id="BitstreamVeraSans-Bold-34"/>
     <path d="
M8.40625 54.6875
L25.875 54.6875
L25.875 0
L8.40625 0
z

M8.40625 75.9844
L25.875 75.9844
L25.875 61.7188
L8.40625 61.7188
z
" id="BitstreamVeraSans-Bold-69"/>
     <path d="
M9.1875 72.9062
L59.9062 72.9062
L59.9062 58.6875
L27.9844 58.6875
L27.9844 45.125
L58.0156 45.125
L58.0156 30.9062
L27.9844 30.9062
L27.9844 0
L9.1875 0
z
" id="BitstreamVeraSans-Bold-46"/>
     <path id="BitstreamVeraSans-Bold-20"/>
     <path d="
M53.4219 13.2812
L24.0312 13.2812
L19.3906 0
L0.484375 0
L27.4844 72.9062
L49.9062 72.9062
L76.9062 0
L58.0156 0
z

M28.7188 26.8125
L48.6875 26.8125
L38.7188 55.8125
z
" id="BitstreamVeraSans-Bold-41"/>
     <path d="
M9.1875 72.9062
L27.9844 72.9062
L27.9844 0
L9.1875 0
z
" id="BitstreamVeraSans-Bold-49"/>
     <path d="
M51.125 52.9844
L51.125 39.7031
Q45.5156 42.0469 40.2812 43.2188
Q35.0625 44.3906 30.4219 44.3906
Q25.4375 44.3906 23.0156 43.1406
Q20.6094 41.8906 20.6094 39.3125
Q20.6094 37.2031 22.4375 36.0781
Q24.2656 34.9688 29 34.4219
L32.0781 33.9844
Q45.5156 32.2812 50.1406 28.375
Q54.7812 24.4688 54.7812 16.1094
Q54.7812 7.375 48.3281 2.96875
Q41.8906 -1.42188 29.1094 -1.42188
Q23.6875 -1.42188 17.8906 -0.5625
Q12.1094 0.296875 6 2
L6 15.2812
Q11.2344 12.75 16.7188 11.4688
Q22.2188 10.2031 27.875 10.2031
Q33.0156 10.2031 35.5938 11.6094
Q38.1875 13.0312 38.1875 15.8281
Q38.1875 18.1719 36.4062 19.3125
Q34.625 20.4531 29.2969 21.0938
L26.2188 21.4844
Q14.5469 22.9531 9.85938 26.9062
Q5.17188 30.8594 5.17188 38.9219
Q5.17188 47.6094 11.125 51.7969
Q17.0938 56 29.3906 56
Q34.2344 56 39.5469 55.2656
Q44.875 54.5469 51.125 52.9844" id="BitstreamVeraSans-Bold-73"/>
     <path d="
M49.0312 39.7969
Q46.7344 40.875 44.4531 41.375
Q42.1875 41.8906 39.8906 41.8906
Q33.1562 41.8906 29.5156 37.5625
Q25.875 33.25 25.875 25.2031
L25.875 0
L8.40625 0
L8.40625 54.6875
L25.875 54.6875
L25.875 45.7031
Q29.25 51.0781 33.6094 53.5312
Q37.9844 56 44.0938 56
Q44.9688 56 45.9844 55.9219
Q47.0156 55.8594 48.9688 55.6094
z
" id="BitstreamVeraSans-Bold-72"/>
     <path d="
M8.01562 -13.1875
Q14.2656 -1.5625 17.3906 9.51562
Q20.5156 20.6094 20.5156 31.3906
Q20.5156 42.1875 17.3906 53.25
Q14.2656 64.3125 8.01562 75.875
L22.5156 75.875
Q29.9375 63.9219 33.5156 52.9531
Q37.1094 42 37.1094 31.2969
Q37.1094 20.6094 33.5469 9.73438
Q29.9844 -1.125 22.5156 -13.1875
z
" id="BitstreamVeraSans-Bold-29"/>
     <path d="
M45.6094 46.6875
L45.6094 75.9844
L63.1875 75.9844
L63.1875 0
L45.6094 0
L45.6094 7.90625
Q42 3.07812 37.6406 0.828125
Q33.2969 -1.42188 27.5938 -1.42188
Q17.4844 -1.42188 10.9844 6.60938
Q4.5 14.6562 4.5 27.2969
Q4.5 39.9375 10.9844 47.9688
Q17.4844 56 27.5938 56
Q33.25 56 37.625 53.7344
Q42 51.4688 45.6094 46.6875
M34.0781 11.2812
Q39.7031 11.2812 42.6562 15.375
Q45.6094 19.4844 45.6094 27.2969
Q45.6094 35.1094 42.6562 39.2031
Q39.7031 43.3125 34.0781 43.3125
Q28.5156 43.3125 25.5625 39.2031
Q22.6094 35.1094 22.6094 27.2969
Q22.6094 19.4844 25.5625 15.375
Q28.5156 11.2812 34.0781 11.2812" id="BitstreamVeraSans-Bold-64"/>
     <path d="
M62.9844 27.4844
L62.9844 22.5156
L22.125 22.5156
Q22.75 16.3594 26.5625 13.2812
Q30.375 10.2031 37.2031 10.2031
Q42.7188 10.2031 48.5 11.8438
Q54.2969 13.4844 60.4062 16.7969
L60.4062 3.32812
Q54.2031 0.984375 48 -0.21875
Q41.7969 -1.42188 35.5938 -1.42188
Q20.75 -1.42188 12.5156 6.125
Q4.29688 13.6719 4.29688 27.2969
Q4.29688 40.6719 12.375 48.3281
Q20.4531 56 34.625 56
Q47.5156 56 55.25 48.2344
Q62.9844 40.4844 62.9844 27.4844
M45.0156 33.2969
Q45.0156 38.2812 42.1094 41.3281
Q39.2031 44.3906 34.5156 44.3906
Q29.4375 44.3906 26.2656 41.5312
Q23.0938 38.6719 22.3125 33.2969
z
" id="BitstreamVeraSans-Bold-65"/>
     <path d="
M5.42188 35.8906
L36.0781 35.8906
L36.0781 21.6875
L5.42188 21.6875
z
" id="BitstreamVeraSans-Bold-2d"/>
     <path d="
M9.1875 72.9062
L33.1094 72.9062
L49.7031 33.8906
L66.4062 72.9062
L90.2812 72.9062
L90.2812 0
L72.5156 0
L72.5156 53.3281
L55.7188 14.0156
L43.7969 14.0156
L27 53.3281
L27 0
L9.1875 0
z
" id="BitstreamVeraSans-Bold-4d"/>
     <path d="
M37.7031 -13.1875
L23.1875 -13.1875
Q15.7188 -1.125 12.1562 9.73438
Q8.59375 20.6094 8.59375 31.2969
Q8.59375 42 12.1719 52.9531
Q15.7656 63.9219 23.1875 75.875
L37.7031 75.875
Q31.4531 64.3125 28.3281 53.25
Q25.2031 42.1875 25.2031 31.3906
Q25.2031 20.6094 28.2969 9.51562
Q31.3906 -1.5625 37.7031 -13.1875" id="BitstreamVeraSans-Bold-28"/>
     <path d="
M1.51562 54.6875
L19 54.6875
L32.625 16.8906
L46.1875 54.6875
L63.7188 54.6875
L42.1875 0
L23 0
z
" id="BitstreamVeraSans-Bold-76"/>
     <path d="
M8.40625 75.9844
L25.875 75.9844
L25.875 0
L8.40625 0
z
" id="BitstreamVeraSans-Bold-6c"/>
     <path d="
M9.1875 72.9062
L40.375 72.9062
Q54.2969 72.9062 61.7344 66.7188
Q69.1875 60.5469 69.1875 49.125
Q69.1875 37.6406 61.7344 31.4688
Q54.2969 25.2969 40.375 25.2969
L27.9844 25.2969
L27.9844 0
L9.1875 0
z

M27.9844 59.2812
L27.9844 38.9219
L38.375 38.9219
Q43.8438 38.9219 46.8281 41.5781
Q49.8125 44.2344 49.8125 49.125
Q49.8125 54 46.8281 56.6406
Q43.8438 59.2812 38.375 59.2812
z
" id="BitstreamVeraSans-Bold-50"/>
     <path d="
M34.4219 43.5
Q28.6094 43.5 25.5625 39.3281
Q22.5156 35.1562 22.5156 27.2969
Q22.5156 19.4375 25.5625 15.25
Q28.6094 11.0781 34.4219 11.0781
Q40.1406 11.0781 43.1562 15.25
Q46.1875 19.4375 46.1875 27.2969
Q46.1875 35.1562 43.1562 39.3281
Q40.1406 43.5 34.4219 43.5
M34.4219 56
Q48.5312 56 56.4688 48.375
Q64.4062 40.7656 64.4062 27.2969
Q64.4062 13.8125 56.4688 6.1875
Q48.5312 -1.42188 34.4219 -1.42188
Q20.2656 -1.42188 12.2812 6.1875
Q4.29688 13.8125 4.29688 27.2969
Q4.29688 40.7656 12.2812 48.375
Q20.2656 56 34.4219 56" id="BitstreamVeraSans-Bold-6f"/>
     <path d="
M63.375 33.2969
L63.375 0
L45.7969 0
L45.7969 5.42188
L45.7969 25.4844
Q45.7969 32.5625 45.4844 35.25
Q45.1719 37.9375 44.3906 39.2031
Q43.3594 40.9219 41.5938 41.875
Q39.8438 42.8281 37.5938 42.8281
Q32.125 42.8281 29 38.5938
Q25.875 34.375 25.875 26.9062
L25.875 0
L8.40625 0
L8.40625 54.6875
L25.875 54.6875
L25.875 46.6875
Q29.8281 51.4688 34.2656 53.7344
Q38.7188 56 44.0938 56
Q53.5625 56 58.4688 50.1875
Q63.375 44.3906 63.375 33.2969" id="BitstreamVeraSans-Bold-6e"/>
    </defs>
    <g transform="translate(118.069875 29.56)scale(0.216 -0.216)">
     <use xlink:href="#BitstreamVeraSans-Bold-46"/>
     <use x="61.935546875" xlink:href="#BitstreamVeraSans-Bold-72"/>
     <use x="111.251953125" xlink:href="#BitstreamVeraSans-Bold-65"/>
     <use x="179.07421875" xlink:href="#BitstreamVeraSans-Bold-69"/>
     <use x="213.3515625" xlink:href="#BitstreamVeraSans-Bold-65"/>
     <use x="281.173828125" xlink:href="#BitstreamVeraSans-Bold-20"/>
     <use x="315.98828125" xlink:href="#BitstreamVeraSans-Bold-49"/>
     <use x="353.1953125" xlink:href="#BitstreamVeraSans-Bold-50"/>
     <use x="426.486328125" xlink:href="#BitstreamVeraSans-Bold-76"/>
     <use x="491.671875" xlink:href="#BitstreamVeraSans-Bold-34"/>
     <use x="561.251953125" xlink:href="#BitstreamVeraSans-Bold-2d"/>
     <use x="602.755859375" xlink:href="#BitstreamVeraSans-Bold-41"/>
     <use x="680.1484375" xlink:href="#BitstreamVeraSans-Bold-64"/>
     <use x="751.73046875" xlink:href="#BitstreamVeraSans-Bold-72"/>
     <use x="801.046875" xlink:href="#BitstreamVeraSans-Bold-65"/>
     <use x="868.869140625" xlink:href="#BitstreamVeraSans-Bold-73"/>
     <use x="928.390625" xlink:href="#BitstreamVeraSans-Bold-73"/>
     <use x="987.912109375" xlink:href="#BitstreamVeraSans-Bold-65"/>
     <use x="1055.734375" xlink:href="#BitstreamVeraSans-Bold-6e"/>
     <use x="1126.92578125" xlink:href="#BitstreamVeraSans-Bold-20"/>
     <use x="1161.74023438" xlink:href="#BitstreamVeraSans-Bold-28"/>
     <use x="1207.44335938" xlink:href="#BitstreamVeraSans-Bold-4d"/>
     <use x="1306.95507812" xlink:href="#BitstreamVeraSans-Bold-69"/>
     <use x="1341.23242188" xlink:href="#BitstreamVeraSans-Bold-6c"/>
     <use x="1375.50976562" xlink:href="#BitstreamVeraSans-Bold-6c"/>
     <use x="1409.78710938" xlink:href="#BitstreamVeraSans-Bold-69"/>
     <use x="1444.06445312" xlink:href="#BitstreamVeraSans-Bold-6f"/>
     <use x="1512.765625" xlink:href="#BitstreamVeraSans-Bold-6e"/>
     <use x="1583.95703125" xlink:href="#BitstreamVeraSans-Bold-65"/>
     <use x="1651.77929688" xlink:href="#BitstreamVeraSans-Bold-6e"/>
     <use x="1722.97070312" xlink:href="#BitstreamVeraSans-Bold-29"/>
    </g>
   </g>
   <g id="legend_1">
    <g id="patch_7">
     <path d="
M348.775 206.179
L547.92 206.179
L547.92 45.36
L348.775 45.36
L348.775 206.179
z
" style="fill:#ffffff;stroke:#000000;"/>
    </g>
    <g id="line2d_124">
     <path d="
M363.895 62.8526
L394.135 62.8526" style="fill:none;stroke:#008000;stroke-width:3.5;"/>
    </g>
    <g id="line2d_125"/>
    <g id="text_14">
     <!-- Asien -->
     <g transform="translate(417.89475 70.412625)scale(0.216 -0.216)">
      <use xlink:href="#BitstreamVeraSans-Bold-41"/>
      <use x="77.392578125" xlink:href="#BitstreamVeraSans-Bold-73"/>
      <use x="136.9140625" xlink:href="#BitstreamVeraSans-Bold-69"/>
      <use x="171.19140625" xlink:href="#BitstreamVeraSans-Bold-65"/>
      <use x="239.013671875" xlink:href="#BitstreamVeraSans-Bold-6e"/>
     </g>
    </g>
    <g id="line2d_126">
     <path d="
M363.895 94.5574
L394.135 94.5574" style="fill:none;stroke:#0000ff;stroke-width:3.5;"/>
    </g>
    <g id="line2d_127"/>
    <g id="text_15">
     <!-- Europa -->
     <defs>
      <path d="
M25.875 7.90625
L25.875 -20.7969
L8.40625 -20.7969
L8.40625 54.6875
L25.875 54.6875
L25.875 46.6875
Q29.5 51.4688 33.8906 53.7344
Q38.2812 56 44 56
Q54.1094 56 60.5938 47.9688
Q67.0938 39.9375 67.0938 27.2969
Q67.0938 14.6562 60.5938 6.60938
Q54.1094 -1.42188 44 -1.42188
Q38.2812 -1.42188 33.8906 0.84375
Q29.5 3.125 25.875 7.90625
M37.5 43.3125
Q31.8906 43.3125 28.875 39.1875
Q25.875 35.0625 25.875 27.2969
Q25.875 19.5312 28.875 15.4062
Q31.8906 11.2812 37.5 11.2812
Q43.1094 11.2812 46.0625 15.375
Q49.0312 19.4844 49.0312 27.2969
Q49.0312 35.1094 46.0625 39.2031
Q43.1094 43.3125 37.5 43.3125" id="BitstreamVeraSans-Bold-70"/>
      <path d="
M32.9062 24.6094
Q27.4375 24.6094 24.6719 22.75
Q21.9219 20.9062 21.9219 17.2812
Q21.9219 13.9688 24.1406 12.0781
Q26.375 10.2031 30.3281 10.2031
Q35.25 10.2031 38.625 13.7344
Q42 17.2812 42 22.6094
L42 24.6094
z

M59.625 31.2031
L59.625 0
L42 0
L42 8.10938
Q38.4844 3.125 34.0781 0.84375
Q29.6875 -1.42188 23.3906 -1.42188
Q14.8906 -1.42188 9.59375 3.53125
Q4.29688 8.5 4.29688 16.4062
Q4.29688 26.0312 10.9062 30.5156
Q17.5312 35.0156 31.6875 35.0156
L42 35.0156
L42 36.375
Q42 40.5312 38.7188 42.4531
Q35.4531 44.3906 28.5156 44.3906
Q22.9062 44.3906 18.0625 43.2656
Q13.2344 42.1406 9.07812 39.8906
L9.07812 53.2188
Q14.7031 54.5938 20.3594 55.2969
Q26.0312 56 31.6875 56
Q46.4844 56 53.0469 50.1719
Q59.625 44.3438 59.625 31.2031" id="BitstreamVeraSans-Bold-61"/>
      <path d="
M7.8125 21.2969
L7.8125 54.6875
L25.3906 54.6875
L25.3906 49.2188
Q25.3906 44.7812 25.3438 38.0625
Q25.2969 31.3438 25.2969 29.1094
Q25.2969 22.5156 25.6406 19.6094
Q25.9844 16.7031 26.8125 15.375
Q27.875 13.6719 29.6094 12.7344
Q31.3438 11.8125 33.5938 11.8125
Q39.0625 11.8125 42.1875 16.0156
Q45.3125 20.2188 45.3125 27.6875
L45.3125 54.6875
L62.7969 54.6875
L62.7969 0
L45.3125 0
L45.3125 7.90625
Q41.3594 3.125 36.9375 0.84375
Q32.5156 -1.42188 27.2031 -1.42188
Q17.7188 -1.42188 12.7656 4.39062
Q7.8125 10.2031 7.8125 21.2969" id="BitstreamVeraSans-Bold-75"/>
      <path d="
M9.1875 72.9062
L59.9062 72.9062
L59.9062 58.6875
L27.9844 58.6875
L27.9844 45.125
L58.0156 45.125
L58.0156 30.9062
L27.9844 30.9062
L27.9844 14.2031
L60.9844 14.2031
L60.9844 0
L9.1875 0
z
" id="BitstreamVeraSans-Bold-45"/>
     </defs>
     <g transform="translate(417.89475 102.117375)scale(0.216 -0.216)">
      <use xlink:href="#BitstreamVeraSans-Bold-45"/>
      <use x="68.310546875" xlink:href="#BitstreamVeraSans-Bold-75"/>
      <use x="139.501953125" xlink:href="#BitstreamVeraSans-Bold-72"/>
      <use x="188.818359375" xlink:href="#BitstreamVeraSans-Bold-6f"/>
      <use x="257.51953125" xlink:href="#BitstreamVeraSans-Bold-70"/>
      <use x="329.1015625" xlink:href="#BitstreamVeraSans-Bold-61"/>
     </g>
    </g>
    <g id="line2d_128">
     <path d="
M363.895 126.262
L394.135 126.262" style="fill:none;stroke:#ff0000;stroke-width:3.5;"/>
    </g>
    <g id="line2d_129"/>
    <g id="text_16">
     <!-- USA -->
     <defs>
      <path d="
M9.1875 72.9062
L27.9844 72.9062
L27.9844 29.2031
Q27.9844 20.1719 30.9375 16.2812
Q33.8906 12.4062 40.5781 12.4062
Q47.3125 12.4062 50.2656 16.2812
Q53.2188 20.1719 53.2188 29.2031
L53.2188 72.9062
L72.0156 72.9062
L72.0156 29.2031
Q72.0156 13.7188 64.25 6.14062
Q56.5 -1.42188 40.5781 -1.42188
Q24.7031 -1.42188 16.9375 6.14062
Q9.1875 13.7188 9.1875 29.2031
z
" id="BitstreamVeraSans-Bold-55"/>
      <path d="
M59.9062 70.6094
L59.9062 55.1719
Q53.9062 57.8594 48.1875 59.2188
Q42.4844 60.5938 37.4062 60.5938
Q30.6719 60.5938 27.4375 58.7344
Q24.2188 56.8906 24.2188 52.9844
Q24.2188 50.0469 26.3906 48.4062
Q28.5625 46.7812 34.2812 45.6094
L42.2812 44
Q54.4375 41.5469 59.5625 36.5625
Q64.7031 31.5938 64.7031 22.4062
Q64.7031 10.3594 57.5469 4.46875
Q50.3906 -1.42188 35.6875 -1.42188
Q28.7656 -1.42188 21.7812 -0.09375
Q14.7969 1.21875 7.8125 3.8125
L7.8125 19.6719
Q14.7969 15.9688 21.3125 14.0781
Q27.8281 12.2031 33.8906 12.2031
Q40.0469 12.2031 43.3125 14.25
Q46.5781 16.3125 46.5781 20.125
Q46.5781 23.5312 44.3594 25.3906
Q42.1406 27.25 35.5 28.7188
L28.2188 30.3281
Q17.2812 32.6719 12.2188 37.7969
Q7.17188 42.9219 7.17188 51.6094
Q7.17188 62.5 14.2031 68.3594
Q21.2344 74.2188 34.4219 74.2188
Q40.4375 74.2188 46.7812 73.3125
Q53.125 72.4062 59.9062 70.6094" id="BitstreamVeraSans-Bold-53"/>
     </defs>
     <g transform="translate(417.89475 133.822125)scale(0.216 -0.216)">
      <use xlink:href="#BitstreamVeraSans-Bold-55"/>
      <use x="81.201171875" xlink:href="#BitstreamVeraSans-Bold-53"/>
      <use x="153.22265625" xlink:href="#BitstreamVeraSans-Bold-41"/>
     </g>
    </g>
    <g id="line2d_130">
     <path d="
M363.895 157.967
L394.135 157.967" style="fill:none;stroke:#ff00ff;stroke-width:3.5;"/>
    </g>
    <g id="line2d_131"/>
    <g id="text_17">
     <!-- Afrika -->
     <defs>
      <path d="
M8.40625 75.9844
L25.875 75.9844
L25.875 34.625
L46 54.6875
L66.3125 54.6875
L39.5938 29.5938
L68.4062 0
L47.2188 0
L25.875 22.7969
L25.875 0
L8.40625 0
z
" id="BitstreamVeraSans-Bold-6b"/>
      <path d="
M44.3906 75.9844
L44.3906 64.5
L34.7188 64.5
Q31 64.5 29.5312 63.1562
Q28.0781 61.8125 28.0781 58.5
L28.0781 54.6875
L43.0156 54.6875
L43.0156 42.1875
L28.0781 42.1875
L28.0781 0
L10.5938 0
L10.5938 42.1875
L1.90625 42.1875
L1.90625 54.6875
L10.5938 54.6875
L10.5938 58.5
Q10.5938 67.4375 15.5781 71.7031
Q20.5625 75.9844 31 75.9844
z
" id="BitstreamVeraSans-Bold-66"/>
     </defs>
     <g transform="translate(417.89475 165.526875)scale(0.216 -0.216)">
      <use xlink:href="#BitstreamVeraSans-Bold-41"/>
      <use x="77.392578125" xlink:href="#BitstreamVeraSans-Bold-66"/>
      <use x="120.8984375" xlink:href="#BitstreamVeraSans-Bold-72"/>
      <use x="170.21484375" xlink:href="#BitstreamVeraSans-Bold-69"/>
      <use x="204.4921875" xlink:href="#BitstreamVeraSans-Bold-6b"/>
      <use x="270.99609375" xlink:href="#BitstreamVeraSans-Bold-61"/>
     </g>
    </g>
    <g id="line2d_132">
     <path d="
M363.895 189.672
L394.135 189.672" style="fill:none;stroke:#ffa500;stroke-width:3.5;"/>
    </g>
    <g id="line2d_133"/>
    <g id="text_18">
     <!-- S.Amerika -->
     <defs>
      <path d="
M10.2031 18.8906
L27.7812 18.8906
L27.7812 0
L10.2031 0
z
" id="BitstreamVeraSans-Bold-2e"/>
      <path d="
M59.0781 45.6094
Q62.4062 50.6875 66.9688 53.3438
Q71.5312 56 77 56
Q86.4219 56 91.3594 50.1875
Q96.2969 44.3906 96.2969 33.2969
L96.2969 0
L78.7188 0
L78.7188 28.5156
Q78.7656 29.1562 78.7812 29.8281
Q78.8125 30.5156 78.8125 31.7812
Q78.8125 37.5938 77.0938 40.2031
Q75.3906 42.8281 71.5781 42.8281
Q66.6094 42.8281 63.8906 38.7188
Q61.1875 34.625 61.0781 26.8594
L61.0781 0
L43.5 0
L43.5 28.5156
Q43.5 37.5938 41.9375 40.2031
Q40.375 42.8281 36.375 42.8281
Q31.3438 42.8281 28.6094 38.7031
Q25.875 34.5781 25.875 26.9062
L25.875 0
L8.29688 0
L8.29688 54.6875
L25.875 54.6875
L25.875 46.6875
Q29.1094 51.3125 33.2812 53.6562
Q37.4531 56 42.4844 56
Q48.1406 56 52.4844 53.2656
Q56.8438 50.5312 59.0781 45.6094" id="BitstreamVeraSans-Bold-6d"/>
     </defs>
     <g transform="translate(417.89475 197.231625)scale(0.216 -0.216)">
      <use xlink:href="#BitstreamVeraSans-Bold-53"/>
      <use x="72.021484375" xlink:href="#BitstreamVeraSans-Bold-2e"/>
      <use x="110.009765625" xlink:href="#BitstreamVeraSans-Bold-41"/>
      <use x="187.40234375" xlink:href="#BitstreamVeraSans-Bold-6d"/>
      <use x="291.6015625" xlink:href="#BitstreamVeraSans-Bold-65"/>
      <use x="359.423828125" xlink:href="#BitstreamVeraSans-Bold-72"/>
      <use x="408.740234375" xlink:href="#BitstreamVeraSans-Bold-69"/>
      <use x="443.017578125" xlink:href="#BitstreamVeraSans-Bold-6b"/>
      <use x="509.521484375" xlink:href="#BitstreamVeraSans-Bold-61"/>
     </g>
    </g>
   </g>
  </g>
 </g>
 <defs>
  <clipPath id="pe602019af8">
   <rect height="354.24" width="501.12" x="57.6" y="34.56"/>
  </clipPath>
 </defs>
</svg>
