<?xml version="1.0" encoding="utf-8" standalone="no"?>
<!DOCTYPE svg PUBLIC "-//W3C//DTD SVG 1.1//EN"
  "http://www.w3.org/Graphics/SVG/1.1/DTD/svg11.dtd">
<!-- Created with matplotlib (http://matplotlib.sourceforge.net/) -->
<svg height="432pt" version="1.1" viewBox="0 0 576 432" width="576pt" xmlns="http://www.w3.org/2000/svg" xmlns:xlink="http://www.w3.org/1999/xlink">
 <defs>
  <style type="text/css">
*{stroke-linecap:square;stroke-linejoin:round;}
  </style>
 </defs>
 <g id="figure_1">
  <g id="patch_1">
   <path d="
M0 432
L576 432
L576 0
L0 0
z
" style="fill:#ffffff;"/>
  </g>
  <g id="axes_1">
   <g id="patch_2">
    <path d="
M57.6 388.8
L558.72 388.8
L558.72 12.96
L57.6 12.96
z
" style="fill:#ffffff;"/>
   </g>
   <g id="line2d_1">
    <path clip-path="url(#p199fde9080)" d="
M57.1959 32.7758
L60.833 32.8354
L62.0454 33.9631
L62.8537 34.4128
L64.4702 34.4854
L65.2785 34.5934
L65.6826 35.031
L66.0867 35.8063
L68.1074 35.8533
L68.9156 36.2084
L69.7239 36.2876
L73.361 36.648
L73.7652 40.4658
L74.1693 42.7582
L74.9775 42.9336
L75.7858 42.9336
L76.1899 44.4571
L76.5941 44.7749
L76.9982 45.4234
L77.8065 45.5655
L79.0188 46.576
L79.423 47.3347
L81.0395 47.4359
L82.2519 47.4777
L82.656 47.8059
L85.0808 47.8384
L85.4849 48.0451
L87.5055 48.1223
L87.9097 48.6875
L88.3138 48.9462
L89.1221 49.0314
L90.3345 49.0636
L91.1427 49.3555
L91.5468 49.8053
L91.951 50.0032
L93.5675 50.1044
L93.9716 50.1242
L94.3757 50.9802
L95.184 51.0462
L95.9923 51.155
L96.3964 51.2301
L96.8005 53.4832
L99.6294 53.6478
L100.034 54.221
L100.438 54.2636
L101.65 55.3926
L102.054 56.1876
L102.458 56.2902
L102.862 56.6605
L103.267 56.6742
L104.479 57.3972
L105.287 57.4849
L105.691 59.7369
L107.308 59.7696
L107.712 59.7817
L108.116 64.2966
L108.52 66.5618
L108.924 66.713
L110.137 67.5586
L110.541 68.9826
L110.945 68.9886
L111.349 69.5604
L111.753 69.843
L114.178 70.2194
L114.582 71.2763
L114.986 71.2763
L116.199 71.8814
L116.603 71.9633
L117.007 72.5313
L120.644 72.6311
L121.857 72.6536
L122.261 73.1198
L122.665 73.3321
L123.069 74.7398
L127.514 74.9435
L128.323 75.5455
L128.727 75.6176
L130.343 75.6668
L130.747 77.0154
L131.556 77.6873
L132.768 82.266
L133.172 83.1314
L133.576 83.2738
L133.98 83.5586
L136.001 83.9426
L136.405 84.1406
L136.809 84.6522
L137.213 84.8823
L138.426 84.8933
L138.83 85.2465
L139.234 85.26
L139.638 89.4516
L141.255 89.4615
L141.659 89.762
L144.892 89.9278
L145.296 89.9698
L145.7 90.4806
L147.721 90.5639
L148.125 90.8517
L148.933 90.9383
L149.337 91.5035
L150.146 91.5645
L150.954 91.7432
L151.358 93.725
L155.399 93.8385
L157.016 94.0499
L159.441 94.1687
L159.845 94.2401
L161.057 94.3144
L161.461 94.7281
L161.865 94.8521
L162.269 95.3312
L162.674 95.6303
L164.29 95.674
L165.098 96.3679
L165.907 96.4338
L167.523 96.4682
L167.927 96.7563
L169.544 96.8569
L169.948 97.22
L170.756 97.2401
L171.16 102.31
L175.202 102.522
L175.606 103.543
L176.414 103.554
L176.818 104.154
L177.222 104.154
L178.435 104.497
L178.839 104.576
L179.647 105.03
L181.263 105.043
L181.668 109.583
L182.88 109.694
L183.284 114.304
L183.688 114.305
L184.092 114.497
L184.497 114.498
L186.517 115.25
L188.134 115.3
L189.346 116.158
L189.75 116.169
L190.154 116.475
L190.558 117.267
L192.175 117.402
L192.983 117.489
L193.387 119.181
L193.791 119.462
L195.004 119.569
L195.408 120.146
L196.62 120.55
L197.025 120.55
L197.833 123.968
L198.641 124.505
L199.045 125.799
L201.874 126.013
L205.915 126.029
L206.319 126.222
L207.128 126.277
L207.532 127.002
L207.936 129.354
L210.361 129.863
L211.977 129.895
L212.381 130.055
L213.19 130.138
L213.594 130.213
L215.21 130.219
L215.614 135.116
L216.019 135.356
L216.423 136.495
L218.039 136.82
L218.443 136.829
L218.847 136.981
L219.656 136.988
L220.868 137.28
L221.272 137.888
L221.676 137.891
L222.081 139.072
L223.697 139.096
L224.101 140.25
L224.909 140.269
L226.526 140.459
L227.334 141.457
L228.951 141.605
L229.355 146.33
L229.759 146.338
L230.163 146.604
L230.567 146.684
L231.78 146.756
L232.588 146.972
L233.396 149.517
L235.013 149.618
L235.417 149.685
L235.821 150.956
L236.225 151.027
L237.437 151.09
L237.842 151.939
L238.246 152.293
L238.65 152.48
L239.054 153.63
L239.458 153.929
L240.67 153.936
L241.075 154.579
L241.479 154.862
L243.095 154.862
L243.499 155.018
L243.903 155.346
L244.308 157.042
L245.116 157.139
L245.924 158.284
L246.328 158.439
L246.732 162.54
L248.753 162.671
L249.157 163.263
L249.561 163.574
L249.965 165.546
L250.37 166.138
L251.582 166.138
L252.39 168.722
L254.815 168.874
L255.219 170.895
L256.431 171.016
L257.24 171.092
L258.048 171.794
L260.069 171.896
L260.473 174.795
L262.089 174.918
L262.898 175.318
L263.302 175.394
L263.706 175.959
L264.11 176.031
L264.514 177.466
L266.131 177.583
L266.535 177.869
L267.343 178.089
L268.555 179.321
L269.768 179.669
L270.172 181.15
L271.788 181.179
L272.193 181.463
L273.001 181.507
L273.405 182.07
L275.426 182.152
L275.83 182.296
L276.234 182.296
L277.85 182.934
L278.254 188.845
L280.275 188.986
L280.679 189.32
L281.083 189.913
L281.487 189.926
L282.7 190.92
L283.104 192.266
L284.316 192.491
L285.529 195.343
L285.933 195.344
L287.145 195.868
L288.762 195.923
L289.974 196.563
L291.187 201.7
L291.591 202.446
L291.995 202.449
L292.399 203.787
L292.803 204.225
L294.015 204.236
L294.42 204.52
L295.228 204.594
L295.632 204.763
L296.036 204.763
L297.249 212.347
L297.653 213.069
L298.057 213.268
L299.673 213.275
L300.077 213.568
L301.29 213.716
L302.502 213.858
L303.715 214.639
L304.119 214.791
L305.331 219.526
L305.735 219.818
L306.139 219.854
L306.543 220.025
L308.16 220.282
L308.564 224.051
L309.372 224.165
L309.777 224.382
L310.585 224.383
L310.989 224.701
L311.393 224.715
L311.797 225.006
L315.434 225.063
L316.647 226.057
L317.859 226.14
L318.263 226.746
L319.88 227.208
L320.284 228.933
L320.688 229.068
L323.113 229.165
L323.517 229.312
L323.921 229.889
L324.325 229.889
L325.133 230.172
L325.538 230.193
L325.942 231.469
L326.346 231.472
L326.75 231.988
L331.195 232.126
L332.004 232.417
L332.408 232.426
L333.62 234.68
L334.833 234.719
L335.237 235.938
L336.449 236.532
L337.257 237.253
L338.066 237.94
L339.682 238
L340.086 239.129
L340.49 240.824
L340.894 240.826
L342.107 241.719
L342.511 242.388
L342.915 242.442
L343.723 246.724
L344.936 247.318
L345.34 249.061
L346.552 249.986
L347.765 250.555
L348.573 251.429
L348.977 253.941
L349.381 254.523
L350.998 254.523
L351.806 254.7
L352.21 254.785
L353.827 257.038
L354.635 257.155
L355.039 257.477
L355.847 257.477
L356.251 257.993
L356.655 261.382
L357.06 261.598
L357.464 262.322
L357.868 265.724
L359.08 269.334
L359.484 269.908
L359.889 270.045
L360.293 272.088
L360.697 272.259
L361.909 276.984
L362.313 277.241
L363.122 277.256
L363.526 279.806
L364.334 279.806
L364.738 280.27
L365.142 280.5
L365.546 281.401
L365.95 281.91
L366.355 282.132
L367.567 283.038
L367.971 283.04
L368.375 283.611
L368.779 284.927
L369.183 286.656
L370.8 286.724
L371.204 290.104
L371.608 291.237
L372.012 291.787
L373.225 292.206
L373.629 293.94
L374.437 294.117
L374.841 294.2
L376.054 303.961
L376.458 304.093
L376.862 304.744
L377.266 308.425
L377.67 313.317
L379.287 315.419
L379.691 317.151
L380.095 317.938
L380.499 318.452
L381.711 318.527
L382.116 323.158
L382.52 323.622
L383.328 332.213
L383.732 332.213
L384.945 335.365
L385.753 335.775
L387.369 340.328
L387.773 342.108
L388.178 347.578
L388.582 348.249
L388.986 352.978
L390.198 353.315
L390.602 354.301
L391.006 355.873
L391.411 356.466
L391.815 357.908
L393.027 358.214
L393.431 365.162
L393.835 365.165
L394.239 365.717
L396.664 365.815
L400.301 365.903
L413.234 366.028
L431.419 366.23
L447.989 366.385
L473.045 366.783
L473.449 367.983
L501.738 368.238
L502.142 368.462
L504.163 368.495
L504.567 368.639
L507.8 368.668
L515.478 368.725
L515.882 368.872
L534.876 369.102
L537.301 369.143
L557.912 369.36
L557.912 369.36" style="fill:none;stroke:#008000;stroke-width:3;"/>
   </g>
   <g id="line2d_2">
    <path clip-path="url(#p199fde9080)" d="
M57.1959 176.945
L60.0248 177.128
L60.4289 178.259
L62.8537 178.681
L63.2578 181.073
L64.0661 181.137
L64.4702 181.137
L64.8743 181.731
L65.2785 182.875
L66.0867 183.023
L66.4908 183.361
L67.7032 183.387
L69.3197 183.801
L69.7239 183.801
L70.5321 183.999
L70.9363 184.669
L71.3404 184.718
L71.7445 185.495
L72.1486 185.564
L72.9569 185.568
L73.361 185.736
L73.7652 185.779
L74.1693 186.148
L74.5734 186.313
L74.9775 186.757
L76.1899 186.86
L76.5941 186.943
L76.9982 187.555
L79.0188 187.673
L79.8271 187.938
L80.2312 187.972
L80.6354 188.353
L81.8477 188.408
L82.2519 188.622
L84.2725 188.871
L84.6766 189.043
L85.0808 189.392
L87.5055 189.68
L87.9097 189.915
L89.1221 190.15
L89.9303 190.15
L90.7386 190.422
L91.1427 190.798
L91.5468 190.803
L91.951 190.952
L93.1634 190.964
L94.3757 191.406
L99.2253 191.783
L99.6294 191.925
L101.65 192.082
L104.479 192.968
L104.883 193.015
L105.287 193.353
L105.691 193.353
L106.095 193.47
L107.308 194.166
L107.712 194.197
L108.52 194.365
L108.924 195.152
L110.541 195.641
L110.945 196.087
L113.37 196.281
L113.774 196.597
L114.986 196.704
L115.795 196.745
L116.199 197.03
L117.411 197.163
L119.028 197.245
L119.836 197.441
L120.24 198.213
L120.644 198.213
L121.452 198.542
L121.857 198.867
L122.665 199.038
L123.069 199.606
L125.494 199.917
L125.898 200.188
L127.11 200.462
L127.918 201.035
L129.939 201.122
L130.747 201.38
L132.768 201.477
L134.385 201.956
L136.405 202.054
L138.426 202.146
L138.83 202.744
L140.446 202.971
L141.255 204.123
L142.871 204.391
L144.892 204.666
L145.296 205.96
L145.7 205.975
L146.913 206.386
L147.721 206.484
L148.125 208.843
L149.337 208.843
L150.954 209.362
L152.57 209.621
L153.379 209.918
L153.783 210.304
L154.591 210.304
L155.399 210.921
L155.803 211.065
L158.632 211.221
L159.845 211.481
L161.461 211.545
L162.674 211.826
L165.907 212.489
L167.119 212.645
L169.544 213.002
L169.948 213.242
L170.352 214.474
L171.16 214.76
L173.585 214.98
L173.989 215.082
L175.606 215.576
L176.01 215.591
L176.414 215.927
L178.03 216.05
L178.839 216.327
L180.051 216.504
L181.263 216.731
L181.668 217.35
L183.284 217.43
L183.688 217.774
L184.497 217.919
L186.921 218.191
L187.325 219.477
L188.134 219.738
L189.75 219.837
L190.154 219.856
L190.558 220.188
L192.579 220.554
L192.983 220.579
L193.387 221.208
L195.004 221.35
L195.812 221.555
L196.216 222.236
L197.025 222.28
L197.833 222.615
L198.237 222.918
L204.703 223.82
L206.319 223.837
L206.724 224.414
L207.128 224.478
L207.936 224.746
L209.148 224.764
L209.553 226.251
L209.957 226.311
L210.765 226.589
L211.977 226.653
L212.381 226.951
L212.786 227.036
L213.19 227.237
L213.594 227.944
L215.21 228.016
L215.614 228.088
L216.019 228.274
L217.635 228.424
L218.039 228.838
L218.443 229.479
L219.656 229.697
L221.272 230.518
L222.485 230.761
L223.293 230.797
L223.697 230.936
L224.101 231.265
L226.526 231.541
L226.93 232.165
L227.738 232.708
L229.355 232.851
L229.759 233.09
L230.567 233.385
L232.588 233.545
L234.609 233.855
L235.013 234.147
L235.821 234.451
L236.225 235.213
L237.842 235.391
L239.054 235.784
L239.458 235.784
L240.67 236.012
L241.075 236.699
L241.883 236.748
L243.499 236.771
L243.903 237.038
L244.308 237.644
L245.924 237.885
L246.732 239.086
L247.137 239.289
L249.157 239.435
L249.561 240.059
L250.37 240.386
L251.582 240.397
L252.39 240.694
L252.794 242.139
L254.411 242.238
L254.815 242.92
L255.219 242.922
L255.623 243.118
L257.24 243.331
L258.048 244.186
L259.26 244.218
L260.069 244.888
L260.877 245.025
L261.281 245.121
L261.685 245.543
L263.706 245.651
L264.11 245.699
L264.514 246.174
L266.131 247.267
L266.535 247.373
L266.939 248.037
L267.343 248.243
L268.555 249.392
L270.172 249.614
L274.617 249.884
L275.83 250.399
L277.042 250.464
L277.446 250.686
L280.275 251.027
L281.083 251.289
L281.487 251.323
L282.7 252.507
L283.912 252.722
L284.316 253.064
L285.933 253.157
L286.741 253.58
L288.358 253.671
L289.166 254.064
L289.57 254.082
L289.974 254.264
L291.591 254.288
L292.399 254.438
L292.803 254.48
L296.036 255.21
L298.057 255.498
L298.865 255.581
L300.886 255.719
L302.502 255.762
L302.906 258.048
L303.715 258.185
L304.119 258.315
L305.331 258.398
L305.735 258.568
L306.543 258.599
L306.948 259.185
L308.16 259.263
L308.564 259.43
L310.989 259.621
L311.393 260.217
L312.605 260.381
L313.818 260.743
L314.222 262.103
L316.647 262.592
L317.051 262.62
L317.859 262.835
L318.263 263.172
L319.88 263.278
L320.688 263.766
L321.092 263.768
L322.305 265.013
L323.517 265.302
L323.921 266.04
L325.133 266.148
L325.942 266.445
L326.75 266.649
L328.366 266.807
L328.771 267.147
L329.175 267.243
L329.579 267.861
L331.195 268.262
L331.599 268.901
L332.408 269.17
L333.62 269.228
L334.428 269.601
L334.833 271.024
L335.237 271.222
L337.257 271.487
L337.661 276.181
L339.278 276.401
L339.682 277.032
L340.49 277.412
L340.894 278.023
L342.107 278.236
L343.319 278.948
L343.723 279.004
L345.744 280.056
L346.552 280.292
L347.765 280.66
L348.169 281.27
L348.573 281.316
L348.977 281.795
L349.381 281.795
L351.402 282.488
L351.806 284.206
L352.21 284.963
L353.422 285.047
L353.827 285.489
L354.635 285.547
L355.039 285.682
L355.847 285.683
L356.655 285.886
L357.464 286.015
L357.868 286.36
L359.484 286.535
L361.909 287.214
L362.313 287.247
L362.717 287.74
L363.122 287.801
L363.526 288.131
L364.738 288.235
L365.142 288.901
L365.95 289.1
L366.355 289.319
L367.971 289.707
L369.183 290.524
L370.8 290.76
L372.012 291.501
L373.629 291.695
L374.033 292.012
L374.437 292.077
L374.841 292.416
L376.054 292.472
L376.458 293.007
L377.266 293.236
L377.67 293.681
L379.287 293.822
L379.691 294.311
L380.499 294.492
L381.711 294.544
L382.116 294.693
L384.54 294.923
L384.945 295.123
L385.349 295.18
L385.753 296.091
L386.157 296.353
L390.198 297.084
L390.602 297.339
L391.411 297.474
L391.815 297.646
L393.431 297.779
L394.644 298.153
L396.664 298.465
L397.068 298.942
L399.493 299.031
L399.897 299.151
L400.301 299.533
L401.11 299.533
L401.514 299.724
L401.918 299.774
L402.322 302.225
L403.13 302.473
L404.343 302.524
L404.747 302.798
L405.555 302.946
L405.959 303.67
L407.576 303.814
L408.788 306.036
L410.405 306.797
L411.617 307.15
L415.658 307.576
L416.062 307.639
L416.467 308.133
L416.871 308.184
L417.275 308.369
L418.487 308.369
L419.7 308.787
L420.104 308.825
L421.72 309.199
L422.124 309.219
L422.529 309.445
L424.145 309.527
L424.549 310.127
L425.762 310.359
L427.378 310.94
L427.782 315.587
L428.186 316.009
L428.995 316.009
L431.419 317.027
L434.248 317.516
L435.461 317.543
L436.269 317.854
L437.077 317.939
L442.735 318.603
L443.947 318.655
L444.351 318.945
L445.564 319.2
L447.18 319.3
L447.989 319.448
L448.393 319.504
L450.009 319.575
L450.818 319.809
L455.263 320.162
L458.092 320.552
L458.9 320.748
L461.325 320.876
L461.729 321.25
L462.537 321.606
L464.558 321.719
L465.366 322.107
L466.983 322.251
L468.195 322.562
L469.812 322.695
L471.024 322.867
L472.641 322.956
L473.449 323.187
L473.853 323.231
L475.469 323.836
L475.874 323.856
L476.682 324.013
L478.702 324.383
L479.107 324.671
L479.511 324.679
L481.531 325.2
L482.34 325.748
L483.552 325.839
L483.956 326.231
L484.764 326.313
L485.169 326.49
L486.381 326.518
L486.785 326.801
L487.189 326.862
L487.593 327.811
L487.997 327.907
L489.21 328.524
L489.614 328.991
L490.018 329.054
L490.826 329.455
L492.039 329.547
L492.847 329.806
L493.251 329.869
L493.655 330.331
L495.272 330.511
L495.676 330.86
L496.484 331.03
L498.101 331.093
L499.313 331.502
L500.525 331.621
L500.93 332.184
L502.142 332.674
L504.567 332.887
L504.971 333.068
L506.183 333.175
L506.587 333.811
L507.8 334.031
L509.012 334.156
L509.416 335.768
L510.225 335.906
L510.629 336.091
L511.841 336.146
L512.245 336.384
L513.053 337.188
L514.67 337.3
L516.286 338.267
L517.499 338.392
L517.903 338.808
L519.115 338.993
L520.328 339.1
L520.732 339.485
L521.54 339.766
L523.561 339.891
L523.965 340.142
L524.369 340.183
L524.773 340.546
L525.581 340.546
L526.794 340.855
L527.198 342.076
L528.41 342.107
L529.219 342.465
L529.623 343.986
L530.431 344.152
L532.047 345.364
L532.452 346.064
L533.26 346.316
L534.876 346.503
L535.685 346.976
L536.089 347.474
L538.109 347.684
L538.514 347.986
L540.13 347.986
L540.534 348.373
L541.342 348.638
L541.747 349.096
L543.363 349.694
L544.171 350.328
L546.192 350.456
L546.596 350.971
L547 351.018
L547.404 351.745
L549.021 351.789
L549.425 352.231
L549.829 352.44
L555.083 352.449
L557.912 352.449
L557.912 352.449" style="fill:none;stroke:#0000ff;stroke-width:3;"/>
   </g>
   <g id="line2d_3">
    <path clip-path="url(#p199fde9080)" d="
M57.1959 182.441
L59.6206 182.479
L60.0248 183.097
L62.4495 183.257
L62.8537 183.456
L64.0661 183.529
L64.4702 185.569
L65.2785 185.644
L67.2991 185.811
L67.7032 186.646
L68.1074 186.674
L68.5115 187.606
L72.9569 187.849
L74.1693 187.905
L74.5734 189.147
L75.7858 189.201
L76.1899 189.201
L76.5941 189.787
L76.9982 189.809
L77.4023 190.998
L77.8065 191.003
L79.0188 191.606
L79.8271 191.794
L80.6354 193.162
L82.2519 193.203
L82.656 193.841
L84.6766 193.994
L86.2932 194.117
L89.9303 194.27
L90.3345 194.579
L90.7386 194.598
L91.1427 196.231
L91.5468 196.376
L91.951 197.109
L95.184 197.23
L95.5881 200.045
L97.2046 200.245
L97.6088 200.916
L98.8212 200.96
L99.2253 201.425
L99.6294 201.44
L100.034 201.793
L100.438 201.859
L102.862 201.98
L103.267 202.053
L105.287 202.545
L107.308 202.687
L107.712 202.753
L108.116 203.371
L108.52 203.594
L108.924 203.682
L110.945 203.828
L119.836 204.445
L120.24 208.588
L120.644 208.892
L121.452 208.952
L121.857 209.265
L127.11 209.457
L127.514 210.049
L128.727 210.122
L136.405 210.414
L141.659 211.045
L150.55 211.489
L150.954 211.695
L152.974 211.751
L155.399 211.876
L156.612 211.974
L159.441 212.161
L159.845 212.755
L161.461 212.795
L161.865 213.09
L165.098 213.276
L165.907 213.438
L167.523 213.509
L167.927 214.079
L169.544 214.292
L170.352 214.338
L170.756 215.48
L176.01 215.724
L176.414 216.101
L178.839 216.211
L179.647 220.955
L180.051 220.964
L180.859 223.23
L181.263 223.249
L181.668 224.009
L183.284 224.044
L186.921 224.136
L187.325 224.405
L187.73 224.412
L188.134 224.691
L192.579 224.795
L193.791 224.879
L195.004 224.891
L195.408 225.344
L195.812 225.35
L196.216 225.757
L197.025 225.817
L198.237 225.849
L199.045 226.182
L199.449 226.334
L201.066 226.424
L201.47 226.576
L206.724 226.661
L207.936 226.939
L209.148 226.96
L209.553 228.409
L209.957 228.428
L210.361 229.978
L210.765 230.549
L212.381 230.58
L212.786 230.704
L214.806 230.774
L215.21 230.955
L220.868 231.105
L221.676 231.162
L222.081 231.609
L223.293 231.618
L223.697 231.9
L224.505 232.031
L224.909 232.078
L227.738 232.245
L229.355 232.299
L229.759 232.631
L233.396 232.875
L235.821 232.99
L240.67 233.32
L241.075 233.964
L241.479 234.124
L243.095 234.179
L243.499 234.759
L245.116 234.814
L246.328 235.686
L254.411 235.958
L254.815 236.542
L256.431 236.7
L258.048 236.823
L258.452 239.679
L258.856 240.831
L271.384 241.488
L272.193 241.727
L273.405 241.893
L274.213 244.784
L275.426 244.936
L275.83 245.089
L277.042 245.137
L277.446 245.611
L283.508 245.856
L283.912 246.433
L284.316 246.559
L288.358 246.665
L291.187 247.011
L292.803 247.092
L295.228 247.204
L296.036 247.254
L300.886 247.444
L301.29 247.506
L306.139 247.591
L306.948 247.698
L308.968 247.8
L309.777 247.883
L311.393 247.982
L311.797 248.04
L312.201 248.61
L312.605 250.326
L315.03 250.422
L315.434 252.732
L317.051 252.8
L318.263 253.364
L319.476 253.941
L320.688 253.996
L321.092 254.223
L323.113 254.397
L323.517 263.423
L324.325 263.455
L325.538 263.868
L325.942 263.88
L326.346 264.542
L328.366 264.732
L328.771 265.042
L329.579 265.083
L331.195 265.124
L331.599 268.034
L332.004 269.794
L344.936 270.374
L346.148 270.655
L346.552 271.798
L348.169 271.86
L348.977 271.952
L350.594 271.994
L350.998 274.979
L352.21 275.177
L353.422 275.195
L353.827 275.37
L354.231 275.389
L354.635 275.785
L355.847 275.79
L356.251 275.928
L356.655 275.935
L357.06 280.467
L361.909 281.03
L362.313 281.184
L364.738 281.302
L365.546 281.948
L365.95 282.009
L366.355 286.658
L371.608 286.875
L372.012 286.923
L374.841 287.023
L380.095 287.258
L380.499 287.48
L384.945 287.571
L386.157 287.636
L388.178 287.727
L388.582 287.895
L391.006 287.936
L393.027 288.011
L395.856 288.201
L396.664 288.222
L397.068 288.507
L397.473 288.522
L398.685 289.31
L401.514 289.374
L401.918 289.661
L405.959 289.8
L407.172 291.494
L408.384 291.68
L408.788 291.762
L411.617 291.947
L418.891 292.058
L442.331 292.665
L449.605 292.888
L451.222 293.103
L452.434 293.103
L452.838 293.702
L456.879 293.906
L458.496 294.196
L458.9 295.335
L461.729 295.373
L462.133 296.084
L462.537 296.156
L464.154 296.296
L464.558 296.596
L468.195 296.707
L469.812 297.024
L471.024 297.12
L475.874 297.233
L476.682 297.301
L479.511 297.368
L482.34 297.573
L489.21 297.742
L490.422 297.849
L490.826 298.977
L501.738 299.296
L502.142 299.359
L504.567 299.391
L504.971 299.537
L509.416 299.628
L513.053 299.92
L513.458 300.031
L516.286 300.134
L517.903 300.407
L523.157 300.623
L523.561 300.757
L523.965 304.501
L524.369 305.664
L530.027 305.937
L530.431 306.171
L533.26 306.273
L535.685 306.406
L536.089 306.986
L538.918 307.061
L540.938 307.488
L544.575 307.814
L545.788 307.83
L546.596 310.404
L547.809 310.469
L548.617 310.936
L550.233 311.002
L551.446 311.017
L551.85 311.161
L552.254 313.431
L554.275 313.556
L554.679 327.575
L557.912 327.757
L557.912 327.757" style="fill:none;stroke:#ff0000;stroke-width:3;"/>
   </g>
   <g id="line2d_4">
    <path clip-path="url(#p199fde9080)" d="
M57.1959 325.936
L59.2165 325.936
L59.6206 326.218
L66.0867 326.257
L66.895 326.338
L72.9569 326.467
L73.361 326.748
L91.1427 326.842
L93.9716 326.862
L102.054 326.914
L102.458 328.075
L106.095 328.081
L107.308 329.207
L128.323 329.315
L133.98 329.343
L154.591 329.445
L173.989 329.695
L175.606 329.978
L181.668 330.027
L182.072 331.382
L188.942 331.492
L189.75 331.566
L196.216 331.595
L196.62 332.168
L204.299 332.19
L204.703 332.331
L207.532 332.343
L207.936 332.484
L220.868 332.588
L224.909 332.668
L230.567 332.718
L231.78 333.352
L234.609 333.384
L243.499 333.49
L243.903 333.79
L251.582 333.916
L253.198 333.937
L254.411 336.189
L258.048 336.247
L258.856 336.334
L264.11 336.443
L264.514 337.077
L271.788 337.122
L272.193 337.263
L280.275 337.334
L280.679 337.493
L283.104 337.518
L283.508 338.081
L311.393 338.278
L311.797 338.852
L319.88 338.883
L320.284 339.447
L331.599 339.486
L332.004 339.772
L336.853 339.825
L337.661 339.9
L339.278 339.907
L339.682 340.479
L345.34 340.605
L345.744 340.886
L348.169 340.892
L348.573 341.182
L350.998 341.182
L351.402 341.481
L353.827 341.505
L354.231 341.648
L357.464 341.704
L357.868 341.761
L379.691 341.922
L380.095 342.491
L383.328 342.498
L383.732 343.624
L390.198 343.683
L390.602 344.316
L404.343 344.42
L405.151 344.495
L407.172 344.497
L407.576 346.76
L410.405 346.778
L410.809 347.341
L412.829 347.355
L413.234 347.498
L413.638 348.061
L414.042 350.383
L418.083 350.491
L439.906 350.684
L449.605 350.792
L468.195 350.893
L471.024 350.945
L473.853 351.029
L487.189 351.124
L487.997 351.159
L498.505 351.284
L499.313 351.319
L521.54 351.391
L521.944 351.532
L547.809 351.642
L551.85 351.694
L552.254 351.993
L555.487 352.028
L555.891 352.107
L557.912 352.111
L557.912 352.111" style="fill:none;stroke:#ff00ff;stroke-width:3;"/>
   </g>
   <g id="line2d_5">
    <path clip-path="url(#p199fde9080)" d="
M57.1959 297.63
L58.0041 297.788
L58.4083 297.788
L68.1074 297.897
L69.7239 297.905
L70.9363 298.046
L79.423 298.097
L79.8271 298.24
L86.2932 298.321
L88.3138 298.449
L89.1221 298.52
L95.5881 298.627
L98.417 298.79
L100.034 298.795
L100.438 298.964
L102.054 299.175
L102.862 299.191
L103.267 299.332
L104.883 299.473
L105.287 299.757
L110.541 299.821
L110.945 302.073
L112.966 302.082
L113.37 302.368
L120.644 302.419
L122.261 302.558
L128.323 302.624
L128.727 302.703
L136.001 302.741
L137.213 303.22
L139.234 303.221
L139.638 303.441
L145.296 303.537
L146.913 303.577
L150.55 303.599
L150.954 303.74
L156.207 303.836
L156.612 304.12
L157.016 304.12
L158.632 304.415
L159.845 304.428
L161.057 306.75
L165.907 306.806
L166.715 307.149
L170.756 307.206
L171.16 307.283
L175.202 307.287
L175.606 307.569
L179.243 307.622
L182.072 307.64
L182.476 307.781
L186.921 307.855
L187.325 308.438
L188.134 308.517
L188.942 308.517
L189.346 308.799
L215.614 309.15
L216.423 309.26
L224.101 309.356
L224.909 309.422
L228.951 309.43
L229.355 309.999
L229.759 312.251
L230.567 312.295
L232.588 312.396
L232.992 312.783
L233.396 312.821
L243.095 312.88
L243.499 313.026
L250.37 313.121
L252.39 313.223
L253.198 313.318
L257.24 313.322
L257.644 313.463
L258.048 313.465
L258.452 313.676
L262.089 313.682
L262.898 313.964
L266.131 313.972
L266.535 314.447
L267.343 314.675
L269.768 314.698
L270.172 314.856
L273.405 315.156
L280.679 315.206
L281.083 317.458
L288.358 317.548
L288.762 317.849
L291.187 317.92
L291.591 318.07
L291.995 318.078
L292.399 318.25
L298.057 318.37
L298.865 318.478
L301.29 318.57
L304.119 318.645
L310.989 318.736
L315.03 318.992
L325.538 319.078
L325.942 321.349
L329.579 321.435
L332.408 321.551
L340.49 321.638
L340.894 322.773
L353.827 322.846
L354.231 325.133
L355.039 325.21
L357.06 325.212
L357.464 325.564
L359.08 325.564
L359.484 325.723
L360.293 325.724
L360.697 326.253
L361.909 326.253
L362.313 326.428
L363.526 326.468
L371.608 326.51
L372.012 326.651
L380.499 326.869
L381.711 326.869
L382.116 327.054
L385.753 327.196
L386.157 327.477
L388.178 327.614
L388.582 327.826
L391.006 328.196
L401.11 328.49
L401.514 329.053
L401.918 329.054
L402.322 331.307
L405.555 331.38
L405.959 331.45
L410.809 331.549
L411.617 331.626
L414.446 331.664
L415.658 333.916
L423.741 334.158
L424.145 334.448
L427.782 334.49
L428.186 334.925
L428.995 334.929
L429.803 336.478
L430.611 336.548
L431.015 336.562
L431.419 336.85
L437.077 336.888
L439.502 337.009
L445.564 337.026
L447.585 337.17
L450.009 337.172
L450.818 337.431
L452.838 337.447
L453.242 337.588
L453.646 337.588
L454.051 337.729
L455.263 339.981
L456.879 340.065
L458.092 341.204
L459.304 341.312
L461.729 341.312
L462.133 341.875
L466.579 341.923
L466.983 342.277
L469.812 342.419
L470.62 342.595
L473.853 342.615
L476.682 342.63
L477.894 343.197
L489.21 343.259
L489.614 343.429
L490.018 343.466
L490.422 343.713
L492.847 343.72
L493.251 344.142
L494.868 344.154
L495.272 344.295
L498.101 344.343
L498.505 344.629
L499.313 344.647
L500.525 346.899
L501.334 346.901
L501.738 347.077
L502.142 347.077
L503.354 347.64
L504.971 347.751
L518.307 347.88
L519.115 347.981
L528.41 348.041
L529.219 348.113
L530.027 348.115
L530.431 348.72
L534.472 348.818
L535.281 348.891
L536.089 348.908
L537.705 349.194
L541.747 349.326
L545.788 349.584
L546.192 349.584
L546.596 351.847
L553.062 351.897
L555.487 352.088
L557.912 352.094
L557.912 352.094" style="fill:none;stroke:#ffa500;stroke-width:3;"/>
   </g>
   <g id="matplotlib.axis_1">
    <g id="xtick_1">
     <g id="line2d_6">
      <path clip-path="url(#p199fde9080)" d="
M57.6 388.8
L57.6 12.96" style="fill:none;stroke:#000000;stroke-dasharray:1.000000,3.000000;stroke-dashoffset:0.0;stroke-linecap:butt;stroke-width:0.5;"/>
     </g>
     <g id="line2d_7">
      <defs>
       <path d="
M0 0
L0 -4" id="m0012dd4eef" style="stroke:#000000;stroke-linecap:butt;stroke-width:0.5;"/>
      </defs>
      <g>
       <use style="stroke:#000000;stroke-linecap:butt;stroke-width:0.5;" x="57.5999999999" xlink:href="#m0012dd4eef" y="388.8"/>
      </g>
     </g>
     <g id="line2d_8">
      <defs>
       <path d="
M0 0
L0 4" id="m476344969c" style="stroke:#000000;stroke-linecap:butt;stroke-width:0.5;"/>
      </defs>
      <g>
       <use style="stroke:#000000;stroke-linecap:butt;stroke-width:0.5;" x="57.5999999999" xlink:href="#m476344969c" y="12.96"/>
      </g>
     </g>
     <g id="text_1">
      <!-- 2009 -->
      <defs>
       <path d="
M10.0156 1.60938
L10.0156 15.0938
Q14.5 12.9844 18.5938 11.9375
Q22.7031 10.8906 26.7031 10.8906
Q35.1094 10.8906 39.7969 15.5469
Q44.4844 20.2188 45.3125 29.3906
Q42 26.9531 38.2344 25.7344
Q34.4688 24.5156 30.0781 24.5156
Q18.8906 24.5156 12.0312 31.0312
Q5.17188 37.5469 5.17188 48.1875
Q5.17188 59.9688 12.8125 67.0469
Q20.4531 74.125 33.2969 74.125
Q47.5625 74.125 55.375 64.5
Q63.1875 54.8906 63.1875 37.3125
Q63.1875 19.2344 54.0469 8.90625
Q44.9219 -1.42188 29 -1.42188
Q23.875 -1.42188 19.1875 -0.65625
Q14.5 0.09375 10.0156 1.60938
M33.2031 36.7188
Q38.1406 36.7188 40.625 39.9062
Q43.1094 43.1094 43.1094 49.5156
Q43.1094 55.8594 40.625 59.0781
Q38.1406 62.3125 33.2031 62.3125
Q28.2656 62.3125 25.7812 59.0781
Q23.2969 55.8594 23.2969 49.5156
Q23.2969 43.1094 25.7812 39.9062
Q28.2656 36.7188 33.2031 36.7188" id="BitstreamVeraSans-Bold-39"/>
       <path d="
M46 36.5312
Q46 50.2031 43.4375 55.7812
Q40.875 61.375 34.8125 61.375
Q28.7656 61.375 26.1719 55.7812
Q23.5781 50.2031 23.5781 36.5312
Q23.5781 22.7031 26.1719 17.0312
Q28.7656 11.375 34.8125 11.375
Q40.8281 11.375 43.4062 17.0312
Q46 22.7031 46 36.5312
M64.7969 36.375
Q64.7969 18.2656 56.9844 8.42188
Q49.1719 -1.42188 34.8125 -1.42188
Q20.4062 -1.42188 12.5938 8.42188
Q4.78125 18.2656 4.78125 36.375
Q4.78125 54.5469 12.5938 64.375
Q20.4062 74.2188 34.8125 74.2188
Q49.1719 74.2188 56.9844 64.375
Q64.7969 54.5469 64.7969 36.375" id="BitstreamVeraSans-Bold-30"/>
       <path d="
M28.8125 13.8125
L60.8906 13.8125
L60.8906 0
L7.90625 0
L7.90625 13.8125
L34.5156 37.3125
Q38.0938 40.5312 39.7969 43.6094
Q41.5 46.6875 41.5 50
Q41.5 55.125 38.0625 58.25
Q34.625 61.375 28.9062 61.375
Q24.5156 61.375 19.2812 59.5
Q14.0625 57.625 8.10938 53.9062
L8.10938 69.9219
Q14.4531 72.0156 20.6562 73.1094
Q26.8594 74.2188 32.8125 74.2188
Q45.9062 74.2188 53.1562 68.4531
Q60.4062 62.7031 60.4062 52.3906
Q60.4062 46.4375 57.3281 41.2812
Q54.25 36.1406 44.3906 27.4844
z
" id="BitstreamVeraSans-Bold-32"/>
      </defs>
      <g transform="translate(16.4440371156 428.096675255)rotate(-30.0)scale(0.18 -0.18)">
       <use xlink:href="#BitstreamVeraSans-Bold-32"/>
       <use x="69.580078125" xlink:href="#BitstreamVeraSans-Bold-30"/>
       <use x="139.16015625" xlink:href="#BitstreamVeraSans-Bold-30"/>
       <use x="208.740234375" xlink:href="#BitstreamVeraSans-Bold-39"/>
      </g>
     </g>
    </g>
    <g id="xtick_2">
     <g id="line2d_9">
      <path clip-path="url(#p199fde9080)" d="
M205.107 388.8
L205.107 12.96" style="fill:none;stroke:#000000;stroke-dasharray:1.000000,3.000000;stroke-dashoffset:0.0;stroke-linecap:butt;stroke-width:0.5;"/>
     </g>
     <g id="line2d_10">
      <g>
       <use style="stroke:#000000;stroke-linecap:butt;stroke-width:0.5;" x="205.107096774" xlink:href="#m0012dd4eef" y="388.8"/>
      </g>
     </g>
     <g id="line2d_11">
      <g>
       <use style="stroke:#000000;stroke-linecap:butt;stroke-width:0.5;" x="205.107096774" xlink:href="#m476344969c" y="12.96"/>
      </g>
     </g>
     <g id="text_2">
      <!-- 2010 -->
      <defs>
       <path d="
M11.7188 12.9844
L28.3281 12.9844
L28.3281 60.1094
L11.2812 56.5938
L11.2812 69.3906
L28.2188 72.9062
L46.0938 72.9062
L46.0938 12.9844
L62.7031 12.9844
L62.7031 0
L11.7188 0
z
" id="BitstreamVeraSans-Bold-31"/>
      </defs>
      <g transform="translate(163.700257156 428.241519005)rotate(-30.0)scale(0.18 -0.18)">
       <use xlink:href="#BitstreamVeraSans-Bold-32"/>
       <use x="69.580078125" xlink:href="#BitstreamVeraSans-Bold-30"/>
       <use x="139.16015625" xlink:href="#BitstreamVeraSans-Bold-31"/>
       <use x="208.740234375" xlink:href="#BitstreamVeraSans-Bold-30"/>
      </g>
     </g>
    </g>
    <g id="xtick_3">
     <g id="line2d_12">
      <path clip-path="url(#p199fde9080)" d="
M352.614 388.8
L352.614 12.96" style="fill:none;stroke:#000000;stroke-dasharray:1.000000,3.000000;stroke-dashoffset:0.0;stroke-linecap:butt;stroke-width:0.5;"/>
     </g>
     <g id="line2d_13">
      <g>
       <use style="stroke:#000000;stroke-linecap:butt;stroke-width:0.5;" x="352.614193548" xlink:href="#m0012dd4eef" y="388.8"/>
      </g>
     </g>
     <g id="line2d_14">
      <g>
       <use style="stroke:#000000;stroke-linecap:butt;stroke-width:0.5;" x="352.614193548" xlink:href="#m476344969c" y="12.96"/>
      </g>
     </g>
     <g id="text_3">
      <!-- 2011 -->
      <g transform="translate(311.533737254 428.053081505)rotate(-30.0)scale(0.18 -0.18)">
       <use xlink:href="#BitstreamVeraSans-Bold-32"/>
       <use x="69.580078125" xlink:href="#BitstreamVeraSans-Bold-30"/>
       <use x="139.16015625" xlink:href="#BitstreamVeraSans-Bold-31"/>
       <use x="208.740234375" xlink:href="#BitstreamVeraSans-Bold-31"/>
      </g>
     </g>
    </g>
    <g id="xtick_4">
     <g id="line2d_15">
      <path clip-path="url(#p199fde9080)" d="
M500.121 388.8
L500.121 12.96" style="fill:none;stroke:#000000;stroke-dasharray:1.000000,3.000000;stroke-dashoffset:0.0;stroke-linecap:butt;stroke-width:0.5;"/>
     </g>
     <g id="line2d_16">
      <g>
       <use style="stroke:#000000;stroke-linecap:butt;stroke-width:0.5;" x="500.121290323" xlink:href="#m0012dd4eef" y="388.8"/>
      </g>
     </g>
     <g id="line2d_17">
      <g>
       <use style="stroke:#000000;stroke-linecap:butt;stroke-width:0.5;" x="500.121290323" xlink:href="#m476344969c" y="12.96"/>
      </g>
     </g>
     <g id="text_4">
      <!-- 2012 -->
      <g transform="translate(459.323374816 427.889956505)rotate(-30.0)scale(0.18 -0.18)">
       <use xlink:href="#BitstreamVeraSans-Bold-32"/>
       <use x="69.580078125" xlink:href="#BitstreamVeraSans-Bold-30"/>
       <use x="139.16015625" xlink:href="#BitstreamVeraSans-Bold-31"/>
       <use x="208.740234375" xlink:href="#BitstreamVeraSans-Bold-32"/>
      </g>
     </g>
    </g>
    <g id="xtick_5">
     <g id="line2d_18">
      <defs>
       <path d="
M0 0
L0 -2" id="m69b1a1edd1" style="stroke:#000000;stroke-linecap:butt;stroke-width:0.5;"/>
      </defs>
      <g>
       <use style="stroke:#000000;stroke-linecap:butt;stroke-width:0.5;" x="57.5999999999" xlink:href="#m69b1a1edd1" y="388.8"/>
      </g>
     </g>
     <g id="line2d_19">
      <defs>
       <path d="
M0 0
L0 2" id="m9ad4d917ad" style="stroke:#000000;stroke-linecap:butt;stroke-width:0.5;"/>
      </defs>
      <g>
       <use style="stroke:#000000;stroke-linecap:butt;stroke-width:0.5;" x="57.5999999999" xlink:href="#m9ad4d917ad" y="12.96"/>
      </g>
     </g>
    </g>
    <g id="xtick_6">
     <g id="line2d_20">
      <g>
       <use style="stroke:#000000;stroke-linecap:butt;stroke-width:0.5;" x="70.128" xlink:href="#m69b1a1edd1" y="388.8"/>
      </g>
     </g>
     <g id="line2d_21">
      <g>
       <use style="stroke:#000000;stroke-linecap:butt;stroke-width:0.5;" x="70.128" xlink:href="#m9ad4d917ad" y="12.96"/>
      </g>
     </g>
    </g>
    <g id="xtick_7">
     <g id="line2d_22">
      <g>
       <use style="stroke:#000000;stroke-linecap:butt;stroke-width:0.5;" x="81.4436129032" xlink:href="#m69b1a1edd1" y="388.8"/>
      </g>
     </g>
     <g id="line2d_23">
      <g>
       <use style="stroke:#000000;stroke-linecap:butt;stroke-width:0.5;" x="81.4436129032" xlink:href="#m9ad4d917ad" y="12.96"/>
      </g>
     </g>
    </g>
    <g id="xtick_8">
     <g id="line2d_24">
      <g>
       <use style="stroke:#000000;stroke-linecap:butt;stroke-width:0.5;" x="93.9716129032" xlink:href="#m69b1a1edd1" y="388.8"/>
      </g>
     </g>
     <g id="line2d_25">
      <g>
       <use style="stroke:#000000;stroke-linecap:butt;stroke-width:0.5;" x="93.9716129032" xlink:href="#m9ad4d917ad" y="12.96"/>
      </g>
     </g>
    </g>
    <g id="xtick_9">
     <g id="line2d_26">
      <g>
       <use style="stroke:#000000;stroke-linecap:butt;stroke-width:0.5;" x="106.095483871" xlink:href="#m69b1a1edd1" y="388.8"/>
      </g>
     </g>
     <g id="line2d_27">
      <g>
       <use style="stroke:#000000;stroke-linecap:butt;stroke-width:0.5;" x="106.095483871" xlink:href="#m9ad4d917ad" y="12.96"/>
      </g>
     </g>
    </g>
    <g id="xtick_10">
     <g id="line2d_28">
      <g>
       <use style="stroke:#000000;stroke-linecap:butt;stroke-width:0.5;" x="118.623483871" xlink:href="#m69b1a1edd1" y="388.8"/>
      </g>
     </g>
     <g id="line2d_29">
      <g>
       <use style="stroke:#000000;stroke-linecap:butt;stroke-width:0.5;" x="118.623483871" xlink:href="#m9ad4d917ad" y="12.96"/>
      </g>
     </g>
    </g>
    <g id="xtick_11">
     <g id="line2d_30">
      <g>
       <use style="stroke:#000000;stroke-linecap:butt;stroke-width:0.5;" x="130.747354839" xlink:href="#m69b1a1edd1" y="388.8"/>
      </g>
     </g>
     <g id="line2d_31">
      <g>
       <use style="stroke:#000000;stroke-linecap:butt;stroke-width:0.5;" x="130.747354839" xlink:href="#m9ad4d917ad" y="12.96"/>
      </g>
     </g>
    </g>
    <g id="xtick_12">
     <g id="line2d_32">
      <g>
       <use style="stroke:#000000;stroke-linecap:butt;stroke-width:0.5;" x="143.275354839" xlink:href="#m69b1a1edd1" y="388.8"/>
      </g>
     </g>
     <g id="line2d_33">
      <g>
       <use style="stroke:#000000;stroke-linecap:butt;stroke-width:0.5;" x="143.275354839" xlink:href="#m9ad4d917ad" y="12.96"/>
      </g>
     </g>
    </g>
    <g id="xtick_13">
     <g id="line2d_34">
      <g>
       <use style="stroke:#000000;stroke-linecap:butt;stroke-width:0.5;" x="155.803354839" xlink:href="#m69b1a1edd1" y="388.8"/>
      </g>
     </g>
     <g id="line2d_35">
      <g>
       <use style="stroke:#000000;stroke-linecap:butt;stroke-width:0.5;" x="155.803354839" xlink:href="#m9ad4d917ad" y="12.96"/>
      </g>
     </g>
    </g>
    <g id="xtick_14">
     <g id="line2d_36">
      <g>
       <use style="stroke:#000000;stroke-linecap:butt;stroke-width:0.5;" x="167.927225806" xlink:href="#m69b1a1edd1" y="388.8"/>
      </g>
     </g>
     <g id="line2d_37">
      <g>
       <use style="stroke:#000000;stroke-linecap:butt;stroke-width:0.5;" x="167.927225806" xlink:href="#m9ad4d917ad" y="12.96"/>
      </g>
     </g>
    </g>
    <g id="xtick_15">
     <g id="line2d_38">
      <g>
       <use style="stroke:#000000;stroke-linecap:butt;stroke-width:0.5;" x="180.455225806" xlink:href="#m69b1a1edd1" y="388.8"/>
      </g>
     </g>
     <g id="line2d_39">
      <g>
       <use style="stroke:#000000;stroke-linecap:butt;stroke-width:0.5;" x="180.455225806" xlink:href="#m9ad4d917ad" y="12.96"/>
      </g>
     </g>
    </g>
    <g id="xtick_16">
     <g id="line2d_40">
      <g>
       <use style="stroke:#000000;stroke-linecap:butt;stroke-width:0.5;" x="192.579096774" xlink:href="#m69b1a1edd1" y="388.8"/>
      </g>
     </g>
     <g id="line2d_41">
      <g>
       <use style="stroke:#000000;stroke-linecap:butt;stroke-width:0.5;" x="192.579096774" xlink:href="#m9ad4d917ad" y="12.96"/>
      </g>
     </g>
    </g>
    <g id="xtick_17">
     <g id="line2d_42">
      <g>
       <use style="stroke:#000000;stroke-linecap:butt;stroke-width:0.5;" x="205.107096774" xlink:href="#m69b1a1edd1" y="388.8"/>
      </g>
     </g>
     <g id="line2d_43">
      <g>
       <use style="stroke:#000000;stroke-linecap:butt;stroke-width:0.5;" x="205.107096774" xlink:href="#m9ad4d917ad" y="12.96"/>
      </g>
     </g>
    </g>
    <g id="xtick_18">
     <g id="line2d_44">
      <g>
       <use style="stroke:#000000;stroke-linecap:butt;stroke-width:0.5;" x="217.635096774" xlink:href="#m69b1a1edd1" y="388.8"/>
      </g>
     </g>
     <g id="line2d_45">
      <g>
       <use style="stroke:#000000;stroke-linecap:butt;stroke-width:0.5;" x="217.635096774" xlink:href="#m9ad4d917ad" y="12.96"/>
      </g>
     </g>
    </g>
    <g id="xtick_19">
     <g id="line2d_46">
      <g>
       <use style="stroke:#000000;stroke-linecap:butt;stroke-width:0.5;" x="228.950709677" xlink:href="#m69b1a1edd1" y="388.8"/>
      </g>
     </g>
     <g id="line2d_47">
      <g>
       <use style="stroke:#000000;stroke-linecap:butt;stroke-width:0.5;" x="228.950709677" xlink:href="#m9ad4d917ad" y="12.96"/>
      </g>
     </g>
    </g>
    <g id="xtick_20">
     <g id="line2d_48">
      <g>
       <use style="stroke:#000000;stroke-linecap:butt;stroke-width:0.5;" x="241.478709677" xlink:href="#m69b1a1edd1" y="388.8"/>
      </g>
     </g>
     <g id="line2d_49">
      <g>
       <use style="stroke:#000000;stroke-linecap:butt;stroke-width:0.5;" x="241.478709677" xlink:href="#m9ad4d917ad" y="12.96"/>
      </g>
     </g>
    </g>
    <g id="xtick_21">
     <g id="line2d_50">
      <g>
       <use style="stroke:#000000;stroke-linecap:butt;stroke-width:0.5;" x="253.602580645" xlink:href="#m69b1a1edd1" y="388.8"/>
      </g>
     </g>
     <g id="line2d_51">
      <g>
       <use style="stroke:#000000;stroke-linecap:butt;stroke-width:0.5;" x="253.602580645" xlink:href="#m9ad4d917ad" y="12.96"/>
      </g>
     </g>
    </g>
    <g id="xtick_22">
     <g id="line2d_52">
      <g>
       <use style="stroke:#000000;stroke-linecap:butt;stroke-width:0.5;" x="266.130580645" xlink:href="#m69b1a1edd1" y="388.8"/>
      </g>
     </g>
     <g id="line2d_53">
      <g>
       <use style="stroke:#000000;stroke-linecap:butt;stroke-width:0.5;" x="266.130580645" xlink:href="#m9ad4d917ad" y="12.96"/>
      </g>
     </g>
    </g>
    <g id="xtick_23">
     <g id="line2d_54">
      <g>
       <use style="stroke:#000000;stroke-linecap:butt;stroke-width:0.5;" x="278.254451613" xlink:href="#m69b1a1edd1" y="388.8"/>
      </g>
     </g>
     <g id="line2d_55">
      <g>
       <use style="stroke:#000000;stroke-linecap:butt;stroke-width:0.5;" x="278.254451613" xlink:href="#m9ad4d917ad" y="12.96"/>
      </g>
     </g>
    </g>
    <g id="xtick_24">
     <g id="line2d_56">
      <g>
       <use style="stroke:#000000;stroke-linecap:butt;stroke-width:0.5;" x="290.782451613" xlink:href="#m69b1a1edd1" y="388.8"/>
      </g>
     </g>
     <g id="line2d_57">
      <g>
       <use style="stroke:#000000;stroke-linecap:butt;stroke-width:0.5;" x="290.782451613" xlink:href="#m9ad4d917ad" y="12.96"/>
      </g>
     </g>
    </g>
    <g id="xtick_25">
     <g id="line2d_58">
      <g>
       <use style="stroke:#000000;stroke-linecap:butt;stroke-width:0.5;" x="303.310451613" xlink:href="#m69b1a1edd1" y="388.8"/>
      </g>
     </g>
     <g id="line2d_59">
      <g>
       <use style="stroke:#000000;stroke-linecap:butt;stroke-width:0.5;" x="303.310451613" xlink:href="#m9ad4d917ad" y="12.96"/>
      </g>
     </g>
    </g>
    <g id="xtick_26">
     <g id="line2d_60">
      <g>
       <use style="stroke:#000000;stroke-linecap:butt;stroke-width:0.5;" x="315.434322581" xlink:href="#m69b1a1edd1" y="388.8"/>
      </g>
     </g>
     <g id="line2d_61">
      <g>
       <use style="stroke:#000000;stroke-linecap:butt;stroke-width:0.5;" x="315.434322581" xlink:href="#m9ad4d917ad" y="12.96"/>
      </g>
     </g>
    </g>
    <g id="xtick_27">
     <g id="line2d_62">
      <g>
       <use style="stroke:#000000;stroke-linecap:butt;stroke-width:0.5;" x="327.962322581" xlink:href="#m69b1a1edd1" y="388.8"/>
      </g>
     </g>
     <g id="line2d_63">
      <g>
       <use style="stroke:#000000;stroke-linecap:butt;stroke-width:0.5;" x="327.962322581" xlink:href="#m9ad4d917ad" y="12.96"/>
      </g>
     </g>
    </g>
    <g id="xtick_28">
     <g id="line2d_64">
      <g>
       <use style="stroke:#000000;stroke-linecap:butt;stroke-width:0.5;" x="340.086193548" xlink:href="#m69b1a1edd1" y="388.8"/>
      </g>
     </g>
     <g id="line2d_65">
      <g>
       <use style="stroke:#000000;stroke-linecap:butt;stroke-width:0.5;" x="340.086193548" xlink:href="#m9ad4d917ad" y="12.96"/>
      </g>
     </g>
    </g>
    <g id="xtick_29">
     <g id="line2d_66">
      <g>
       <use style="stroke:#000000;stroke-linecap:butt;stroke-width:0.5;" x="352.614193548" xlink:href="#m69b1a1edd1" y="388.8"/>
      </g>
     </g>
     <g id="line2d_67">
      <g>
       <use style="stroke:#000000;stroke-linecap:butt;stroke-width:0.5;" x="352.614193548" xlink:href="#m9ad4d917ad" y="12.96"/>
      </g>
     </g>
    </g>
    <g id="xtick_30">
     <g id="line2d_68">
      <g>
       <use style="stroke:#000000;stroke-linecap:butt;stroke-width:0.5;" x="365.142193548" xlink:href="#m69b1a1edd1" y="388.8"/>
      </g>
     </g>
     <g id="line2d_69">
      <g>
       <use style="stroke:#000000;stroke-linecap:butt;stroke-width:0.5;" x="365.142193548" xlink:href="#m9ad4d917ad" y="12.96"/>
      </g>
     </g>
    </g>
    <g id="xtick_31">
     <g id="line2d_70">
      <g>
       <use style="stroke:#000000;stroke-linecap:butt;stroke-width:0.5;" x="376.457806452" xlink:href="#m69b1a1edd1" y="388.8"/>
      </g>
     </g>
     <g id="line2d_71">
      <g>
       <use style="stroke:#000000;stroke-linecap:butt;stroke-width:0.5;" x="376.457806452" xlink:href="#m9ad4d917ad" y="12.96"/>
      </g>
     </g>
    </g>
    <g id="xtick_32">
     <g id="line2d_72">
      <g>
       <use style="stroke:#000000;stroke-linecap:butt;stroke-width:0.5;" x="388.985806452" xlink:href="#m69b1a1edd1" y="388.8"/>
      </g>
     </g>
     <g id="line2d_73">
      <g>
       <use style="stroke:#000000;stroke-linecap:butt;stroke-width:0.5;" x="388.985806452" xlink:href="#m9ad4d917ad" y="12.96"/>
      </g>
     </g>
    </g>
    <g id="xtick_33">
     <g id="line2d_74">
      <g>
       <use style="stroke:#000000;stroke-linecap:butt;stroke-width:0.5;" x="401.109677419" xlink:href="#m69b1a1edd1" y="388.8"/>
      </g>
     </g>
     <g id="line2d_75">
      <g>
       <use style="stroke:#000000;stroke-linecap:butt;stroke-width:0.5;" x="401.109677419" xlink:href="#m9ad4d917ad" y="12.96"/>
      </g>
     </g>
    </g>
    <g id="xtick_34">
     <g id="line2d_76">
      <g>
       <use style="stroke:#000000;stroke-linecap:butt;stroke-width:0.5;" x="413.637677419" xlink:href="#m69b1a1edd1" y="388.8"/>
      </g>
     </g>
     <g id="line2d_77">
      <g>
       <use style="stroke:#000000;stroke-linecap:butt;stroke-width:0.5;" x="413.637677419" xlink:href="#m9ad4d917ad" y="12.96"/>
      </g>
     </g>
    </g>
    <g id="xtick_35">
     <g id="line2d_78">
      <g>
       <use style="stroke:#000000;stroke-linecap:butt;stroke-width:0.5;" x="425.761548387" xlink:href="#m69b1a1edd1" y="388.8"/>
      </g>
     </g>
     <g id="line2d_79">
      <g>
       <use style="stroke:#000000;stroke-linecap:butt;stroke-width:0.5;" x="425.761548387" xlink:href="#m9ad4d917ad" y="12.96"/>
      </g>
     </g>
    </g>
    <g id="xtick_36">
     <g id="line2d_80">
      <g>
       <use style="stroke:#000000;stroke-linecap:butt;stroke-width:0.5;" x="438.289548387" xlink:href="#m69b1a1edd1" y="388.8"/>
      </g>
     </g>
     <g id="line2d_81">
      <g>
       <use style="stroke:#000000;stroke-linecap:butt;stroke-width:0.5;" x="438.289548387" xlink:href="#m9ad4d917ad" y="12.96"/>
      </g>
     </g>
    </g>
    <g id="xtick_37">
     <g id="line2d_82">
      <g>
       <use style="stroke:#000000;stroke-linecap:butt;stroke-width:0.5;" x="450.817548387" xlink:href="#m69b1a1edd1" y="388.8"/>
      </g>
     </g>
     <g id="line2d_83">
      <g>
       <use style="stroke:#000000;stroke-linecap:butt;stroke-width:0.5;" x="450.817548387" xlink:href="#m9ad4d917ad" y="12.96"/>
      </g>
     </g>
    </g>
    <g id="xtick_38">
     <g id="line2d_84">
      <g>
       <use style="stroke:#000000;stroke-linecap:butt;stroke-width:0.5;" x="462.941419355" xlink:href="#m69b1a1edd1" y="388.8"/>
      </g>
     </g>
     <g id="line2d_85">
      <g>
       <use style="stroke:#000000;stroke-linecap:butt;stroke-width:0.5;" x="462.941419355" xlink:href="#m9ad4d917ad" y="12.96"/>
      </g>
     </g>
    </g>
    <g id="xtick_39">
     <g id="line2d_86">
      <g>
       <use style="stroke:#000000;stroke-linecap:butt;stroke-width:0.5;" x="475.469419355" xlink:href="#m69b1a1edd1" y="388.8"/>
      </g>
     </g>
     <g id="line2d_87">
      <g>
       <use style="stroke:#000000;stroke-linecap:butt;stroke-width:0.5;" x="475.469419355" xlink:href="#m9ad4d917ad" y="12.96"/>
      </g>
     </g>
    </g>
    <g id="xtick_40">
     <g id="line2d_88">
      <g>
       <use style="stroke:#000000;stroke-linecap:butt;stroke-width:0.5;" x="487.593290323" xlink:href="#m69b1a1edd1" y="388.8"/>
      </g>
     </g>
     <g id="line2d_89">
      <g>
       <use style="stroke:#000000;stroke-linecap:butt;stroke-width:0.5;" x="487.593290323" xlink:href="#m9ad4d917ad" y="12.96"/>
      </g>
     </g>
    </g>
    <g id="xtick_41">
     <g id="line2d_90">
      <g>
       <use style="stroke:#000000;stroke-linecap:butt;stroke-width:0.5;" x="500.121290323" xlink:href="#m69b1a1edd1" y="388.8"/>
      </g>
     </g>
     <g id="line2d_91">
      <g>
       <use style="stroke:#000000;stroke-linecap:butt;stroke-width:0.5;" x="500.121290323" xlink:href="#m9ad4d917ad" y="12.96"/>
      </g>
     </g>
    </g>
    <g id="xtick_42">
     <g id="line2d_92">
      <g>
       <use style="stroke:#000000;stroke-linecap:butt;stroke-width:0.5;" x="512.649290323" xlink:href="#m69b1a1edd1" y="388.8"/>
      </g>
     </g>
     <g id="line2d_93">
      <g>
       <use style="stroke:#000000;stroke-linecap:butt;stroke-width:0.5;" x="512.649290323" xlink:href="#m9ad4d917ad" y="12.96"/>
      </g>
     </g>
    </g>
    <g id="xtick_43">
     <g id="line2d_94">
      <g>
       <use style="stroke:#000000;stroke-linecap:butt;stroke-width:0.5;" x="524.369032258" xlink:href="#m69b1a1edd1" y="388.8"/>
      </g>
     </g>
     <g id="line2d_95">
      <g>
       <use style="stroke:#000000;stroke-linecap:butt;stroke-width:0.5;" x="524.369032258" xlink:href="#m9ad4d917ad" y="12.96"/>
      </g>
     </g>
    </g>
    <g id="xtick_44">
     <g id="line2d_96">
      <g>
       <use style="stroke:#000000;stroke-linecap:butt;stroke-width:0.5;" x="536.897032258" xlink:href="#m69b1a1edd1" y="388.8"/>
      </g>
     </g>
     <g id="line2d_97">
      <g>
       <use style="stroke:#000000;stroke-linecap:butt;stroke-width:0.5;" x="536.897032258" xlink:href="#m9ad4d917ad" y="12.96"/>
      </g>
     </g>
    </g>
    <g id="xtick_45">
     <g id="line2d_98">
      <g>
       <use style="stroke:#000000;stroke-linecap:butt;stroke-width:0.5;" x="549.020903226" xlink:href="#m69b1a1edd1" y="388.8"/>
      </g>
     </g>
     <g id="line2d_99">
      <g>
       <use style="stroke:#000000;stroke-linecap:butt;stroke-width:0.5;" x="549.020903226" xlink:href="#m9ad4d917ad" y="12.96"/>
      </g>
     </g>
    </g>
   </g>
   <g id="matplotlib.axis_2">
    <g id="ytick_1">
     <g id="line2d_100">
      <path clip-path="url(#p199fde9080)" d="
M57.6 388.8
L558.72 388.8" style="fill:none;stroke:#000000;stroke-dasharray:1.000000,3.000000;stroke-dashoffset:0.0;stroke-linecap:butt;stroke-width:0.5;"/>
     </g>
     <g id="line2d_101">
      <defs>
       <path d="
M0 0
L4 0" id="me8a85f7bf6" style="stroke:#000000;stroke-linecap:butt;stroke-width:0.5;"/>
      </defs>
      <g>
       <use style="stroke:#000000;stroke-linecap:butt;stroke-width:0.5;" x="57.6" xlink:href="#me8a85f7bf6" y="388.8"/>
      </g>
     </g>
     <g id="line2d_102">
      <defs>
       <path d="
M0 0
L-4 0" id="m1a32005dea" style="stroke:#000000;stroke-linecap:butt;stroke-width:0.5;"/>
      </defs>
      <g>
       <use style="stroke:#000000;stroke-linecap:butt;stroke-width:0.5;" x="558.72" xlink:href="#m1a32005dea" y="388.8"/>
      </g>
     </g>
     <g id="text_5">
      <!-- 0 -->
      <g transform="translate(42.7971875 395.35171875)scale(0.18 -0.18)">
       <use xlink:href="#BitstreamVeraSans-Bold-30"/>
      </g>
     </g>
    </g>
    <g id="ytick_2">
     <g id="line2d_103">
      <path clip-path="url(#p199fde9080)" d="
M57.6 335.109
L558.72 335.109" style="fill:none;stroke:#000000;stroke-dasharray:1.000000,3.000000;stroke-dashoffset:0.0;stroke-linecap:butt;stroke-width:0.5;"/>
     </g>
     <g id="line2d_104">
      <g>
       <use style="stroke:#000000;stroke-linecap:butt;stroke-width:0.5;" x="57.6" xlink:href="#me8a85f7bf6" y="335.108571429"/>
      </g>
     </g>
     <g id="line2d_105">
      <g>
       <use style="stroke:#000000;stroke-linecap:butt;stroke-width:0.5;" x="558.72" xlink:href="#m1a32005dea" y="335.108571429"/>
      </g>
     </g>
     <g id="text_6">
      <!-- 50 -->
      <defs>
       <path d="
M10.5938 72.9062
L57.3281 72.9062
L57.3281 59.0781
L25.5938 59.0781
L25.5938 47.7969
Q27.7344 48.3906 29.9062 48.7031
Q32.0781 49.0312 34.4219 49.0312
Q47.75 49.0312 55.1719 42.3594
Q62.5938 35.6875 62.5938 23.7812
Q62.5938 11.9688 54.5156 5.26562
Q46.4375 -1.42188 32.0781 -1.42188
Q25.875 -1.42188 19.7969 -0.21875
Q13.7188 0.984375 7.71875 3.42188
L7.71875 18.2188
Q13.6719 14.7969 19.0156 13.0781
Q24.3594 11.375 29.1094 11.375
Q35.9375 11.375 39.8594 14.7188
Q43.7969 18.0625 43.7969 23.7812
Q43.7969 29.5469 39.8594 32.8594
Q35.9375 36.1875 29.1094 36.1875
Q25.0469 36.1875 20.4531 35.125
Q15.875 34.0781 10.5938 31.8906
z
" id="BitstreamVeraSans-Bold-35"/>
      </defs>
      <g transform="translate(30.801875 341.660290179)scale(0.18 -0.18)">
       <use xlink:href="#BitstreamVeraSans-Bold-35"/>
       <use x="69.580078125" xlink:href="#BitstreamVeraSans-Bold-30"/>
      </g>
     </g>
    </g>
    <g id="ytick_3">
     <g id="line2d_106">
      <path clip-path="url(#p199fde9080)" d="
M57.6 281.417
L558.72 281.417" style="fill:none;stroke:#000000;stroke-dasharray:1.000000,3.000000;stroke-dashoffset:0.0;stroke-linecap:butt;stroke-width:0.5;"/>
     </g>
     <g id="line2d_107">
      <g>
       <use style="stroke:#000000;stroke-linecap:butt;stroke-width:0.5;" x="57.6" xlink:href="#me8a85f7bf6" y="281.417142857"/>
      </g>
     </g>
     <g id="line2d_108">
      <g>
       <use style="stroke:#000000;stroke-linecap:butt;stroke-width:0.5;" x="558.72" xlink:href="#m1a32005dea" y="281.417142857"/>
      </g>
     </g>
     <g id="text_7">
      <!-- 100 -->
      <g transform="translate(18.9190625 287.968861607)scale(0.18 -0.18)">
       <use xlink:href="#BitstreamVeraSans-Bold-31"/>
       <use x="69.580078125" xlink:href="#BitstreamVeraSans-Bold-30"/>
       <use x="139.16015625" xlink:href="#BitstreamVeraSans-Bold-30"/>
      </g>
     </g>
    </g>
    <g id="ytick_4">
     <g id="line2d_109">
      <path clip-path="url(#p199fde9080)" d="
M57.6 227.726
L558.72 227.726" style="fill:none;stroke:#000000;stroke-dasharray:1.000000,3.000000;stroke-dashoffset:0.0;stroke-linecap:butt;stroke-width:0.5;"/>
     </g>
     <g id="line2d_110">
      <g>
       <use style="stroke:#000000;stroke-linecap:butt;stroke-width:0.5;" x="57.6" xlink:href="#me8a85f7bf6" y="227.725714286"/>
      </g>
     </g>
     <g id="line2d_111">
      <g>
       <use style="stroke:#000000;stroke-linecap:butt;stroke-width:0.5;" x="558.72" xlink:href="#m1a32005dea" y="227.725714286"/>
      </g>
     </g>
     <g id="text_8">
      <!-- 150 -->
      <g transform="translate(18.9190625 234.277433036)scale(0.18 -0.18)">
       <use xlink:href="#BitstreamVeraSans-Bold-31"/>
       <use x="69.580078125" xlink:href="#BitstreamVeraSans-Bold-35"/>
       <use x="139.16015625" xlink:href="#BitstreamVeraSans-Bold-30"/>
      </g>
     </g>
    </g>
    <g id="ytick_5">
     <g id="line2d_112">
      <path clip-path="url(#p199fde9080)" d="
M57.6 174.034
L558.72 174.034" style="fill:none;stroke:#000000;stroke-dasharray:1.000000,3.000000;stroke-dashoffset:0.0;stroke-linecap:butt;stroke-width:0.5;"/>
     </g>
     <g id="line2d_113">
      <g>
       <use style="stroke:#000000;stroke-linecap:butt;stroke-width:0.5;" x="57.6" xlink:href="#me8a85f7bf6" y="174.034285714"/>
      </g>
     </g>
     <g id="line2d_114">
      <g>
       <use style="stroke:#000000;stroke-linecap:butt;stroke-width:0.5;" x="558.72" xlink:href="#m1a32005dea" y="174.034285714"/>
      </g>
     </g>
     <g id="text_9">
      <!-- 200 -->
      <g transform="translate(18.3115625 180.586004464)scale(0.18 -0.18)">
       <use xlink:href="#BitstreamVeraSans-Bold-32"/>
       <use x="69.580078125" xlink:href="#BitstreamVeraSans-Bold-30"/>
       <use x="139.16015625" xlink:href="#BitstreamVeraSans-Bold-30"/>
      </g>
     </g>
    </g>
    <g id="ytick_6">
     <g id="line2d_115">
      <path clip-path="url(#p199fde9080)" d="
M57.6 120.343
L558.72 120.343" style="fill:none;stroke:#000000;stroke-dasharray:1.000000,3.000000;stroke-dashoffset:0.0;stroke-linecap:butt;stroke-width:0.5;"/>
     </g>
     <g id="line2d_116">
      <g>
       <use style="stroke:#000000;stroke-linecap:butt;stroke-width:0.5;" x="57.6" xlink:href="#me8a85f7bf6" y="120.342857143"/>
      </g>
     </g>
     <g id="line2d_117">
      <g>
       <use style="stroke:#000000;stroke-linecap:butt;stroke-width:0.5;" x="558.72" xlink:href="#m1a32005dea" y="120.342857143"/>
      </g>
     </g>
     <g id="text_10">
      <!-- 250 -->
      <g transform="translate(18.3115625 126.894575893)scale(0.18 -0.18)">
       <use xlink:href="#BitstreamVeraSans-Bold-32"/>
       <use x="69.580078125" xlink:href="#BitstreamVeraSans-Bold-35"/>
       <use x="139.16015625" xlink:href="#BitstreamVeraSans-Bold-30"/>
      </g>
     </g>
    </g>
    <g id="ytick_7">
     <g id="line2d_118">
      <path clip-path="url(#p199fde9080)" d="
M57.6 66.6514
L558.72 66.6514" style="fill:none;stroke:#000000;stroke-dasharray:1.000000,3.000000;stroke-dashoffset:0.0;stroke-linecap:butt;stroke-width:0.5;"/>
     </g>
     <g id="line2d_119">
      <g>
       <use style="stroke:#000000;stroke-linecap:butt;stroke-width:0.5;" x="57.6" xlink:href="#me8a85f7bf6" y="66.6514285714"/>
      </g>
     </g>
     <g id="line2d_120">
      <g>
       <use style="stroke:#000000;stroke-linecap:butt;stroke-width:0.5;" x="558.72" xlink:href="#m1a32005dea" y="66.6514285714"/>
      </g>
     </g>
     <g id="text_11">
      <!-- 300 -->
      <defs>
       <path d="
M46.5781 39.3125
Q53.9531 37.4062 57.7812 32.6875
Q61.625 27.9844 61.625 20.7031
Q61.625 9.85938 53.3125 4.21875
Q45.0156 -1.42188 29.1094 -1.42188
Q23.4844 -1.42188 17.8438 -0.515625
Q12.2031 0.390625 6.6875 2.20312
L6.6875 16.7031
Q11.9688 14.0625 17.1562 12.7188
Q22.3594 11.375 27.3906 11.375
Q34.8594 11.375 38.8438 13.9531
Q42.8281 16.5469 42.8281 21.3906
Q42.8281 26.375 38.75 28.9375
Q34.6719 31.5 26.7031 31.5
L19.1875 31.5
L19.1875 43.6094
L27.0938 43.6094
Q34.1875 43.6094 37.6406 45.8281
Q41.1094 48.0469 41.1094 52.5938
Q41.1094 56.7812 37.7344 59.0781
Q34.375 61.375 28.2188 61.375
Q23.6875 61.375 19.0469 60.3438
Q14.4062 59.3281 9.8125 57.3281
L9.8125 71.0938
Q15.375 72.6562 20.8438 73.4375
Q26.3125 74.2188 31.5938 74.2188
Q45.7969 74.2188 52.8438 69.5469
Q59.9062 64.8906 59.9062 55.5156
Q59.9062 49.125 56.5312 45.0469
Q53.1719 40.9688 46.5781 39.3125" id="BitstreamVeraSans-Bold-33"/>
      </defs>
      <g transform="translate(18.0921875 73.2031473214)scale(0.18 -0.18)">
       <use xlink:href="#BitstreamVeraSans-Bold-33"/>
       <use x="69.580078125" xlink:href="#BitstreamVeraSans-Bold-30"/>
       <use x="139.16015625" xlink:href="#BitstreamVeraSans-Bold-30"/>
      </g>
     </g>
    </g>
    <g id="ytick_8">
     <g id="line2d_121">
      <path clip-path="url(#p199fde9080)" d="
M57.6 12.96
L558.72 12.96" style="fill:none;stroke:#000000;stroke-dasharray:1.000000,3.000000;stroke-dashoffset:0.0;stroke-linecap:butt;stroke-width:0.5;"/>
     </g>
     <g id="line2d_122">
      <g>
       <use style="stroke:#000000;stroke-linecap:butt;stroke-width:0.5;" x="57.6" xlink:href="#me8a85f7bf6" y="12.96"/>
      </g>
     </g>
     <g id="line2d_123">
      <g>
       <use style="stroke:#000000;stroke-linecap:butt;stroke-width:0.5;" x="558.72" xlink:href="#m1a32005dea" y="12.96"/>
      </g>
     </g>
     <g id="text_12">
      <!-- 350 -->
      <g transform="translate(18.0921875 19.51171875)scale(0.18 -0.18)">
       <use xlink:href="#BitstreamVeraSans-Bold-33"/>
       <use x="69.580078125" xlink:href="#BitstreamVeraSans-Bold-35"/>
       <use x="139.16015625" xlink:href="#BitstreamVeraSans-Bold-30"/>
      </g>
     </g>
    </g>
   </g>
   <g id="patch_3">
    <path d="
M57.6 12.96
L558.72 12.96" style="fill:none;stroke:#000000;"/>
   </g>
   <g id="patch_4">
    <path d="
M558.72 388.8
L558.72 12.96" style="fill:none;stroke:#000000;"/>
   </g>
   <g id="patch_5">
    <path d="
M57.6 388.8
L558.72 388.8" style="fill:none;stroke:#000000;"/>
   </g>
   <g id="patch_6">
    <path d="
M57.6 388.8
L57.6 12.96" style="fill:none;stroke:#000000;"/>
   </g>
   <g id="legend_1">
    <g id="patch_7">
     <path d="
M348.775 184.579
L547.92 184.579
L547.92 23.76
L348.775 23.76
L348.775 184.579
z
" style="fill:#ffffff;stroke:#000000;"/>
    </g>
    <g id="line2d_124">
     <path d="
M363.895 41.2526
L394.135 41.2526" style="fill:none;stroke:#008000;stroke-width:3;"/>
    </g>
    <g id="line2d_125"/>
    <g id="text_13">
     <!-- Asien -->
     <defs>
      <path d="
M63.375 33.2969
L63.375 0
L45.7969 0
L45.7969 5.42188
L45.7969 25.4844
Q45.7969 32.5625 45.4844 35.25
Q45.1719 37.9375 44.3906 39.2031
Q43.3594 40.9219 41.5938 41.875
Q39.8438 42.8281 37.5938 42.8281
Q32.125 42.8281 29 38.5938
Q25.875 34.375 25.875 26.9062
L25.875 0
L8.40625 0
L8.40625 54.6875
L25.875 54.6875
L25.875 46.6875
Q29.8281 51.4688 34.2656 53.7344
Q38.7188 56 44.0938 56
Q53.5625 56 58.4688 50.1875
Q63.375 44.3906 63.375 33.2969" id="BitstreamVeraSans-Bold-6e"/>
      <path d="
M53.4219 13.2812
L24.0312 13.2812
L19.3906 0
L0.484375 0
L27.4844 72.9062
L49.9062 72.9062
L76.9062 0
L58.0156 0
z

M28.7188 26.8125
L48.6875 26.8125
L38.7188 55.8125
z
" id="BitstreamVeraSans-Bold-41"/>
      <path d="
M51.125 52.9844
L51.125 39.7031
Q45.5156 42.0469 40.2812 43.2188
Q35.0625 44.3906 30.4219 44.3906
Q25.4375 44.3906 23.0156 43.1406
Q20.6094 41.8906 20.6094 39.3125
Q20.6094 37.2031 22.4375 36.0781
Q24.2656 34.9688 29 34.4219
L32.0781 33.9844
Q45.5156 32.2812 50.1406 28.375
Q54.7812 24.4688 54.7812 16.1094
Q54.7812 7.375 48.3281 2.96875
Q41.8906 -1.42188 29.1094 -1.42188
Q23.6875 -1.42188 17.8906 -0.5625
Q12.1094 0.296875 6 2
L6 15.2812
Q11.2344 12.75 16.7188 11.4688
Q22.2188 10.2031 27.875 10.2031
Q33.0156 10.2031 35.5938 11.6094
Q38.1875 13.0312 38.1875 15.8281
Q38.1875 18.1719 36.4062 19.3125
Q34.625 20.4531 29.2969 21.0938
L26.2188 21.4844
Q14.5469 22.9531 9.85938 26.9062
Q5.17188 30.8594 5.17188 38.9219
Q5.17188 47.6094 11.125 51.7969
Q17.0938 56 29.3906 56
Q34.2344 56 39.5469 55.2656
Q44.875 54.5469 51.125 52.9844" id="BitstreamVeraSans-Bold-73"/>
      <path d="
M8.40625 54.6875
L25.875 54.6875
L25.875 0
L8.40625 0
z

M8.40625 75.9844
L25.875 75.9844
L25.875 61.7188
L8.40625 61.7188
z
" id="BitstreamVeraSans-Bold-69"/>
      <path d="
M62.9844 27.4844
L62.9844 22.5156
L22.125 22.5156
Q22.75 16.3594 26.5625 13.2812
Q30.375 10.2031 37.2031 10.2031
Q42.7188 10.2031 48.5 11.8438
Q54.2969 13.4844 60.4062 16.7969
L60.4062 3.32812
Q54.2031 0.984375 48 -0.21875
Q41.7969 -1.42188 35.5938 -1.42188
Q20.75 -1.42188 12.5156 6.125
Q4.29688 13.6719 4.29688 27.2969
Q4.29688 40.6719 12.375 48.3281
Q20.4531 56 34.625 56
Q47.5156 56 55.25 48.2344
Q62.9844 40.4844 62.9844 27.4844
M45.0156 33.2969
Q45.0156 38.2812 42.1094 41.3281
Q39.2031 44.3906 34.5156 44.3906
Q29.4375 44.3906 26.2656 41.5312
Q23.0938 38.6719 22.3125 33.2969
z
" id="BitstreamVeraSans-Bold-65"/>
     </defs>
     <g transform="translate(417.89475 48.812625)scale(0.216 -0.216)">
      <use xlink:href="#BitstreamVeraSans-Bold-41"/>
      <use x="77.392578125" xlink:href="#BitstreamVeraSans-Bold-73"/>
      <use x="136.9140625" xlink:href="#BitstreamVeraSans-Bold-69"/>
      <use x="171.19140625" xlink:href="#BitstreamVeraSans-Bold-65"/>
      <use x="239.013671875" xlink:href="#BitstreamVeraSans-Bold-6e"/>
     </g>
    </g>
    <g id="line2d_126">
     <path d="
M363.895 72.9574
L394.135 72.9574" style="fill:none;stroke:#0000ff;stroke-width:3;"/>
    </g>
    <g id="line2d_127"/>
    <g id="text_14">
     <!-- Europa -->
     <defs>
      <path d="
M49.0312 39.7969
Q46.7344 40.875 44.4531 41.375
Q42.1875 41.8906 39.8906 41.8906
Q33.1562 41.8906 29.5156 37.5625
Q25.875 33.25 25.875 25.2031
L25.875 0
L8.40625 0
L8.40625 54.6875
L25.875 54.6875
L25.875 45.7031
Q29.25 51.0781 33.6094 53.5312
Q37.9844 56 44.0938 56
Q44.9688 56 45.9844 55.9219
Q47.0156 55.8594 48.9688 55.6094
z
" id="BitstreamVeraSans-Bold-72"/>
      <path d="
M9.1875 72.9062
L59.9062 72.9062
L59.9062 58.6875
L27.9844 58.6875
L27.9844 45.125
L58.0156 45.125
L58.0156 30.9062
L27.9844 30.9062
L27.9844 14.2031
L60.9844 14.2031
L60.9844 0
L9.1875 0
z
" id="BitstreamVeraSans-Bold-45"/>
      <path d="
M25.875 7.90625
L25.875 -20.7969
L8.40625 -20.7969
L8.40625 54.6875
L25.875 54.6875
L25.875 46.6875
Q29.5 51.4688 33.8906 53.7344
Q38.2812 56 44 56
Q54.1094 56 60.5938 47.9688
Q67.0938 39.9375 67.0938 27.2969
Q67.0938 14.6562 60.5938 6.60938
Q54.1094 -1.42188 44 -1.42188
Q38.2812 -1.42188 33.8906 0.84375
Q29.5 3.125 25.875 7.90625
M37.5 43.3125
Q31.8906 43.3125 28.875 39.1875
Q25.875 35.0625 25.875 27.2969
Q25.875 19.5312 28.875 15.4062
Q31.8906 11.2812 37.5 11.2812
Q43.1094 11.2812 46.0625 15.375
Q49.0312 19.4844 49.0312 27.2969
Q49.0312 35.1094 46.0625 39.2031
Q43.1094 43.3125 37.5 43.3125" id="BitstreamVeraSans-Bold-70"/>
      <path d="
M32.9062 24.6094
Q27.4375 24.6094 24.6719 22.75
Q21.9219 20.9062 21.9219 17.2812
Q21.9219 13.9688 24.1406 12.0781
Q26.375 10.2031 30.3281 10.2031
Q35.25 10.2031 38.625 13.7344
Q42 17.2812 42 22.6094
L42 24.6094
z

M59.625 31.2031
L59.625 0
L42 0
L42 8.10938
Q38.4844 3.125 34.0781 0.84375
Q29.6875 -1.42188 23.3906 -1.42188
Q14.8906 -1.42188 9.59375 3.53125
Q4.29688 8.5 4.29688 16.4062
Q4.29688 26.0312 10.9062 30.5156
Q17.5312 35.0156 31.6875 35.0156
L42 35.0156
L42 36.375
Q42 40.5312 38.7188 42.4531
Q35.4531 44.3906 28.5156 44.3906
Q22.9062 44.3906 18.0625 43.2656
Q13.2344 42.1406 9.07812 39.8906
L9.07812 53.2188
Q14.7031 54.5938 20.3594 55.2969
Q26.0312 56 31.6875 56
Q46.4844 56 53.0469 50.1719
Q59.625 44.3438 59.625 31.2031" id="BitstreamVeraSans-Bold-61"/>
      <path d="
M7.8125 21.2969
L7.8125 54.6875
L25.3906 54.6875
L25.3906 49.2188
Q25.3906 44.7812 25.3438 38.0625
Q25.2969 31.3438 25.2969 29.1094
Q25.2969 22.5156 25.6406 19.6094
Q25.9844 16.7031 26.8125 15.375
Q27.875 13.6719 29.6094 12.7344
Q31.3438 11.8125 33.5938 11.8125
Q39.0625 11.8125 42.1875 16.0156
Q45.3125 20.2188 45.3125 27.6875
L45.3125 54.6875
L62.7969 54.6875
L62.7969 0
L45.3125 0
L45.3125 7.90625
Q41.3594 3.125 36.9375 0.84375
Q32.5156 -1.42188 27.2031 -1.42188
Q17.7188 -1.42188 12.7656 4.39062
Q7.8125 10.2031 7.8125 21.2969" id="BitstreamVeraSans-Bold-75"/>
      <path d="
M34.4219 43.5
Q28.6094 43.5 25.5625 39.3281
Q22.5156 35.1562 22.5156 27.2969
Q22.5156 19.4375 25.5625 15.25
Q28.6094 11.0781 34.4219 11.0781
Q40.1406 11.0781 43.1562 15.25
Q46.1875 19.4375 46.1875 27.2969
Q46.1875 35.1562 43.1562 39.3281
Q40.1406 43.5 34.4219 43.5
M34.4219 56
Q48.5312 56 56.4688 48.375
Q64.4062 40.7656 64.4062 27.2969
Q64.4062 13.8125 56.4688 6.1875
Q48.5312 -1.42188 34.4219 -1.42188
Q20.2656 -1.42188 12.2812 6.1875
Q4.29688 13.8125 4.29688 27.2969
Q4.29688 40.7656 12.2812 48.375
Q20.2656 56 34.4219 56" id="BitstreamVeraSans-Bold-6f"/>
     </defs>
     <g transform="translate(417.89475 80.517375)scale(0.216 -0.216)">
      <use xlink:href="#BitstreamVeraSans-Bold-45"/>
      <use x="68.310546875" xlink:href="#BitstreamVeraSans-Bold-75"/>
      <use x="139.501953125" xlink:href="#BitstreamVeraSans-Bold-72"/>
      <use x="188.818359375" xlink:href="#BitstreamVeraSans-Bold-6f"/>
      <use x="257.51953125" xlink:href="#BitstreamVeraSans-Bold-70"/>
      <use x="329.1015625" xlink:href="#BitstreamVeraSans-Bold-61"/>
     </g>
    </g>
    <g id="line2d_128">
     <path d="
M363.895 104.662
L394.135 104.662" style="fill:none;stroke:#ff0000;stroke-width:3;"/>
    </g>
    <g id="line2d_129"/>
    <g id="text_15">
     <!-- USA -->
     <defs>
      <path d="
M9.1875 72.9062
L27.9844 72.9062
L27.9844 29.2031
Q27.9844 20.1719 30.9375 16.2812
Q33.8906 12.4062 40.5781 12.4062
Q47.3125 12.4062 50.2656 16.2812
Q53.2188 20.1719 53.2188 29.2031
L53.2188 72.9062
L72.0156 72.9062
L72.0156 29.2031
Q72.0156 13.7188 64.25 6.14062
Q56.5 -1.42188 40.5781 -1.42188
Q24.7031 -1.42188 16.9375 6.14062
Q9.1875 13.7188 9.1875 29.2031
z
" id="BitstreamVeraSans-Bold-55"/>
      <path d="
M59.9062 70.6094
L59.9062 55.1719
Q53.9062 57.8594 48.1875 59.2188
Q42.4844 60.5938 37.4062 60.5938
Q30.6719 60.5938 27.4375 58.7344
Q24.2188 56.8906 24.2188 52.9844
Q24.2188 50.0469 26.3906 48.4062
Q28.5625 46.7812 34.2812 45.6094
L42.2812 44
Q54.4375 41.5469 59.5625 36.5625
Q64.7031 31.5938 64.7031 22.4062
Q64.7031 10.3594 57.5469 4.46875
Q50.3906 -1.42188 35.6875 -1.42188
Q28.7656 -1.42188 21.7812 -0.09375
Q14.7969 1.21875 7.8125 3.8125
L7.8125 19.6719
Q14.7969 15.9688 21.3125 14.0781
Q27.8281 12.2031 33.8906 12.2031
Q40.0469 12.2031 43.3125 14.25
Q46.5781 16.3125 46.5781 20.125
Q46.5781 23.5312 44.3594 25.3906
Q42.1406 27.25 35.5 28.7188
L28.2188 30.3281
Q17.2812 32.6719 12.2188 37.7969
Q7.17188 42.9219 7.17188 51.6094
Q7.17188 62.5 14.2031 68.3594
Q21.2344 74.2188 34.4219 74.2188
Q40.4375 74.2188 46.7812 73.3125
Q53.125 72.4062 59.9062 70.6094" id="BitstreamVeraSans-Bold-53"/>
     </defs>
     <g transform="translate(417.89475 112.222125)scale(0.216 -0.216)">
      <use xlink:href="#BitstreamVeraSans-Bold-55"/>
      <use x="81.201171875" xlink:href="#BitstreamVeraSans-Bold-53"/>
      <use x="153.22265625" xlink:href="#BitstreamVeraSans-Bold-41"/>
     </g>
    </g>
    <g id="line2d_130">
     <path d="
M363.895 136.367
L394.135 136.367" style="fill:none;stroke:#ff00ff;stroke-width:3;"/>
    </g>
    <g id="line2d_131"/>
    <g id="text_16">
     <!-- Afrika -->
     <defs>
      <path d="
M8.40625 75.9844
L25.875 75.9844
L25.875 34.625
L46 54.6875
L66.3125 54.6875
L39.5938 29.5938
L68.4062 0
L47.2188 0
L25.875 22.7969
L25.875 0
L8.40625 0
z
" id="BitstreamVeraSans-Bold-6b"/>
      <path d="
M44.3906 75.9844
L44.3906 64.5
L34.7188 64.5
Q31 64.5 29.5312 63.1562
Q28.0781 61.8125 28.0781 58.5
L28.0781 54.6875
L43.0156 54.6875
L43.0156 42.1875
L28.0781 42.1875
L28.0781 0
L10.5938 0
L10.5938 42.1875
L1.90625 42.1875
L1.90625 54.6875
L10.5938 54.6875
L10.5938 58.5
Q10.5938 67.4375 15.5781 71.7031
Q20.5625 75.9844 31 75.9844
z
" id="BitstreamVeraSans-Bold-66"/>
     </defs>
     <g transform="translate(417.89475 143.926875)scale(0.216 -0.216)">
      <use xlink:href="#BitstreamVeraSans-Bold-41"/>
      <use x="77.392578125" xlink:href="#BitstreamVeraSans-Bold-66"/>
      <use x="120.8984375" xlink:href="#BitstreamVeraSans-Bold-72"/>
      <use x="170.21484375" xlink:href="#BitstreamVeraSans-Bold-69"/>
      <use x="204.4921875" xlink:href="#BitstreamVeraSans-Bold-6b"/>
      <use x="270.99609375" xlink:href="#BitstreamVeraSans-Bold-61"/>
     </g>
    </g>
    <g id="line2d_132">
     <path d="
M363.895 168.072
L394.135 168.072" style="fill:none;stroke:#ffa500;stroke-width:3;"/>
    </g>
    <g id="line2d_133"/>
    <g id="text_17">
     <!-- S.Amerika -->
     <defs>
      <path d="
M10.2031 18.8906
L27.7812 18.8906
L27.7812 0
L10.2031 0
z
" id="BitstreamVeraSans-Bold-2e"/>
      <path d="
M59.0781 45.6094
Q62.4062 50.6875 66.9688 53.3438
Q71.5312 56 77 56
Q86.4219 56 91.3594 50.1875
Q96.2969 44.3906 96.2969 33.2969
L96.2969 0
L78.7188 0
L78.7188 28.5156
Q78.7656 29.1562 78.7812 29.8281
Q78.8125 30.5156 78.8125 31.7812
Q78.8125 37.5938 77.0938 40.2031
Q75.3906 42.8281 71.5781 42.8281
Q66.6094 42.8281 63.8906 38.7188
Q61.1875 34.625 61.0781 26.8594
L61.0781 0
L43.5 0
L43.5 28.5156
Q43.5 37.5938 41.9375 40.2031
Q40.375 42.8281 36.375 42.8281
Q31.3438 42.8281 28.6094 38.7031
Q25.875 34.5781 25.875 26.9062
L25.875 0
L8.29688 0
L8.29688 54.6875
L25.875 54.6875
L25.875 46.6875
Q29.1094 51.3125 33.2812 53.6562
Q37.4531 56 42.4844 56
Q48.1406 56 52.4844 53.2656
Q56.8438 50.5312 59.0781 45.6094" id="BitstreamVeraSans-Bold-6d"/>
     </defs>
     <g transform="translate(417.89475 175.631625)scale(0.216 -0.216)">
      <use xlink:href="#BitstreamVeraSans-Bold-53"/>
      <use x="72.021484375" xlink:href="#BitstreamVeraSans-Bold-2e"/>
      <use x="110.009765625" xlink:href="#BitstreamVeraSans-Bold-41"/>
      <use x="187.40234375" xlink:href="#BitstreamVeraSans-Bold-6d"/>
      <use x="291.6015625" xlink:href="#BitstreamVeraSans-Bold-65"/>
      <use x="359.423828125" xlink:href="#BitstreamVeraSans-Bold-72"/>
      <use x="408.740234375" xlink:href="#BitstreamVeraSans-Bold-69"/>
      <use x="443.017578125" xlink:href="#BitstreamVeraSans-Bold-6b"/>
      <use x="509.521484375" xlink:href="#BitstreamVeraSans-Bold-61"/>
     </g>
    </g>
   </g>
  </g>
 </g>
 <defs>
  <clipPath id="p199fde9080">
   <rect height="375.84" width="501.12" x="57.6" y="12.96"/>
  </clipPath>
 </defs>
</svg>
